<?xml version="1.0" encoding="utf-8"?><svg xmlns="http://www.w3.org/2000/svg" xmlns:xlink="http://www.w3.org/1999/xlink"><symbol fill="none" viewBox="0 0 60 60" id="arrow-swiper" xmlns="http://www.w3.org/2000/svg"><rect x="60" y="60" width="60" height="60" rx="30" transform="rotate(-180 60 60)" fill="currentColor" fill-opacity=".5"/><path d="m30 41.334 1.997-1.998-7.904-7.919h17.24v-2.833h-17.24l7.904-7.92L30 18.668 18.667 30.001 30 41.334Z" fill="#fff"/></symbol><symbol fill="none" viewBox="0 0 25 24" id="chevron-down" xmlns="http://www.w3.org/2000/svg"><path fill-rule="evenodd" clip-rule="evenodd" d="M5.793 8.293a1 1 0 0 1 1.414 0l5.293 5.293 5.293-5.293a1 1 0 1 1 1.414 1.414l-6 6a1 1 0 0 1-1.414 0l-6-6a1 1 0 0 1 0-1.414Z" fill="currentColor"/></symbol><symbol fill="none" viewBox="0 0 28 28" id="eyeglass" xmlns="http://www.w3.org/2000/svg"><path d="M14 5.25C8.167 5.25 3.185 8.878 1.167 14c2.018 5.122 7 8.75 12.833 8.75S24.815 19.122 26.833 14c-2.018-5.122-7-8.75-12.833-8.75Zm0 14.583A5.835 5.835 0 0 1 8.167 14 5.835 5.835 0 0 1 14 8.167 5.835 5.835 0 0 1 19.833 14 5.835 5.835 0 0 1 14 19.833Zm0-9.333a3.495 3.495 0 0 0-3.5 3.5c0 1.937 1.563 3.5 3.5 3.5s3.5-1.563 3.5-3.5-1.563-3.5-3.5-3.5Z" fill="currentColor"/></symbol><symbol fill="none" viewBox="0 0 60 60" id="gerb" xmlns="http://www.w3.org/2000/svg"><g clip-path="url(#da)"><path d="M28.508 60a.895.895 0 0 0-.173-.048c-.53-.039-1.063-.057-1.592-.115-.517-.054-1.034-.138-1.55-.215-.35-.053-.7-.106-1.047-.18-.528-.114-1.057-.224-1.577-.368-.825-.23-1.653-.456-2.46-.737a29.211 29.211 0 0 1-2.343-.942c-.78-.35-1.55-.735-2.303-1.14a27.48 27.48 0 0 1-3.223-2.057 29.948 29.948 0 0 1-8.105-8.949c-.543-.919-1.054-1.86-1.467-2.847a62.715 62.715 0 0 1-1.052-2.641c-.227-.62-.399-1.26-.574-1.895a27.866 27.866 0 0 1-.377-1.528 25.56 25.56 0 0 1-.268-1.43 38.457 38.457 0 0 1-.248-1.757 14.62 14.62 0 0 1-.105-1.424 96.4 96.4 0 0 1 0-3.182c.012-.612.076-1.223.132-1.833.042-.453.103-.905.173-1.355.057-.385.13-.768.208-1.148.106-.51.214-1.018.34-1.522.108-.436.23-.869.367-1.296.233-.72.472-1.438.733-2.148.178-.487.38-.967.603-1.435.37-.788.752-1.568 1.162-2.333a27.605 27.605 0 0 1 2.083-3.246 30.45 30.45 0 0 1 2.63-3.107 29.848 29.848 0 0 1 5.591-4.515 25.635 25.635 0 0 1 2.684-1.488 43.96 43.96 0 0 1 2.454-1.067 28.35 28.35 0 0 1 2.187-.754c.661-.199 1.336-.352 2.01-.508a29.68 29.68 0 0 1 1.69-.344 19.814 19.814 0 0 1 1.505-.199 53.181 53.181 0 0 1 2.47-.191c.611-.03 1.227-.01 1.84.004.442.01.882.035 1.32.074a42.083 42.083 0 0 1 3.46.455c.387.069.771.16 1.153.255.567.142 1.137.28 1.696.45.579.176 1.154.369 1.717.589.813.317 1.618.651 2.417 1.003.998.441 1.95.976 2.88 1.541a29.959 29.959 0 0 1 10.23 10.348 28.004 28.004 0 0 1 1.705 3.355c.325.765.61 1.55.88 2.334a29.3 29.3 0 0 1 .614 2.042c.163.625.287 1.26.415 1.895.11.56.206 1.122.287 1.687.057.376.07.757.114 1.134.12 1.069.167 2.144.14 3.22a36.164 36.164 0 0 1-.103 2.204 30.2 30.2 0 0 1-.243 2.005c-.072.489-.172.976-.28 1.457a45.008 45.008 0 0 1-.556 2.231 33.086 33.086 0 0 1-.675 2.071 28.113 28.113 0 0 1-1.988 4.306 30.237 30.237 0 0 1-5.28 6.849c-1.128 1.096-2.326 2.11-3.628 2.994a40.48 40.48 0 0 1-2.646 1.665 22.068 22.068 0 0 1-2.982 1.439c-.817.32-1.64.627-2.469.915-.476.164-.966.287-1.455.413-.577.146-1.157.28-1.74.402-.45.095-.901.184-1.356.245-.804.107-1.607.194-2.411.283-.222.024-.446.023-.669.037a.743.743 0 0 0-.144.04l-2.801.003Zm1.465-54.377C16.52 5.603 5.565 16.545 5.56 30.013c-.006 13.434 10.886 24.415 24.4 24.419 13.46.003 24.392-10.893 24.408-24.38.017-13.489-10.915-24.432-24.394-24.43ZM55.96 36.926l-.016.047c-.085.022-.172.048-.257.063-.238.043-.477.084-.717.121-.087.014-.138-.023-.158-.12-.01-.046-.065-.084-.1-.126-.037.04-.09.075-.105.121-.068.211-.127.426-.182.64-.004.05 0 .1.013.147.055 0 .11-.007.164-.021.092-.036.172-.103.27-.126.416-.103.835-.196 1.254-.287a.368.368 0 0 1 .166-.004c.224.06.447.126.668.197.09.028.161.083.163.194 0 .072.007.164.105.145.048-.01.102-.086.12-.143.07-.22.13-.444.185-.669a.421.421 0 0 0-.016-.142c-.058.014-.14.011-.162.047a.214.214 0 0 1-.25.096 7.743 7.743 0 0 1-.541-.139c-.086-.024-.187-.046-.246-.105-.33-.334-.66-.668-.967-1.021-.24-.277-.173-.45.176-.563.197-.064.39-.141.588-.196.34-.094.663-.294 1.041-.169.115.038.246.026.355.07a.49.49 0 0 1 .223.194c.034.057.027.154.119.132.045-.01.094-.09.106-.145.047-.23.085-.468.115-.703.006-.042-.026-.09-.041-.136-.046.017-.115.021-.134.054a.23.23 0 0 1-.263.13c-.21-.03-.42-.057-.631-.099a.464.464 0 0 1-.201-.084 10.104 10.104 0 0 1-.635-.539c-.189-.177-.43-.305-.536-.566-.02-.047-.09-.074-.138-.11a.509.509 0 0 0-.09.14 7.92 7.92 0 0 0-.096.568.358.358 0 0 0 .038.132c.052-.016.122-.016.151-.051.06-.071.115-.094.194-.044.063.032.123.067.182.106.21.167.417.34.655.533-.337.101-.631.182-.925.28-.138.046-.21.021-.25-.121a.137.137 0 0 0-.1-.082.135.135 0 0 0-.094.088c-.032.127-.046.258-.07.387-.047.246-.093.493-.144.739-.036.172-.081.338-.134.555.1-.027.168-.024.199-.057.081-.089.159-.083.236-.013.246.217.476.436.713.655ZM25.8 56.39a.34.34 0 0 1 .01.078c-.071.408-.141.817-.217 1.224-.022.115-.068.22-.211.243-.032.005-.07.068-.075.107 0 .027.046.079.078.085.23.05.465.095.699.133.04.006.115-.028.121-.054.009-.044-.012-.123-.045-.139-.127-.06-.122-.156-.102-.268.057-.328.11-.657.166-.986.053-.313.108-.627.166-.94a.25.25 0 0 1 .204-.216.13.13 0 0 0 .08-.099.138.138 0 0 0-.088-.096 11.46 11.46 0 0 0-.686-.12c-.042-.005-.12.028-.128.058a.165.165 0 0 0 .052.137.254.254 0 0 1 .019.396c-.221.191-.444.38-.666.57-.16.136-.316.273-.474.41l-.04-.022c.023-.111.047-.22.067-.331l.182-.985c.018-.099.057-.163.172-.172a.144.144 0 0 0 .094-.106c0-.033-.058-.09-.098-.098a11.99 11.99 0 0 0-.69-.12c-.037-.005-.114.027-.114.048a.163.163 0 0 0 .05.133c.114.073.13.165.107.287-.111.617-.213 1.235-.328 1.852-.022.115-.037.259-.217.265-.029 0-.072.075-.075.118 0 .028.054.079.09.086.23.047.457.089.687.123.04.007.085-.028.128-.044-.02-.052-.024-.12-.06-.15a.272.272 0 0 1 0-.43l.401-.344c.244-.206.483-.413.74-.636v.003ZM1.57 32.368l.052.04c.05-.034.12-.057.148-.105.097-.172.252-.218.418-.104.331.23.665.456.997.686.074.052.144.111.22.172-.026.021-.033.033-.04.033-.46.028-.92.057-1.378.076-.049 0-.1-.066-.15-.1l-.141-.1c-.026.053-.076.107-.074.16.008.222.028.445.052.666.004.038.057.106.075.102.05-.013.122-.047.133-.086a.181.181 0 0 1 .182-.151l2.032-.154c.11-.009.178.046.226.144a.09.09 0 0 0 .172-.04c-.007-.238-.02-.476-.04-.713-.005-.043-.058-.082-.086-.122-.041.03-.099.052-.12.093-.092.169-.23.212-.39.103-.266-.182-.53-.368-.794-.55-.15-.105-.3-.208-.485-.334.198-.01.345-.015.491-.027.287-.021.574-.054.861-.065a.31.31 0 0 1 .23.094c.065.088.12.108.238.058-.023-.252-.043-.508-.071-.763-.005-.044-.045-.084-.07-.126-.045.031-.123.058-.132.094-.031.135-.12.16-.236.167-.237.016-.475.034-.713.052l-1.237.092a.214.214 0 0 1-.236-.126c-.018-.036-.084-.049-.127-.072-.021.039-.058.079-.058.115.011.265.032.527.05.788l.001.003Zm51.466 13.601c.46-.006.74-.254.938-.614.2-.36.206-.74-.023-1.09-.25-.385-.62-.629-1.034-.812-.578-.258-1.027-.151-1.385.348-.264.367-.312.762-.093 1.169.152.287.395.482.66.653.29.183.598.328.935.344l.002.002Zm-4.016 1.572a.924.924 0 0 0-.61.226c-.433.345-.632.852-.358 1.399.205.41.525.714.91.948.26.158.53.24.848.156.525-.136.947-.775.826-1.3-.115-.499-.46-.831-.841-1.128-.228-.178-.479-.304-.776-.303l.001.002ZM26.785 58.306c.213.018.42.04.627.05a.147.147 0 0 0 .117-.057c.121-.248.23-.503.35-.752.158-.332.34-.416.668-.317-.02.254-.039.51-.063.766-.01.104-.038.194-.164.23-.037.01-.072.079-.082.127-.003.017.067.068.108.072.242.024.484.041.727.051a.122.122 0 0 0 .094-.072.12.12 0 0 0-.049-.107c-.148-.051-.16-.162-.15-.292.052-.636.103-1.272.15-1.908.01-.123.035-.212.172-.245.034-.008.069-.081.07-.127 0-.024-.062-.07-.1-.074a3.445 3.445 0 0 0-.38-.029c-.293-.01-.587-.032-.88-.02-.383.016-.674.23-.729.551-.06.363-.041.618.375.875.033.02.062.044.115.08-.305.199-.435.51-.611.79a.575.575 0 0 1-.268.201c-.112.04-.136.092-.097.207Zm-12.557-4.56c.226.142.456.288.69.427.027.017.1.015.106 0 .02-.041.04-.115.019-.14-.086-.108-.063-.207 0-.308.345-.534.689-1.066 1.03-1.6.071-.111.146-.189.293-.159a.13.13 0 0 0 .11-.064.142.142 0 0 0-.052-.119 2.441 2.441 0 0 0-.263-.172c-.318-.192-.616-.415-.982-.525a.669.669 0 0 0-.752.214c-.2.226-.28.502-.142.8.037.081.082.158.132.252-.336.026-.581.211-.842.365-.12.072-.243.16-.396.105-.115-.04-.172 0-.197.123.177.115.352.234.534.34a.178.178 0 0 0 .156-.013c.276-.191.54-.398.827-.58.164-.106.417-.025.553.153-.138.207-.283.414-.415.631-.06.1-.13.148-.245.129-.103-.02-.156.027-.167.141h.003ZM2.978 21.058l-.061.015c-.088.272-.177.544-.26.817a.094.094 0 0 0 .044.082c.038.01.107.01.122-.013.097-.15.24-.11.357-.071.594.195 1.184.402 1.774.606.092.032.172.076.192.193.009.052.064.096.099.143.044-.038.086-.078.125-.12a.278.278 0 0 0 .028-.085c.128-.372.256-.743.382-1.116.088-.263.176-.526.254-.792.012-.04-.024-.096-.038-.144-.047.016-.11.02-.139.051-.08.09-.162.094-.271.058-.618-.211-1.236-.413-1.852-.62a.255.255 0 0 1-.19-.214c-.008-.048-.058-.088-.092-.133-.037.034-.092.061-.107.103-.077.212-.148.428-.214.647-.012.042.02.097.03.147.052-.018.116-.02.152-.055a.207.207 0 0 1 .243-.057c.586.2 1.176.394 1.764.588.266.087.268.085.182.344l-.027.087-.205.582-.897-.3-1.13-.391a.214.214 0 0 1-.163-.21c-.001-.05-.064-.098-.102-.142Zm53.67 18.93c.102-.257.205-.507.301-.761a.11.11 0 0 0-.032-.102c-.034-.018-.105-.023-.124 0-.138.16-.287.081-.432.027a81.952 81.952 0 0 1-1.55-.607c-.144-.057-.34-.089-.314-.327 0-.024-.067-.071-.108-.079-.025-.004-.075.041-.089.074-.115.283-.23.57-.344.855-.149.375-.297.75-.44 1.127a.18.18 0 0 0 .019.147.136.136 0 0 0 .13-.008c.103-.137.23-.092.345-.048.589.227 1.176.459 1.76.695.097.039.19.09.178.23-.004.048.066.103.102.155l.057-.016c.102-.257.204-.513.3-.771.012-.033-.012-.115-.027-.115a.197.197 0 0 0-.142.03.245.245 0 0 1-.28.052c-.627-.246-1.255-.492-1.88-.746a.142.142 0 0 1-.063-.12c.101-.272.213-.54.325-.818l.64.25 1.32.525c.1.039.188.096.18.216-.002.111.059.13.168.135Zm-.914-18.484c-.173-.356-.149-.49.132-.72.24-.199.49-.387.732-.584a.147.147 0 0 0 .04-.123 6.111 6.111 0 0 0-.177-.517c-.017-.043-.08-.066-.124-.098-.03.045-.057.09-.08.139-.042.093-.063.198-.116.281-.06.082-.13.155-.209.217-.263.23-.533.452-.6.814-.101-.022-.183-.046-.267-.057-.236-.031-.473-.053-.708-.087-.102-.015-.175-.115-.097-.18.154-.126.081-.23.017-.37-.149.052-.297.1-.44.158-.028.012-.05.072-.052.11a.603.603 0 0 0 .543.639c.236.029.474.036.712.05.226.014.35.11.388.327a.14.14 0 0 1-.066.114 9.292 9.292 0 0 1-.672.234c-.082.025-.177.04-.245-.062-.023-.034-.097-.033-.147-.049-.013.058-.05.12-.036.168.058.203.128.402.205.6.02.05.08.081.122.122l.106-.143c.041-.058.07-.14.126-.165a4.66 4.66 0 0 1 .48-.176c.474-.16.949-.313 1.42-.476.112-.039.188-.032.266.063.028.033.105.025.16.035a.394.394 0 0 0 .016-.147c-.057-.178-.12-.354-.182-.53a4.326 4.326 0 0 0-.09-.23l-.051-.009c-.034.052-.091.101-.097.156a.203.203 0 0 1-.146.19c-.287.105-.572.204-.863.306ZM16.442 55.1c.089-.086.097-.15.03-.239a.224.224 0 0 1-.031-.19c.115-.256.247-.507.378-.757a.129.129 0 0 1 .103-.057c.181.027.354.222.34.406-.029.392-.075.782-.114 1.199.163.084.353.186.548.277a.16.16 0 0 0 .135-.022c.072-.053.02-.1-.022-.148a.321.321 0 0 1-.093-.15 2.113 2.113 0 0 1-.021-.48c.04-.336.055-.664-.133-.936.209-.164.406-.32.603-.473.055-.046.112-.087.172-.125.136-.081.239-.028.224.126-.014.154.151.2.182.172.095-.09.171-.195.227-.313.025-.046.035-.143.006-.172-.205-.203-.533-.347-.83-.115-.183.143-.354.301-.534.447-.245.197-.336.2-.623.018.129-.243.257-.488.388-.732a.194.194 0 0 1 .227-.108c.035.005.097-.045.117-.085.011-.022-.028-.093-.06-.111a9.935 9.935 0 0 0-.618-.319c-.043-.02-.104 0-.156 0 .008.058-.004.126.025.163a.223.223 0 0 1 .017.267c-.1.198-.199.397-.3.595-.19.376-.383.753-.577 1.129-.055.105-.12.2-.268.172-.106-.02-.122.058-.135.152l.793.41ZM4.71 34.991l.041-.044c-.062-.274-.123-.549-.19-.821a.11.11 0 0 0-.086-.064c-.036.006-.094.045-.096.073-.013.215-.185.234-.333.27-.558.136-1.117.27-1.68.39-.133.029-.305.09-.394-.11-.01-.021-.093-.021-.136-.009-.02.005-.038.069-.031.1.057.265.119.53.179.79.157.012.148.008.198-.112.026-.062.081-.14.139-.157.294-.081.594-.144.886-.212.138.273.115.464-.103.622-.277.201-.57.38-.852.574a.176.176 0 0 0-.075.134c.032.18.074.357.125.533.012.042.064.073.097.11.037-.042.07-.087.101-.133.058-.096.094-.21.168-.29.101-.1.212-.188.33-.265.246-.178.482-.363.548-.654l.48.115c.143.031.287.052.43.092.061.018.14.065.156.115.013.042-.057.108-.086.165-.019.036-.057.083-.044.107.027.058.073.148.12.154.214.025.453-.075.455-.178.004-.278-.08-.607-.444-.69-.257-.057-.517-.096-.774-.143-.214-.04-.271-.11-.315-.327-.022-.11.033-.135.115-.154.21-.05.421-.101.631-.146.095-.02.182-.025.254.076.036.05.123.061.186.089Zm-1.326-8.602c.204.028.379.057.555.077.333.035.314.032.301.36-.011.305-.09.524-.427.569-.13.017-.105.128-.096.202.006.042.076.098.126.11.128.027.261.026.39.052.106.02.156.004.172-.115.07-.557.15-1.113.22-1.67.006-.045-.04-.097-.062-.146-.049.024-.1.046-.146.074-.046.028-.096.096-.148.102a1.313 1.313 0 0 1-.318-.012c-.575-.074-1.142-.155-1.714-.226a.237.237 0 0 1-.218-.152c-.027-.057-.095-.097-.144-.145l-.051.03c-.047.324-.097.648-.137.973a3.144 3.144 0 0 0-.014.41c.003.481.303.797.804.829.443.028.723-.212.816-.681.04-.208.06-.417.091-.641Zm52.061 6.497c.086-.022.183-.021.196-.054.075-.193.23-.154.373-.145.45.028.9.061 1.35.095.161.012.323.028.484.047.1.012.198.026.23.156.01.04.082.065.127.098.029-.041.08-.08.083-.122.03-.43.058-.86.065-1.29a.833.833 0 0 0-.127-.398c-.178-.308-.474-.38-.809-.366-.287.013-.547.186-.616.47a4.825 4.825 0 0 0-.1.716c-.01.119-.035.175-.166.163a12.965 12.965 0 0 0-.668-.044c-.085-.005-.099-.049-.093-.12.013-.147.024-.293.033-.44.01-.177.087-.28.257-.332l.114-.03c.133-.033.086-.147.091-.227 0-.028-.077-.082-.124-.09-.13-.02-.264-.012-.394-.03-.13-.02-.163.031-.172.145-.021.287-.05.574-.072.861l-.062.937Zm-51.43-2.828c-.195-.009-.371-.019-.547-.023-.477-.014-.954-.02-1.431-.038-.154-.006-.337.022-.39-.2-.006-.024-.08-.05-.115-.042a.128.128 0 0 0-.07.095c-.014.239-.023.477-.026.715 0 .037.04.104.068.106.043.004.119-.022.131-.057.048-.123.133-.152.251-.148.67.02 1.34.034 2.01.057a.223.223 0 0 1 .16.11c.037.074.065.155.154.114.044-.02.073-.111.075-.172.018-.457.027-.913.038-1.37a.325.325 0 0 0 0-.106c-.012-.033-.037-.08-.064-.085-.037-.007-.114.008-.119.029-.062.217-.238.178-.375.148a30.481 30.481 0 0 1-1.427-.348 1.381 1.381 0 0 1-.388-.194c-.08-.054-.094-.136-.016-.23a.383.383 0 0 0 .063-.233c0-.024-.1-.057-.157-.07a.684.684 0 0 0-.212 0 .142.142 0 0 0-.104.061c-.1.262-.1.598.235.794.42.246.891.345 1.357.45.295.067.594.115.9.172l-.001.465Zm54.125-3.996a.218.218 0 0 0 .008-.057c-.03-.256-.057-.512-.097-.768-.004-.029-.053-.078-.072-.073-.046.01-.118.04-.125.073-.025.123-.102.164-.213.18-.295.04-.589.087-.884.124-.366.047-.733.087-1.1.129a.193.193 0 0 1-.217-.102c-.02-.037-.08-.052-.123-.077-.024.048-.073.098-.069.143.03.328.07.654.109.98.021.176.045.352.076.525a.094.094 0 0 0 .185.017c.028-.163.149-.176.273-.18a6.703 6.703 0 0 1 1.703.158.863.863 0 0 1 .276.112c.08.052.096.123.021.216-.043.053-.037.15-.035.23 0 .014.091.033.141.035a.658.658 0 0 0 .227-.014.21.21 0 0 0 .127-.12c.072-.338-.1-.647-.435-.726a10.342 10.342 0 0 0-1.162-.2c-.331-.038-.669-.029-1.002-.049a.164.164 0 0 1-.123-.091 2.51 2.51 0 0 1-.03-.348c.062-.014.111-.03.16-.035.407-.054.813-.107 1.22-.156.246-.03.492-.057.74-.07a.263.263 0 0 1 .202.08c.063.093.124.102.219.063v.001ZM7.685 16.738c-.104.186-.192.35-.287.51-.07.12-.166.201-.321.172-.058-.011-.122-.004-.182-.011-.112-.015-.146.07-.162.144a.172.172 0 0 0 .073.136c.115.08.247.138.364.215.095.061.146.032.195-.057l.345-.603c.163-.284.33-.566.486-.854.025-.045.004-.115.004-.172-.054.007-.118-.003-.157.025-.104.07-.194.039-.285-.013-.56-.32-1.119-.643-1.679-.963-.103-.057-.157-.131-.135-.259.006-.037-.04-.097-.077-.121-.018-.012-.092.027-.111.06-.29.496-.574.995-.861 1.493a.105.105 0 0 0 .04.164c.145.091.294.177.43.28.115.088.192.07.23-.066a.214.214 0 0 0-.015-.155c-.044-.072-.115-.128-.165-.197-.075-.103-.114-.206-.027-.332.096-.143.165-.303.258-.446a.15.15 0 0 1 .142-.043c.257.14.508.29.758.442a.102.102 0 0 1 .035.093 1.58 1.58 0 0 1-.225.352c-.044.044-.166 0-.242.027a.297.297 0 0 0-.148.136c-.014.027.025.11.063.133.2.123.408.235.612.35.16-.153.157-.172.048-.334a.25.25 0 0 1-.04-.196c.062-.134.13-.263.207-.388l.83.478Zm37.119 37.595c.299-.173.556-.322.81-.474.022-.013.046-.07.037-.082a.248.248 0 0 0-.109-.088c-.09-.03-.193-.028-.275-.07-.363-.187-.722-.38-1.077-.58a.212.212 0 0 1-.072-.165c.009-.284.023-.568.051-.85.015-.142.067-.28.093-.423a.269.269 0 0 0-.023-.159c-.006-.015-.093-.007-.131.014-.169.09-.334.186-.497.287-.037.024-.086.094-.075.115.02.043.08.068.124.099.044.03.129.057.13.09.011.248.006.497.006.782-.23-.133-.428-.241-.617-.363-.07-.045-.137-.115-.048-.212.071-.08.033-.149-.052-.206-.235.134-.472.266-.705.402-.03.019-.07.084-.057.103a.252.252 0 0 0 .114.098c.087.035.187.043.27.086.322.167.638.344.96.517a.168.168 0 0 1 .097.183c-.022.365-.035.73-.062 1.094-.006.081-.063.157-.086.239a.794.794 0 0 0-.015.157c.053 0 .115.024.158.003a7.6 7.6 0 0 0 .51-.296c.034-.02.078-.09.068-.105-.023-.039-.077-.058-.117-.087-.04-.03-.134-.07-.136-.108-.011-.274-.006-.548-.006-.861.256.152.479.279.695.415.076.048.128.11.042.21-.032.042-.005.131-.005.236v-.002ZM9.532 45.485c-.168-.214-.334-.43-.505-.64a.127.127 0 0 0-.11-.04.183.183 0 0 0-.08.111c-.016.073.003.156-.021.225-.141.401-.291.803-.434 1.196-.345.036-.664.078-.988.098-.163.01-.329-.027-.493-.037a.897.897 0 0 0-.155.017c.007.05 0 .11.024.147.115.155.233.305.356.451.038.033.08.06.127.079l.08-.145c.026-.048.053-.154.094-.162.263-.057.53-.09.843-.137-.119.294-.213.543-.322.786-.037.083-.114.097-.206.048a.15.15 0 0 0-.137.027c-.02.019-.013.096.01.128.08.115.172.223.26.334.087.11.18.222.27.334h.058c.021-.072.045-.143.06-.216.015-.11.035-.219.061-.326.115-.333.242-.663.36-.995a.206.206 0 0 1 .203-.15c.167-.011.334-.04.5-.039.261 0 .524-.082.784.022.033.013.1-.021.13-.053.014-.017-.007-.085-.03-.115a9.087 9.087 0 0 0-.362-.466.388.388 0 0 0-.122-.067c-.026.048-.05.097-.078.144-.027.047-.057.147-.1.156-.234.05-.473.082-.71.12l-.03-.045c.093-.22.183-.442.283-.66.03-.063.085-.119.172-.054.098.071.153.01.208-.076Zm36.403 8.123c.23-.16.46-.32.685-.487.025-.019.043-.099.03-.111-.036-.032-.104-.07-.137-.058-.166.07-.236-.035-.297-.15a1.657 1.657 0 0 1-.094-.256c-.034-.106-.018-.196.09-.259a4.13 4.13 0 0 0 .275-.185c.329-.235.328-.234.622.044.11.103.18.204.057.348a.143.143 0 0 0 .01.131.118.118 0 0 0 .116.014c.23-.155.454-.317.677-.48a.114.114 0 0 0 .036-.101c-.016-.035-.07-.085-.096-.078-.225.057-.36-.1-.509-.213-.57-.433-1.134-.875-1.707-1.306a.268.268 0 0 0-.23-.039c-.217.105-.224.143-.163.376.021.078.037.158.058.236.172.658.355 1.315.52 1.976a.675.675 0 0 1-.01.371c-.038.109-.022.16.067.227ZM9.467 49.745c.208.222.406.437.61.647a.122.122 0 0 0 .109.03c.036-.02.083-.085.073-.11-.076-.19.03-.334.115-.481.364-.651.733-1.299 1.097-1.95a.212.212 0 0 0 .032-.139.3.3 0 0 0-.414-.191c-.689.297-1.377.598-2.066.886a.843.843 0 0 1-.426.057c-.115-.017-.166.003-.222.097.192.204.38.409.574.607.024.023.098.036.115.02.03-.032.063-.1.048-.132-.067-.14-.035-.246.094-.32.104-.062.212-.115.323-.16a.157.157 0 0 1 .138.026 9.6 9.6 0 0 1 .46.483.167.167 0 0 1 .035.144 2.249 2.249 0 0 1-.267.383.203.203 0 0 1-.194.03c-.117-.069-.17-.026-.234.073Zm-3.502-4.439c.163.259.323.514.488.766.018.026.079.052.1.04.036-.02.088-.072.084-.105-.022-.166.063-.278.16-.392.145-.169.284-.344.427-.511.356-.42.714-.837 1.069-1.258a.192.192 0 0 0 .057-.128c-.047-.211-.19-.295-.402-.248-.192.043-.383.09-.574.131-.523.111-1.046.23-1.572.328-.17.032-.348.072-.517-.033-.026-.016-.091.012-.126.037-.016.011-.014.072 0 .098.125.207.252.413.386.614.024.036.086.046.13.068.02-.046.063-.097.058-.138-.027-.146.03-.234.164-.28.124-.04.25-.078.377-.11a.11.11 0 0 1 .082.045c.131.198.261.397.383.6a.145.145 0 0 1-.005.134 4.61 4.61 0 0 1-.302.315.146.146 0 0 1-.23 0c-.079-.074-.149-.063-.237.027Zm35.39 9.974c-.031-.134.046-.187.152-.23.105-.043.193-.087.287-.13.372-.165.37-.164.613.166.09.12.15.23-.013.345-.025.017-.021.1-.005.142.008.021.082.04.111.028.25-.11.496-.225.742-.345.029-.014.07-.061.065-.08-.015-.042-.054-.11-.083-.11-.235.004-.345-.172-.473-.318-.475-.536-.946-1.075-1.418-1.614-.057-.065-.115-.129-.204-.07-.089.06-.257.052-.237.244.032.302.042.606.062.91l.084 1.275c.012.197.029.394-.08.577a.456.456 0 0 0-.027.154c.058.005.12.03.164.01.2-.084.396-.176.589-.275.048-.024.115-.084.11-.12-.007-.075-.07-.111-.158-.092a.166.166 0 0 1-.208-.133c-.028-.106-.049-.221-.073-.334ZM3.273 37.924c.101.028.219-.047.265.105.067.217.151.428.221.644a.132.132 0 0 1-.026.118c-.122.089-.25.17-.382.241a.172.172 0 0 1-.23-.05c-.033-.04-.106-.046-.16-.067-.011.058-.043.125-.028.176.072.236.154.47.24.7.014.037.077.085.105.078.04-.009.078-.057.104-.1.047-.072.074-.16.13-.223.072-.07.15-.133.235-.187.575-.412 1.149-.825 1.723-1.233.106-.075.128-.149.081-.268-.046-.12-.073-.209-.239-.213-.77-.018-1.541-.057-2.31-.083-.16-.006-.314-.012-.437-.14-.023-.024-.097-.017-.138 0-.018.008-.027.079-.016.115.068.221.14.442.219.66.017.047.073.08.111.12.032-.05.09-.098.09-.147a.186.186 0 0 1 .168-.2c.096-.023.19-.034.274-.046ZM9.688 14.32c-.075-.106-.133-.117-.23-.075a.287.287 0 0 1-.219 0 3.601 3.601 0 0 1-.388-.26l-1.22-.868c-.088-.063-.179-.134-.134-.26.044-.126-.027-.151-.128-.192l-.545.77c.123.111.12.105.23.045.053-.029.142-.058.182-.033.234.14.46.296.69.45-.09.128-.16.225-.227.326-.185.287-.283.592-.122.914.23.46.844.77 1.314.236.295-.33.535-.702.797-1.053Zm42.524 33.421c-.063-.09-.122-.128-.211-.066-.115.081-.225.038-.323-.034-.15-.11-.29-.234-.44-.345-.081-.06-.08-.108-.023-.187.11-.15.21-.306.302-.468.2-.365.057-.77-.295-1.034-.313-.236-.669-.23-.958.072-.311.326-.583.688-.872 1.039l.014.057c.068.01.156.051.2.023.106-.067.182-.035.262.027l1.492 1.167c.111.086.216.172.147.339-.011.028.033.089.067.115a.108.108 0 0 0 .099-.024c.181-.226.36-.456.539-.68ZM31.127 1.466c-.01-.028-.011-.04-.017-.047-.345-.35-.69-.699-1.04-1.043a.127.127 0 0 0-.124.008c-.333.325-.66.656-.99.983-.062.061-.057.104.003.162.324.32.643.645.971.961a.166.166 0 0 0 .161.003c.349-.341.69-.686 1.036-1.032v.005ZM12.286 7.513c.06.027.124.048.188.063.418.068.837.13 1.256.197.1.017.146-.01.16-.118.062-.436.123-.87.203-1.302.025-.135-.02-.159-.129-.173-.194-.028-.387-.065-.58-.096-.24-.039-.48-.08-.72-.108-.045-.005-.135.044-.14.079-.086.48-.16.964-.238 1.458Zm33.973.32 1.36-.22c.115-.018.092-.099.08-.176-.03-.2-.06-.398-.092-.598-.034-.22-.067-.44-.103-.66-.018-.104-.058-.171-.19-.15-.412.073-.827.132-1.24.2-.176.029-.196.067-.166.242.07.408.136.817.2 1.225.014.094.039.158.15.137Zm-5.294-2.411c-.48.186-.924.361-1.371.529-.088.032-.115.075-.082.156L40 7.375c.029.075.057.115.155.076.422-.167.847-.322 1.271-.48.1-.038.106-.103.07-.195-.105-.261-.203-.526-.305-.788l-.225-.566Zm-.363-1.946.463 1.228c.097.26.099.264.358.168.369-.135.733-.283 1.103-.419.11-.04.132-.094.09-.2a54.507 54.507 0 0 1-.463-1.216c-.045-.125-.102-.133-.215-.086-.241.102-.49.187-.735.282-.197.078-.391.16-.601.243Zm-3.54-1.166L36.19.968l-1.344.875c.287.44.55.856.825 1.263.017.026.114.031.15.01.157-.09.306-.192.459-.292.254-.165.509-.334.782-.514Zm8.716 5.953c-.498.074-.952.14-1.406.215a.166.166 0 0 0-.09.134c.054.395.122.787.183 1.181.043.273.04.273.31.24.025 0 .051 0 .076-.005.379-.057.758-.121 1.137-.179.084-.013.105-.045.091-.133-.075-.448-.139-.898-.214-1.346-.009-.045-.067-.081-.089-.107h.002Zm-21.481-5.11c.032-.04.065-.076.09-.114.234-.36.46-.724.702-1.078.074-.11.063-.162-.041-.23a55.778 55.778 0 0 1-1.115-.72c-.078-.052-.115-.035-.159.029-.253.389-.505.78-.76 1.167-.046.07-.027.108.036.147.386.248.771.497 1.156.747.023.015.049.03.09.053Zm-5.5 1.758a.433.433 0 0 0 .09-.1c.047-.106.084-.216.126-.324.115-.301.237-.6.35-.903.032-.083.045-.162-.075-.206a41.44 41.44 0 0 1-1.242-.472c-.108-.044-.142-.014-.177.08-.16.424-.322.846-.488 1.269-.031.08-.007.114.074.143.255.093.507.198.76.295.184.07.369.136.582.218Zm16.333.958c.026 0 .038 0 .045-.004.411-.263.823-.526 1.23-.796a.14.14 0 0 0 .025-.135c-.25-.398-.505-.79-.766-1.178a.14.14 0 0 0-.131-.031c-.39.247-.777.499-1.16.756a.156.156 0 0 0-.045.142c.265.42.536.834.802 1.244v.002Zm-9.396-1.336c-.03-.025-.057-.05-.087-.07L24.52 3.72c-.075-.05-.123-.054-.181.039-.24.38-.49.753-.738 1.127-.064.096-.02.144.057.194.366.235.73.47 1.094.71.09.057.143.057.206-.042.23-.367.473-.729.71-1.09.026-.034.04-.073.067-.125Zm28.943 12.985c-.373.042-.89.252-1.305.664a.864.864 0 0 0-.234.893c.094.339.287.619.497.89a.15.15 0 0 0 .133.018c.127-.047.251-.102.372-.163.063-.031.084-.072.052-.158-.05-.136-.146-.13-.254-.134-.355-.014-.58-.313-.484-.655.086-.302.349-.44.596-.584.015-.008.084.04.1.075.119.25.233.502.345.757.047.112.11.124.213.075.104-.05.13-.092.079-.199-.122-.254-.23-.516-.35-.77-.035-.077-.022-.124.048-.141.214-.058.428-.136.644-.144a.545.545 0 0 1 .565.605c-.018.13-.119.26-.208.368-.089.108-.024.183.024.257.015.024.106.018.154 0 .114-.044.23-.104.344-.154a.14.14 0 0 0 .088-.075.138.138 0 0 0 .001-.116c-.052-.173-.083-.356-.147-.525-.178-.455-.52-.817-1.273-.784Zm-40.77-7.746c.503.08.972.151 1.44.234.111.02.152-.022.172-.11.02-.089.024-.18.038-.27.055-.345.11-.69.168-1.034.017-.107-.004-.173-.133-.181-.146-.01-.29-.04-.435-.062-.294-.045-.589-.088-.882-.136-.097-.016-.127.032-.14.115l-.161 1.017c-.024.138-.043.274-.066.427Zm5.18-4.371a.46.46 0 0 0-.093.114c-.16.402-.314.808-.47 1.211-.043.109-.021.173.1.216.401.147.803.3 1.198.46.115.047.16.025.201-.084.148-.402.292-.804.46-1.2.066-.157 0-.194-.116-.236-.18-.065-.356-.137-.535-.204-.238-.09-.474-.176-.745-.277Zm33.132 7.544c-.13.014-.259.038-.385.073a2.47 2.47 0 0 0-1.148.835.904.904 0 0 0-.142.915c.104.279.296.495.507.69.23.21.184.28.492.042a1.06 1.06 0 0 1 .123-.088c.065-.04.127-.08.074-.166-.047-.077-.095-.165-.212-.115-.345.149-.73-.197-.674-.574.038-.251.206-.41.37-.574.132-.132.155-.127.262.027.144.207.294.41.433.62.067.103.128.097.22.033.091-.064.102-.128.033-.22-.162-.22-.313-.448-.477-.666-.062-.084-.057-.137.033-.178.189-.094.383-.176.581-.244.225-.065.421.02.56.21.14.19.173.375.042.578-.022.033-.04.068-.063.1-.076.107.016.173.068.238.016.02.105 0 .145-.023.107-.066.201-.154.31-.217.095-.054.097-.118.057-.201a4.218 4.218 0 0 0-.24-.49c-.222-.345-.502-.621-.969-.605ZM28.865 4.19c.385.384.736.738 1.091 1.085.02.02.111 0 .143-.032.187-.172.368-.358.549-.54.161-.162.32-.328.487-.498-.365-.365-.714-.72-1.07-1.066a.143.143 0 0 0-.134.016c-.134.122-.257.255-.388.38-.217.214-.439.426-.678.655ZM3.41 24.112l.008-.048c.407-.07.813-.144 1.221-.21.103-.016.187.015.2.149.005.036.076.066.116.098.027-.034.07-.064.08-.102.056-.23.107-.462.155-.695a.382.382 0 0 0-.021-.131.772.772 0 0 0-.151.033c-.1.043-.192.119-.295.142-.523.114-1.049.215-1.573.32-.25.05-.324.014-.439-.211-.078-.153-.022-.246.136-.296.057-.019.105-.115.137-.182.032-.067-.018-.122-.09-.14a3.456 3.456 0 0 0-.37-.08.161.161 0 0 0-.134.065c-.115.225-.178.466-.029.693.108.17.24.324.393.455.442.369.9.717 1.349 1.078.157.127.344.23.397.456.007.031.078.057.122.067.018.005.063-.034.07-.06.057-.22.106-.441.15-.664a.097.097 0 0 0-.165-.09c-.093.12-.203.091-.297.029-.33-.22-.648-.449-.97-.673v-.003ZM19.89 55.27l-.047-.028c-.016-.383-.033-.766-.046-1.148a1.27 1.27 0 0 1 .023-.135c.008-.093.053-.13.147-.132.04 0 .105-.049.108-.078a.15.15 0 0 0-.073-.12c-.208-.09-.42-.172-.632-.248a.475.475 0 0 0-.15-.003.986.986 0 0 0 .012.175c.017.072.07.139.074.21.039.57.073 1.142.104 1.714.012.238-.15.393-.387.387-.132-.003-.18-.065-.176-.198a.14.14 0 0 0-.06-.11c-.065-.026-.19-.054-.2-.034a4.252 4.252 0 0 0-.197.473c-.005.015.018.044.034.062.138.155.517.258.7.158.23-.12.447-.267.646-.436.43-.38.837-.788 1.263-1.176.093-.084.22-.13.33-.2a1.12 1.12 0 0 0 .133-.115c-.037-.04-.066-.097-.112-.115a7.51 7.51 0 0 0-.549-.213c-.036-.013-.114 0-.123.021a.156.156 0 0 0 .005.142.149.149 0 0 1 .045.174.148.148 0 0 1-.037.052c-.278.306-.557.613-.834.921Zm32.273-38.607c-.23-.282-.224-.407 0-.66.027-.03.079-.061.076-.089a.558.558 0 0 0-.06-.214c-.011-.02-.094-.023-.13-.006a5.658 5.658 0 0 0-.485.276.166.166 0 0 0-.044.157c.334.594.677 1.182 1.015 1.773.044.076.089.08.16.038.147-.09.298-.173.446-.257.068-.04.155-.058.084-.178-.057-.096-.092-.164-.23-.11-.257.103-.432.027-.553-.201-.045-.085-.039-.125.052-.177.562-.318 1.118-.646 1.678-.967.119-.068.241-.107.36.02.023.026.106.018.147-.003.02-.01.015-.09 0-.134a.628.628 0 0 0-.074-.131l-.37-.635-.054-.006c-.029.058-.09.125-.08.176.028.15-.04.23-.154.296l-1.095.635-.689.397Zm-29.655 38.18-.15.53c-.133.465-.264.931-.4 1.396-.042.146-.08.3-.29.287-.032 0-.08.068-.096.115-.006.019.045.078.08.088.256.077.513.15.773.216a.128.128 0 0 0 .114-.047c.016-.032.004-.115-.02-.125-.166-.089-.155-.22-.11-.367.024-.077.045-.154.066-.23.154-.548.307-1.097.464-1.644a.128.128 0 0 1 .071-.084c.102-.022.319.088.35.193.033.12.051.244.054.369.008.147.134.115.214.145.018.006.082-.07.098-.118.053-.152.092-.309.14-.463.032-.104.015-.172-.106-.201-.273-.072-.543-.154-.814-.23-.374-.106-.747-.212-1.123-.311a.13.13 0 0 0-.114.05c-.07.201-.128.403-.186.608a.094.094 0 0 0 .028.079c.105.092.225.069.298-.053.184-.31.315-.352.661-.205l-.002.002ZM56.864 29.22l.005.048c-.292.156-.584.315-.879.467-.09.046-.16.018-.201-.09-.014-.035-.082-.06-.129-.067-.017 0-.063.062-.063.096 0 .249.005.498.016.746 0 .035.041.092.07.095a.189.189 0 0 0 .12-.05c.093-.077.173-.173.27-.238.226-.143.46-.275.692-.401.173-.095.34-.216.525-.26.219-.05.454-.035.682-.034a.262.262 0 0 1 .256.154c.021.045.091.067.138.1.025-.048.07-.096.07-.145 0-.243-.01-.486-.027-.73 0-.042-.049-.083-.075-.124-.045.033-.115.057-.129.1a.23.23 0 0 1-.237.172c-.23.007-.458.011-.685.011a.325.325 0 0 1-.144-.037c-.236-.124-.478-.242-.703-.384-.242-.154-.544-.23-.698-.512-.013-.023-.085-.026-.126-.019a.094.094 0 0 0-.057.07c0 .23.008.456.021.684 0 .032.05.076.084.087a.11.11 0 0 0 .095-.049c.057-.16.172-.145.282-.092.28.125.554.263.829.4l-.002.002Zm-.74-5.528.017.064c-.26.211-.516.425-.782.631-.084.065-.145.015-.2-.062a.133.133 0 0 0-.121-.038.128.128 0 0 0-.049.115c.048.238.103.473.16.709.01.038.049.103.062.1a.258.258 0 0 0 .136-.073c.09-.104.157-.23.255-.325.202-.198.416-.383.631-.57.115-.102.23-.236.365-.286.235-.087.488-.123.736-.172a.206.206 0 0 1 .232.104c.025.04.09.057.136.083.018-.05.057-.106.05-.151a14.46 14.46 0 0 0-.172-.769c-.008-.032-.066-.08-.087-.075-.04.012-.101.058-.102.09-.008.229-.185.248-.345.292-.053.014-.107.03-.161.04-.217.035-.424.114-.654.026-.292-.112-.598-.183-.893-.287a1.704 1.704 0 0 1-.46-.22c-.09-.066-.146-.082-.245-.023.057.24.106.482.167.72.007.027.069.058.102.058.034 0 .093-.045.094-.072.005-.124.09-.15.176-.132.32.065.636.146.952.223ZM6.81 42.517c.142-.073.273-.149.412-.208.114-.048.141-.121.102-.23a4.384 4.384 0 0 0-.205-.535c-.21-.405-.538-.654-1.013-.643-.595.014-1.088.272-1.497.692-.287.298-.364.652-.188 1.03.112.232.244.453.394.662.136.196.15.187.366.07.088-.049.182-.088.266-.143.034-.022.076-.085.067-.111-.04-.108-.081-.214-.247-.175-.188.043-.362 0-.479-.177-.129-.194-.152-.395-.026-.597.196-.312.508-.482.827-.635.287-.14.589-.236.918-.161a.485.485 0 0 1 .282.788c-.138.174-.138.178.02.373ZM5.64 19.905c.16.076.308.154.46.212a.179.179 0 0 0 .163-.04c.107-.142.203-.29.287-.446.305-.574.172-1.13-.339-1.528a2.547 2.547 0 0 0-1.05-.475c-.478-.102-.886.073-1.109.508-.12.236-.19.498-.275.751-.038.115.004.2.129.242.099.037.195.081.287.133.115.057.183.037.23-.09.035-.097-.008-.149-.071-.208-.179-.168-.225-.363-.118-.59.097-.21.267-.291.487-.296.317-.006.606.1.887.23.267.124.516.278.689.526.128.186.168.383.047.597a.44.44 0 0 1-.469.233c-.178-.02-.202.097-.235.241Zm48.258 21.15c-.154-.08-.316-.17-.484-.243a.162.162 0 0 0-.14.048c-.096.11-.184.228-.262.35-.35.555-.292 1.123.155 1.556.312.298.7.503 1.122.592.336.077.674.044.93-.225.271-.287.402-.649.493-1.024.025-.1-.023-.15-.105-.188-.096-.045-.19-.093-.287-.14-.159-.081-.196-.074-.249.091a.23.23 0 0 0 .054.178c.122.151.223.295.136.506-.115.284-.278.39-.584.369-.363-.026-.678-.183-.984-.361-.212-.124-.402-.276-.523-.495a.561.561 0 0 1-.006-.566c.088-.159.235-.248.402-.217.198.037.287-.032.332-.232Zm-13.632 14.76c-.243.068-.242.068-.272.293-.023.172-.075.318-.256.393-.28.115-.507.08-.69-.164-.348-.466-.54-.992-.477-1.583.026-.25.18-.42.434-.485.209-.053.345.057.47.2.014.016.023.048.035.049.08.005.16 0 .239-.015.02-.006.04-.093.029-.133a2.442 2.442 0 0 0-.133-.385.168.168 0 0 0-.135-.08 3.25 3.25 0 0 0-.579.101c-.494.154-.804.505-.832 1.049-.023.459.114.879.344 1.267.187.317.443.555.845.554.422 0 .776-.198 1.123-.408a.115.115 0 0 0 .04-.102c-.055-.182-.12-.362-.184-.55ZM14.518 50.32c-.324-.344-.85-.474-1.29-.119a5.362 5.362 0 0 0-1.481 1.872c-.212.441-.094.84.272 1.153.066.057.121.129.211.02.078-.092.048-.143-.03-.211-.186-.163-.21-.363-.129-.592.13-.37.364-.672.598-.976.283-.367.561-.74.94-1.019.193-.14.403-.209.614-.043.148.118.223.055.295-.085Zm15.303 8.828c-.025.201-.018.23.067.23.337-.005.724-.115.88-.478.078-.19.13-.39.157-.594a5.32 5.32 0 0 0-.1-2.064c-.125-.51-.588-.788-1.1-.679-.04.208-.027.23.166.235a.44.44 0 0 1 .405.268c.176.355.188.747.203 1.126.017.455 0 .911-.052 1.364-.043.39-.178.517-.486.563-.045.008-.089.018-.14.029Zm4.85-1.637c.332.035.679-.256.67-.649-.01-.393-.27-.672-.638-.666-.366.005-.678.28-.681.65-.002.355.277.709.65.665ZM14.684 7.468c.05-.297.092-.562.14-.826.058-.307-.005-.379-.321-.366a.082.082 0 0 0-.027.013.131.131 0 0 0-.012.028c-.08.468-.158.938-.24 1.406-.023.132.077.142.155.154.354.058.71.115 1.066.16.356.046.362.045.412-.319a.262.262 0 0 0-.018-.057l-1.155-.193Zm22.563-4.857-1.337.871.73 1.129c.145.223.146.223.37.07a.056.056 0 0 1 .012-.008c.123-.057.114-.128.044-.23-.172-.25-.33-.508-.498-.76-.048-.072-.063-.115.03-.164.124-.067.237-.154.355-.23.172-.115.341-.225.524-.345l-.23-.333Zm8.046 4.95c-.34.058-.66.119-.985.161-.128.017-.172.065-.144.185a.69.69 0 0 1 .024.12c.005.091.051.125.139.11.099-.018.197-.04.297-.058.35-.053.7-.102 1.048-.163.04-.007.088-.083.095-.132a.724.724 0 0 0-.026-.21c-.058-.359-.119-.717-.172-1.077-.026-.176-.033-.188-.21-.154a.556.556 0 0 1-.104.016c-.137 0-.155.064-.132.186.063.335.112.669.169 1.017h.001Zm1.406.967c.335-.052.643-.106.953-.146.121-.016.184-.046.168-.187-.025-.21-.038-.243-.196-.221-.42.057-.838.129-1.257.191-.169.025-.185.047-.155.216.064.367.13.735.19 1.103.05.302.045.298.344.25.1-.015.131-.063.115-.154-.028-.158-.061-.316-.086-.475-.026-.184-.048-.369-.076-.577ZM20.666 5.629l.114-.318c.032-.083 0-.112-.078-.14-.285-.101-.565-.214-.848-.32-.101-.038-.146-.085-.095-.203.102-.235.186-.479.28-.718.087-.219.08-.24-.14-.31a.147.147 0 0 1-.029-.009c-.107-.073-.15-.015-.185.083-.069.19-.146.376-.219.564-.081.21-.164.422-.242.635-.038.103-.044.194.1.23.093.026.183.059.27.098l1.072.408Zm2.576-.83.804-1.238c.057-.09.018-.135-.057-.183-.328-.21-.653-.421-.976-.632-.255-.166-.252-.163-.414.092-.057.092-.038.147.047.199.102.063.205.129.306.195.19.123.377.248.57.374l-.047.08c-.165.255-.333.506-.492.763-.029.046-.047.144-.023.166.088.07.183.131.282.185ZM12.345 7.897c-.086-.035-.144.037-.147.186a.496.496 0 0 1-.017.09c-.022.1 0 .157.12.172.3.038.598.094.898.134.098.013.134.052.119.148-.042.269-.074.54-.124.807-.043.226-.046.233.177.256.025.001.05.005.075.01.093.021.128-.02.14-.11.017-.144.046-.287.068-.433.047-.31.096-.618.136-.929a.128.128 0 0 0-.076-.098c-.431-.078-.864-.15-1.369-.233Zm6.352-2.589c-.031-.031-.058-.08-.1-.095-.416-.166-.834-.326-1.252-.488-.082-.031-.147-.017-.176.08a1.104 1.104 0 0 1-.057.156c-.046.102-.013.152.092.19.287.105.574.225.861.329.086.03.1.066.07.144-.092.24-.179.48-.271.72-.104.267-.104.263.158.368.094.037.136.016.17-.078.095-.264.201-.526.302-.79l.203-.536Zm9.624-3.273c.246.236.487.473.734.702.086.079.1.13.004.215-.247.221-.483.454-.732.69.097.102.164.172.226.241.062.07.107.05.163-.006.308-.313.614-.631.931-.934.103-.099.084-.16-.003-.244-.256-.25-.51-.502-.762-.755-.288-.29-.295-.29-.561.092ZM39.205 5.29c.04.104.077.182.1.264.028.095.09.102.165.073.413-.157.825-.32 1.24-.476.105-.04.127-.096.086-.197-.142-.355-.28-.712-.421-1.068-.115-.287-.111-.28-.389-.183-.11.038-.114.097-.08.183l.306.804c.072.183.074.182-.11.253l-.897.347ZM25.942 4.227c.054-.082.095-.14.132-.2.106-.167.107-.171-.066-.282-.269-.177-.54-.351-.813-.528.017-.041.036-.082.057-.12l.432-.66c.136-.208.132-.205-.075-.345-.105-.071-.167-.047-.23.054-.115.189-.24.371-.36.557-.138.215-.274.431-.417.658l1.339.866h.001Zm9.481-.852c-.248-.382-.478-.738-.71-1.09-.176-.273-.175-.27-.437-.073-.066.05-.078.085-.029.16.176.264.342.536.517.803.05.076.057.115-.03.166a19.48 19.48 0 0 0-.78.516.14.14 0 0 0-.047.127c.052.094.111.185.176.271l1.34-.88Zm7.362 1.35c-.475.184-.936.359-1.393.541a.131.131 0 0 0-.05.115c.093.266.194.529.294.792l.237.611c.102-.037.185-.073.27-.097.105-.03.138-.068.09-.183-.115-.283-.216-.575-.327-.862-.036-.094-.03-.138.08-.175.276-.095.546-.208.818-.313.069-.026.142-.051.105-.148-.037-.096-.078-.178-.124-.28ZM31.68 3.635c-.027-.032-.058-.073-.09-.107-.207-.208-.412-.418-.624-.62-.088-.084-.083-.14.003-.22.181-.173.354-.348.528-.524.199-.201.195-.2-.015-.394-.069-.063-.115-.057-.179.006-.311.315-.623.632-.94.941-.08.078-.082.129 0 .209.266.256.524.52.786.78.27.27.27.27.516-.029a.215.215 0 0 0 .015-.041v-.001Zm-3.6-1.362a.318.318 0 0 0-.067.039c-.152.148-.305.295-.448.452a.14.14 0 0 0 .012.136c.14.152.293.293.437.44.061.064.108.058.165-.002.137-.141.276-.282.418-.418.06-.058.048-.098-.006-.15-.148-.145-.291-.294-.438-.44a.705.705 0 0 0-.073-.057ZM20.922 4.88a.492.492 0 0 0 .067-.094c.077-.186.154-.372.217-.562a.152.152 0 0 0-.066-.132c-.183-.08-.373-.147-.56-.217-.083-.031-.144-.025-.176.075-.043.129-.098.254-.147.38-.099.251-.1.254.148.355.163.067.33.125.517.195Zm21.383.84.208.542c.09.234.09.24.318.165.179-.058.352-.138.536-.211-.089-.23-.165-.445-.253-.652-.018-.042-.091-.1-.12-.09-.229.072-.453.16-.689.246ZM12.737 9.59c.018-.017.075-.044.083-.08.041-.197.07-.396.103-.594.016-.094-.018-.137-.118-.147a6.45 6.45 0 0 1-.537-.085c-.115-.022-.173.01-.19.124-.03.189-.066.377-.09.567a.118.118 0 0 0 .057.098c.219.042.438.075.694.117h-.002Zm4.989-3.868-.789-.298c-.097.245-.187.462-.265.685-.01.025.035.093.07.106.19.079.386.144.578.22.093.035.134.006.165-.085.072-.2.152-.394.243-.628h-.002Zm4.879-1.328c.134-.21.25-.405.378-.59.054-.078.035-.115-.03-.158-.172-.111-.349-.219-.517-.335-.073-.05-.12-.035-.162.031-.107.165-.208.333-.317.496-.043.064-.042.108.023.15.2.128.403.26.625.406Zm24.749 5.248c.179-.032.357-.073.538-.093.115-.012.132-.069.115-.162-.033-.2-.057-.402-.102-.598a.145.145 0 0 0-.119-.073c-.19.02-.38.058-.57.084-.108.015-.128.073-.11.172.036.178.075.356.093.537.011.105.052.14.155.13v.003Zm-7.817-5.765c-.28.112-.49.192-.697.284-.024.011-.039.092-.026.129.067.19.146.374.218.562.032.086.083.1.164.069.169-.068.338-.132.508-.193.092-.033.133-.078.089-.18-.079-.185-.15-.374-.223-.561-.015-.043-.026-.086-.033-.11Zm-13.872-.772c.223.146.419.28.621.402a.15.15 0 0 0 .143-.031c.115-.158.218-.325.325-.49.04-.062.046-.114-.033-.163-.175-.107-.344-.23-.52-.332a.143.143 0 0 0-.136.016c-.136.188-.261.386-.4.598Zm12.458.848c-.144-.225-.274-.435-.414-.636-.017-.025-.104-.028-.138-.008a6.88 6.88 0 0 0-.496.32c-.03.022-.061.095-.047.115.13.214.27.422.417.647l.678-.438Zm-22.908 2.43c-.039.245-.079.491-.115.738-.002.02.037.063.062.067.224.038.449.072.674.099a.115.115 0 0 0 .09-.067c.04-.188.066-.379.1-.568.021-.111-.029-.156-.132-.172-.213-.027-.427-.06-.678-.098ZM33.89 2.465c-.208.133-.406.253-.595.385a.159.159 0 0 0-.023.151c.104.178.216.35.338.517a.15.15 0 0 0 .143.032c.178-.104.35-.217.517-.335a.12.12 0 0 0 .032-.11c-.128-.211-.267-.42-.412-.64Zm-1.904.947c.16-.176.319-.345.466-.517a.16.16 0 0 0-.011-.153 6.564 6.564 0 0 0-.428-.429.15.15 0 0 0-.142-.017c-.18.153-.35.316-.53.483l.645.633ZM44.89 7.276c-.042-.265-.079-.513-.125-.759a.123.123 0 0 0-.102-.057c-.234.032-.466.074-.707.115.042.257.074.49.122.722a.154.154 0 0 0 .126.081c.216-.023.43-.062.686-.102Z"/><path d="M53.548 30.032c.01 13.023-10.59 23.592-23.601 23.58-13.01-.011-23.58-10.579-23.572-23.591.007-13.038 10.564-23.597 23.611-23.585 13.048.011 23.57 10.584 23.562 23.596ZM6.72 30.018c-.037 12.8 10.384 23.253 23.227 23.258 12.833.007 23.246-10.389 23.263-23.215.018-12.84-10.362-23.276-23.233-23.287C17.14 6.763 6.698 17.184 6.72 30.018Z" fill="currentColor"/><path d="M52.437 45.234c.22-.348.426-.677.64-1 .021-.033.12-.058.14-.04.173.153.363.296.488.483.25.376-.02.846-.471.848-.292.001-.546-.12-.797-.29Zm-.262-.167c-.247-.169-.46-.334-.533-.617a.54.54 0 0 1 .504-.685c.218-.001.432.052.624.155.076.036.096.076.048.152-.212.324-.42.65-.643.995Zm-3.269 4.385.898-.942c.22.204.407.41.48.694.109.417-.25.776-.684.678-.274-.061-.487-.227-.694-.43Zm.672-1.151-.89.94c-.209-.214-.396-.428-.415-.733-.02-.316.277-.59.596-.561.27.024.486.167.71.354Zm-21.013 8.674c-.233-.061-.446-.1-.644-.176-.158-.057-.172-.23-.183-.373-.024-.338.194-.562.527-.568.39-.006.388-.007.353.382-.024.228-.036.453-.053.735ZM15.778 51.7l-.578.901c-.143-.11-.282-.208-.411-.317a.36.36 0 0 1-.12-.355c.073-.45.465-.639.857-.402.08.047.156.106.252.172ZM3.082 26.571c-.012.075-.02.15-.036.223-.115.494-.559.468-.876.316-.173-.083-.21-.251-.214-.42 0-.133.012-.264.037-.393a.129.129 0 0 1 .104-.067c.186.017.372.045.557.069.065.009.13.019.196.023.234.014.234.012.232.249Zm54.966 5.789c-.353-.02-.689-.038-1.018-.061a.107.107 0 0 1-.067-.079c.019-.184.02-.377.08-.55.082-.237.353-.316.679-.233.24.062.344.197.358.492a3.865 3.865 0 0 1-.032.43ZM46.574 51.703l-.581.414-.292-1.04.042-.025.83.65Zm-36.231-2.748-.49-.514.99-.442.03.033-.53.923Zm-2.666-5.061-.7.804-.38-.596 1.058-.252.022.044Zm33.544 9.781.747.868-.64.295c-.034-.383-.068-.748-.107-1.163ZM3.797 37.952h1.077l.013.043-.869.611-.221-.654Zm4.36-23.888.899.64c-.145.222-.252.473-.574.477-.236.004-.543-.25-.584-.402-.077-.29.068-.503.26-.715Zm42.776 32.988c-.275-.216-.536-.422-.8-.624-.067-.052-.077-.104-.024-.166a2.1 2.1 0 0 1 .258-.275.434.434 0 0 1 .237-.081c.265-.012.615.275.631.532a.571.571 0 0 1-.082.287c-.066.113-.14.223-.22.327Z"/><path d="M29.966 52.589c-12.45-.024-22.545-10.096-22.555-22.564C7.4 17.624 17.498 7.485 29.937 7.47c12.44-.015 22.584 10.097 22.578 22.557-.006 12.411-10.034 22.527-22.549 22.562Zm21.787-22.56c-.01-12.035-9.724-21.793-21.786-21.794-12.062 0-21.79 9.742-21.794 21.788-.005 12.046 9.776 21.79 21.791 21.79 12.028.001 21.783-9.756 21.79-21.784Z" fill="currentColor"/><path d="m19.66 34.03-.703-.682c-.21.344-.517.516-.875.631-.456.141-.823.422-1.205.702-.679.497-1.025 1.166-1.206 1.96-.19.828-.135 1.66-.096 2.496.02.43.058.86.034 1.29-.019.344-.115.689-.176 1.029-.038.214-.078.428-.11.643-.047.31-.23.484-.536.497-.143.007-.353-.183-.352-.362 0-.271-.011-.559.071-.81a5.295 5.295 0 0 0 .244-2.169c-.072-.809-.07-1.623.009-2.432.061-.656.33-1.221.661-1.769.25-.41.52-.808.897-1.114.45-.368.906-.724 1.37-1.069.115-.086.138-.172.077-.282a1.767 1.767 0 0 0-.24-.361c-.437-.46-.554-1.017-.537-1.625a3.686 3.686 0 0 1 .517-1.8c.222-.375.562-.644.877-.935.24-.222.469-.456.69-.698a.832.832 0 0 0 .213-.601c-.013-.345-.028-.69-.044-1.065-.181.024-.332.053-.485.062-.232.02-.464.027-.697.023-.149-.005-.247.025-.312.17-.066.144-.192.281-.235.437a6.595 6.595 0 0 0-.144.803c-.03.2-.079.372-.3.447-.164.054-.28-.021-.402-.106-.11-.077-.075-.182-.066-.287.033-.387.246-.689.46-.988a1.2 1.2 0 0 0 .236-.631.189.189 0 0 0-.11-.208c-.487-.254-.834-.636-.99-1.165-.05-.169-.037-.36-.038-.54 0-.21.065-.418-.035-.626-.054-.111.028-.199.124-.242.183-.084.372-.152.558-.23.186-.078.37-.137.543-.227.243-.127.298-.299.203-.556-.037-.1-.076-.199-.108-.3-.058-.176-.012-.245.172-.27a.706.706 0 0 1 .09-.008c.292-.004.323.025.358.314.013.11.039.219.057.33a.51.51 0 0 0 .097.013c.627-.047 1.141.207 1.602.6.153.13.292.276.444.407.095.072.194.138.296.2.044-.252.098-.452.114-.656.012-.177.138-.137.236-.167.108-.034.13.044.16.114.084.19.052.377-.015.563a.587.587 0 0 0-.038.13c-.032.264-.03.27.218.348.248.077.417.255.57.453.039.04.081.077.127.11.03-.058.081-.109.09-.167.027-.185.044-.371.05-.558.004-.132.057-.172.177-.145l.12.021c.195.037.219.062.205.262-.015.227-.048.453-.057.68 0 .095.017.19.048.279a.264.264 0 0 0 .278.182.265.265 0 0 0 .112-.037c.196-.115.278-.3.318-.511.025-.134.04-.27.061-.402.029-.172.105-.248.278-.23.364.035.7-.068 1.039-.172.211-.066.431-.106.673-.163-.006-.058-.011-.132-.02-.204-.037-.278-.054-.554.067-.82a.722.722 0 0 1 .804-.402c.306.057.526.337.545.661.022.352-.121.649-.274.947-.023.046-.031.141-.005.165.498.425 1.426.338 1.734-.197.123-.214.184-.468.243-.711.106-.432.186-.87.281-1.304.09-.41.182-.818.276-1.227.087-.374.18-.746.269-1.12l.278-1.195.279-1.195.265-1.136.27-1.181c.096-.424.19-.848.287-1.272.051-.227.1-.454.16-.679.06-.224.09-.241.333-.23.04 0 .078.012.14.02-.042.15-.076.291-.12.429a3.631 3.631 0 0 0-.162 1.423.63.63 0 0 0 .314.532c.395.235.82.417 1.263.541.542.161 1.086.316 1.628.477 1.028.307 2.029.68 2.912 1.308.144.103.276.223.416.337a.642.642 0 0 1-.057.064c-.358.257-.236.233-.598.028-.495-.28-.976-.587-1.486-.84-.256-.129-.557-.17-.839-.24-.121-.032-.224.004-.266.136-.08.248-.188.492-.23.747-.052.323-.048.655-.074.983-.01.127.041.204.141.275.368.265.797.326 1.226.402.287.052.57.127.854.194.032.007.085.03.086.049.009.166.009.333 0 .5 0 .017-.107.05-.155.04-.268-.067-.543-.123-.8-.225-.449-.178-.888-.383-1.327-.585-.086-.04-.115 0-.162.047-.097.1-.208.187-.295.294-.068.083-.142.183-.156.283a23.04 23.04 0 0 0-.13 1.209.189.189 0 0 0 .075.133 3.626 3.626 0 0 0 1.683.699c.116.013.23.037.34.07a.186.186 0 0 1 .102.133c0 .114-.008.227-.024.34-.184-.036-.365-.053-.532-.11-.493-.162-.989-.322-1.468-.52a5.351 5.351 0 0 1-.871-.481c-.37-.242-.787-.31-1.206-.38-.564-.094-1.125-.186-1.614-.516-.213-.146-.32-.096-.368.155-.115.59-.217 1.184-.339 1.773-.132.643-.284 1.282-.421 1.924a89.08 89.08 0 0 0-.335 1.633c-.082.437-.147.877-.218 1.317a.953.953 0 0 0-.01.167c.003.172.052.22.22.253.313.065.583-.057.856-.182a8.589 8.589 0 0 1 1.625-.524c.408-.094.815-.194 1.223-.287.168-.037.34-.057.51-.085.753-.124 1.513-.178 2.27-.069a6.74 6.74 0 0 1 2.324.791 9.05 9.05 0 0 1 2.51 2.021c.264.31.528.623.786.94.138.172.292.22.507.16.215-.06.434-.1.655-.12.36-.037.606.15.784.444.2.335.333.705.393 1.09.154.926.637 1.639 1.36 2.215.459.367.908.753 1.247 1.245.264.384.309.804.223 1.248-.054.278-.14.556-.148.836a2.98 2.98 0 0 0 .1.886c.215.756.471 1.501.706 2.252.216.694.477 1.378.422 2.124a.993.993 0 0 1-.358.726.682.682 0 0 1-.298.125.24.24 0 0 1-.287-.173 1.473 1.473 0 0 1-.092-.41c-.01-.269.005-.539.018-.805a4.24 4.24 0 0 0-.442-2.084c-.146-.303-.302-.615-.366-.94-.07-.357-.057-.735-.046-1.103.017-.477.063-.952-.023-1.426a2.09 2.09 0 0 0-.523-1.057c-.308-.334-.648-.64-.957-.972a12.014 12.014 0 0 1-.7-.835 1.116 1.116 0 0 1-.23-.693c0-.284.012-.574-.04-.849-.074-.39-.255-.736-.637-.925-.277-.138-.773.016-.928.287a.291.291 0 0 0-.009.16c.043.419.044.837-.185 1.205a3.072 3.072 0 0 1-.435.52c-.236.241-.393.503-.318.854.053.25.218.427.397.594.21.196.42.392.62.597.376.385.446.855.37 1.367-.085.56-.14 1.125-.243 1.681-.04.217-.16.424-.27.62-.223.389-.479.76-.69 1.154-.098.204-.17.42-.212.643-.111.477-.191.962-.307 1.435-.11.445-.236.886-.378 1.321-.122.374-.562.498-.9.274-.237-.157-.296-.309-.171-.565.196-.402.41-.797.62-1.194a.465.465 0 0 1 .093-.097c.192-.185.312-.432.337-.698.064-.564.163-1.116.418-1.634.076-.154.087-.34.128-.511.097-.418.197-.835.29-1.253.111-.492.19-.986.066-1.488a.646.646 0 0 0-.107-.23c-.313-.407-.525-.869-.755-1.323-.118-.235-.295-.443-.459-.652-.24-.305-.49-.602-.738-.9-.177-.213-.382-.392-.655-.467a.255.255 0 0 0-.167.016c-.588.297-.794 1.03-.608 1.59.146.426.224.873.232 1.324a1.126 1.126 0 0 1-.47.965 10.698 10.698 0 0 0-2.774 3.122c-.33.565-.724 1.09-1.09 1.637a.314.314 0 0 1-.069.08c-.21.154-.263.383-.299.621-.028.185-.058.37-.102.551a.216.216 0 0 1-.114.12c-.208.094-.417.114-.632.003-.126-.066-.172-.153-.111-.282.172-.369.326-.75.536-1.099.422-.698.85-1.398 1.327-2.06.394-.546.86-1.038 1.298-1.556.386-.459.79-.906 1.149-1.388.27-.364.29-.804.234-1.25-.09-.722-.6-1.09-1.163-1.413-.466-.269-.955-.5-1.422-.768a2.435 2.435 0 0 1-.529-.42.582.582 0 0 0-.5-.19c-.127.01-.254.03-.38.028-.057 0-.15-.04-.156-.072-.011-.073-.005-.185.043-.226.137-.114.302-.2.447-.308.123-.09.236-.197.344-.287-.13-.364-.415-.407-.636-.338-.407.13-.81.277-1.206.436-.45.182-.885.394-1.392.366a.625.625 0 0 0-.356.104c-.526.358-1.102.617-1.68.862-.312.133-.425.365-.485.655-.103.49-.21.976-.293 1.472-.084.495-.153.98-.207 1.474-.081.734-.138 1.471-.216 2.206-.072.675-.14 1.351-.246 2.02-.069.432-.144.87-.352 1.264a.393.393 0 0 1-.11.141c-.044.03-.123.058-.16.039a.23.23 0 0 1-.115-.156 5.942 5.942 0 0 1 .01-.73c.037-.408.085-.815.143-1.222.058-.384.129-.767.193-1.148.063-.37.115-.74.19-1.107.085-.425.194-.846.278-1.272.122-.609.23-1.221.345-1.831.077-.407.064-.816.047-1.246-.071 0-.13-.004-.188 0-.303.029-.606.058-.907.093a.22.22 0 0 0-.131.085c-.238.311-.557.454-.94.472-.31.015-.62.029-.928.049a1.161 1.161 0 0 0-.792.364 5.749 5.749 0 0 1-1.206.96 9.026 9.026 0 0 0-.851.565c-.287.22-.425.548-.517.888-.193.724-.178 1.456-.07 2.189.101.685.215 1.369.323 2.053l.337 2.142c.011.086.014.172.01.258-.01.305-.23.445-.522.34-.397-.147-.55-.456-.565-.85-.024-.68-.032-1.359-.057-2.038-.02-.446-.033-.895-.105-1.334-.067-.411-.201-.812-.315-1.215-.182-.646-.345-1.294-.182-1.97.078-.332.259-.63.517-.853.295-.261.6-.514.762-.889a.128.128 0 0 0 .01-.047Zm8.21-9.401c0-.132.005-.264 0-.396a.348.348 0 0 0-.208-.325 1.283 1.283 0 0 0-.934-.047c-.407.13-.622.466-.712.86-.096.418-.14.846-.202 1.27a.514.514 0 0 0 .132.452c.137.14.292.262.46.363.242.139.455.072.588-.179.106-.199.263-.338.43-.477a.804.804 0 0 0 .221-.279 2.87 2.87 0 0 0 .226-1.242Zm-10.047-.094c-.019.14-.035.28-.057.417a.2.2 0 0 0 .115.234c.287.157.568.164.849 0 .338-.195.42-.398.234-.7-.344-.556-.654-1.162-1.42-1.258-.304-.038-.603-.118-.906-.172a.175.175 0 0 0-.148.063.97.97 0 0 0-.04.853c.163.39.456.64.833.812.121.058.178.035.237-.08.059-.114.132-.207.305-.17h-.002Zm5.528.788.057.005c0 .273-.005.547.003.82.003.07.026.139.065.197a.92.92 0 0 0 .525.362c.188.05.256.006.268-.188.011-.193.008-.405.012-.607.004-.176.031-.338.193-.454a.46.46 0 0 0 .13-.198c.074-.17.14-.346.196-.523.09-.297.165-.6.068-.91a.264.264 0 0 0-.128-.158c-.147-.052-.308-.062-.455-.115-.389-.133-.697.082-.77.475-.075.43-.11.862-.163 1.294h-.001Z" fill="currentColor"/></g><defs><clipPath id="da"><path fill="#fff" d="M0 0h60v60H0z"/></clipPath></defs></symbol><symbol fill="none" viewBox="0 0 40 40" id="menu-mobile" xmlns="http://www.w3.org/2000/svg"><g filter="url(#ea)"><rect width="40" height="39.5" rx="5" fill="currentColor"/><path fill="#000" d="M10 11h20v2.5H10zm0 7.5h15V21H10zm0 7.5h20v2.5H10z"/></g><defs><filter id="ea" x="-94" y="-94" width="228" height="227.5" filterUnits="userSpaceOnUse" color-interpolation-filters="sRGB"><feFlood flood-opacity="0" result="BackgroundImageFix"/><feGaussianBlur in="BackgroundImageFix" stdDeviation="47"/><feComposite in2="SourceAlpha" operator="in" result="effect1_backgroundBlur_498_4845"/><feBlend in="SourceGraphic" in2="effect1_backgroundBlur_498_4845" result="shape"/></filter></defs></symbol><symbol fill="none" viewBox="0 0 155 15" id="name" xmlns="http://www.w3.org/2000/svg"><path d="M5.387 14.596H.875v-.584a7.79 7.79 0 0 1 1.463-.482L7.48.272h.589L13.21 13.53c.271.053.535.114.793.18.27.068.521.168.752.302v.584H9.552v-.584c.271-.107.549-.2.834-.281.284-.08.562-.148.833-.201L9.837 9.848H4.98L3.64 13.53a7.491 7.491 0 0 1 1.748.483v.584Zm0-5.794H9.49L7.886 4.537 7.5 2.807h-.04l-.509 1.77-1.564 4.225ZM15.54 4.537h4.307v.523a6.963 6.963 0 0 1-1.218.483v5.512l-.225 1.871h.102l.793-1.509 4.348-6.88h2.744v.523a4.22 4.22 0 0 1-1.341.483v8.067c.257.067.5.14.731.221.23.067.434.155.61.262v.503h-4.308v-.503a4.772 4.772 0 0 1 1.219-.483V7.857l.203-1.59h-.101l-.773 1.51-4.308 6.819H15.54v-.503c.23-.107.454-.195.67-.262.218-.08.441-.154.671-.221V5.543c-.528-.08-.975-.241-1.34-.483v-.523Zm5.628-1.207c-.677 0-1.233-.067-1.666-.2-.434-.148-.78-.336-1.037-.564a1.932 1.932 0 0 1-.548-.785 3.135 3.135 0 0 1-.142-.925 2.15 2.15 0 0 1 .71-.382c.258-.08.53-.134.814-.161l.508.261v1.79c.19.081.413.141.67.182a6.9 6.9 0 0 0 .712.04c.135 0 .352-.014.65-.04.298-.027.542-.067.731-.121V.575l.508-.262c.285.027.549.087.793.18.257.095.467.215.63.363 0 .308-.054.617-.163.925a1.932 1.932 0 0 1-.548.785c-.244.228-.583.416-1.016.563-.42.134-.956.201-1.606.201Zm14.699 9.858c-.244.469-.644.865-1.2 1.186-.541.309-1.178.463-1.91.463-.799 0-1.497-.12-2.093-.362a4.034 4.034 0 0 1-1.463-1.066 4.835 4.835 0 0 1-.894-1.67 7.815 7.815 0 0 1-.284-2.173c0-1.703.42-3.004 1.26-3.902.84-.912 1.984-1.368 3.434-1.368.664 0 1.253.06 1.768.18.528.108.975.256 1.34.443a14.4 14.4 0 0 1-.223 1.49c-.108.549-.243 1.005-.406 1.367h-.549l-.853-2.394a.887.887 0 0 0-.325-.14c-.122-.04-.325-.061-.61-.061-.921 0-1.633.335-2.134 1.006-.501.657-.752 1.777-.752 3.36 0 .509.068 1.005.204 1.488.149.483.365.919.65 1.308a3.42 3.42 0 0 0 1.097.905c.447.228.962.342 1.545.342.474 0 .887-.067 1.24-.201.351-.134.65-.295.893-.483l.265.281Zm9.851 0a2.011 2.011 0 0 1-.508.643c-.23.202-.494.376-.792.523a4.396 4.396 0 0 1-.975.342 4.168 4.168 0 0 1-1.077.141c-.8 0-1.504-.12-2.114-.362a4.15 4.15 0 0 1-1.524-1.066 4.914 4.914 0 0 1-.935-1.67c-.203-.644-.304-1.368-.304-2.173 0-1.716.4-3.024 1.199-3.922.799-.899 1.93-1.348 3.393-1.348.474 0 .942.067 1.402.201.46.12.867.329 1.22.624.365.295.656.69.873 1.187.23.482.346 1.086.346 1.81 0 .228-.014.463-.04.704a5.388 5.388 0 0 1-.102.744h-6.34c0 .564.067 1.093.203 1.59.149.482.365.905.65 1.267.284.362.643.65 1.077.865.433.201.941.302 1.524.302.474 0 .955-.067 1.443-.201.487-.134.853-.309 1.097-.523l.285.322ZM42 5.18c-.772 0-1.362.262-1.768.785-.407.51-.65 1.414-.732 2.715h4.47c.014-.12.021-.234.021-.342.014-.12.02-.234.02-.342 0-.858-.162-1.542-.487-2.052-.325-.51-.833-.764-1.524-.764Zm10.037 9.416h-4.37v-.503c.19-.107.4-.195.63-.262.231-.08.468-.154.712-.221V5.543c-.244-.067-.48-.134-.711-.201a3.87 3.87 0 0 1-.63-.282v-.523h4.369v.523c-.312.188-.711.349-1.199.483v3.52h4.511v-3.52a2.907 2.907 0 0 1-1.219-.483v-.523h4.39v.523c-.366.228-.814.39-1.342.483v8.067c.244.054.481.114.711.181.23.067.44.168.63.302v.503H54.13v-.503a2.907 2.907 0 0 1 1.22-.483V9.949h-4.512v3.661c.271.054.501.12.69.201.19.08.36.175.509.282v.503Zm17.953 0h-5.141v-.584a9.1 9.1 0 0 1 1.666-.482V1.6c-.637-.094-1.192-.261-1.666-.503V.514h5.141v.583c-.23.121-.474.222-.732.302a7.52 7.52 0 0 1-.792.201v5.25h6.38V1.6a11.46 11.46 0 0 1-.812-.221 6.519 6.519 0 0 1-.711-.282V.514h5.14v.583a3.66 3.66 0 0 1-.812.322 19.36 19.36 0 0 1-.853.181v11.93c.311.053.61.12.894.2.284.081.542.175.772.282v.584h-5.141v-.584a7.465 7.465 0 0 1 1.524-.482V7.897h-6.381v5.633c.27.053.535.12.792.2a5.9 5.9 0 0 1 .732.282v.584Zm9.846-10.059h4.308v.523a4.98 4.98 0 0 1-.528.242c-.19.08-.42.16-.69.241v5.512l-.224 1.871h.101l.793-1.509 4.348-6.88h2.744v.523a4.22 4.22 0 0 1-1.341.483v8.067c.257.067.5.14.731.221.23.067.434.155.61.262v.503H86.38v-.503a4.81 4.81 0 0 1 1.219-.483V7.857l.203-1.59h-.101l-.773 1.51-4.308 6.819h-2.784v-.503c.23-.107.454-.195.67-.262.218-.08.441-.154.671-.221V5.543c-.528-.08-.975-.241-1.34-.483v-.523Zm18.254 0h3.923v.523a1.899 1.899 0 0 1-.549.282c-.217.08-.488.174-.813.282-.46.55-.948 1.106-1.463 1.67a47.007 47.007 0 0 1-1.626 1.69c.299.321.61.676.935 1.065.339.39.678.792 1.016 1.207.339.416.678.825 1.016 1.227.339.403.671.778.996 1.127l.955.483v.503h-2.377l-.65-.463a29.059 29.059 0 0 1-1.667-2.173 86.182 86.182 0 0 0-1.524-2.132h-.813v3.782c.271.067.515.14.732.221.23.067.426.155.589.262v.503h-4.491v-.503c.366-.215.813-.376 1.341-.483V5.543a4.712 4.712 0 0 1-1.341-.483v-.523h4.166v.523a3.545 3.545 0 0 1-.447.262 3.08 3.08 0 0 1-.549.221v3.762l.935-.201c.542-.617 1.056-1.194 1.544-1.73.488-.537.942-1.12 1.362-1.75-.23-.094-.447-.181-.65-.262a7.144 7.144 0 0 1-.55-.302v-.523Zm5.224 5.029c0-.844.108-1.589.325-2.232.23-.658.555-1.208.975-1.65.42-.456.921-.798 1.504-1.026a5.203 5.203 0 0 1 1.971-.362c.84 0 1.565.127 2.174.382.61.255 1.105.617 1.484 1.086a4.17 4.17 0 0 1 .853 1.65c.19.644.285 1.361.285 2.152 0 1.69-.434 2.991-1.301 3.903-.867.912-2.032 1.368-3.495 1.368-.813 0-1.517-.12-2.113-.362a4 4 0 0 1-1.484-1.066 4.83 4.83 0 0 1-.894-1.67 7.804 7.804 0 0 1-.284-2.173Zm1.95 0c0 .604.055 1.174.163 1.71.122.537.305 1.006.549 1.409.257.389.589.697.995.925.407.228.895.342 1.464.342.731 0 1.327-.355 1.788-1.066.474-.711.711-1.817.711-3.32 0-.616-.061-1.186-.183-1.71a4.12 4.12 0 0 0-.528-1.388 2.737 2.737 0 0 0-.935-.945c-.379-.228-.833-.342-1.361-.342-.8 0-1.443.355-1.931 1.066-.488.711-.732 1.817-.732 3.32Zm10.542 3.3c.189-.322.359-.751.508-1.288.149-.536.271-1.126.365-1.77.109-.644.19-1.314.244-2.012.055-.71.082-1.395.082-2.052a4.168 4.168 0 0 1-.752-.301 6.724 6.724 0 0 1-.61-.383v-.523h8.311v.523c-.433.242-.88.403-1.341.483v8.067c.285.067.535.14.752.221.217.08.413.168.589.262v.503h-4.369v-.503c.326-.228.725-.39 1.199-.483V5.422h-2.682a35.334 35.334 0 0 1-.122 2.274 27.162 27.162 0 0 1-.305 2.353 16.896 16.896 0 0 1-.528 2.173c-.217.67-.481 1.234-.793 1.69-.257.389-.535.657-.833.804-.298.161-.576.215-.833.161a4.377 4.377 0 0 1-.589-.885c-.176-.375-.278-.717-.305-1.026l.284-.503 1.728.403Zm17.272-.906c0 .295.007.55.02.765.014.214.027.442.041.684l1.402.201v.423a7.428 7.428 0 0 1-1.138.462 8.437 8.437 0 0 1-1.179.302h-.508a3.057 3.057 0 0 1-.243-1.006 27.447 27.447 0 0 1-.061-1.227h-.102a2.754 2.754 0 0 1-.325.825 2.55 2.55 0 0 1-.61.724 2.954 2.954 0 0 1-.874.523 3.121 3.121 0 0 1-1.158.201c-.826 0-1.504-.248-2.032-.744-.515-.496-.772-1.147-.772-1.951 0-.617.122-1.12.366-1.51.257-.402.63-.717 1.117-.945.488-.228 1.091-.389 1.809-.483a27.713 27.713 0 0 1 2.499-.241 10.14 10.14 0 0 0 .041-1.549c-.014-.47-.088-.865-.224-1.187-.122-.335-.311-.59-.569-.764-.243-.188-.569-.282-.975-.282-.19 0-.406.013-.65.04a2.149 2.149 0 0 0-.691.161l-.955 2.414h-.529a16.836 16.836 0 0 1-.365-1.247 8.37 8.37 0 0 1-.183-1.267 6.948 6.948 0 0 1 1.707-.725 7.987 7.987 0 0 1 2.113-.261c.691 0 1.24.1 1.646.302.42.187.738.435.955.744.217.308.359.65.427 1.026.068.375.102.75.102 1.126 0 .805-.021 1.583-.061 2.334a56.216 56.216 0 0 0-.041 2.132Zm-3.922 1.63c.339 0 .637-.067.894-.201s.474-.295.65-.483a3.11 3.11 0 0 0 .427-.563 2.94 2.94 0 0 0 .224-.503V9.727c-.786 0-1.43.04-1.931.121-.501.08-.894.208-1.178.382a1.39 1.39 0 0 0-.59.664c-.108.255-.162.55-.162.885 0 .577.149 1.026.447 1.348.298.309.704.463 1.219.463Zm14.913-.402a1.997 1.997 0 0 1-.508.643c-.23.202-.494.376-.792.523a4.405 4.405 0 0 1-.976.342 4.16 4.16 0 0 1-1.077.141c-.799 0-1.504-.12-2.113-.362a4.143 4.143 0 0 1-1.524-1.066 4.908 4.908 0 0 1-.935-1.67c-.203-.644-.305-1.368-.305-2.173 0-1.716.4-3.024 1.199-3.922.799-.899 1.931-1.348 3.394-1.348.474 0 .941.067 1.402.201.461.12.867.329 1.219.624.366.295.657.69.874 1.187.23.482.345 1.086.345 1.81 0 .228-.013.463-.04.704a5.502 5.502 0 0 1-.102.744h-6.34c0 .564.068 1.093.203 1.59.149.482.366.905.651 1.267.284.362.643.65 1.077.865.433.201.941.302 1.524.302a5.42 5.42 0 0 0 1.442-.201c.488-.134.854-.309 1.098-.523l.284.322ZM140.35 5.18c-.772 0-1.361.262-1.767.785-.407.51-.651 1.414-.732 2.715h4.471c.013-.12.02-.234.02-.342.013-.12.02-.234.02-.342 0-.858-.162-1.542-.487-2.052-.326-.51-.834-.764-1.525-.764Zm14.651 6.479c0 .536-.122.999-.366 1.388a2.865 2.865 0 0 1-.996.925 4.822 4.822 0 0 1-1.422.543 8.775 8.775 0 0 1-1.707.161c-.434 0-.779-.007-1.037-.02a8.794 8.794 0 0 1-1.097-.06h-2.357v-.503a5.7 5.7 0 0 1 1.341-.483V5.543a3.956 3.956 0 0 1-1.341-.483v-.523h2.662c.23-.013.447-.027.65-.04.203-.013.406-.02.61-.02.203-.014.426-.02.67-.02 1.192 0 2.12.18 2.784.543.664.349.996.966.996 1.85 0 .323-.068.61-.203.866a2.304 2.304 0 0 1-.529.664 3.42 3.42 0 0 1-.731.482 3.913 3.913 0 0 1-.793.262c.38.027.739.1 1.077.221.352.12.657.289.915.503.271.201.481.456.63.765.162.295.244.643.244 1.046Zm-5.812 2.072c.189.04.426.06.711.06h.732c.799 0 1.395-.168 1.788-.503.393-.349.589-.838.589-1.468 0-.658-.237-1.147-.711-1.469-.474-.335-1.084-.503-1.829-.503h-1.28v3.883Zm0-4.486 2.255-.202c.244-.12.488-.342.732-.663.257-.336.386-.772.386-1.308 0-.657-.203-1.106-.61-1.348-.393-.255-.975-.382-1.747-.382-.149 0-.319.007-.508.02-.19 0-.359.02-.508.06v3.823Z" fill="currentColor"/></symbol><symbol fill="none" viewBox="0 0 32 32" id="ok" xmlns="http://www.w3.org/2000/svg"><path d="M23.773 16.986c-.373-.76-1.426-1.4-2.826-.32-1.907 1.52-4.947 1.52-4.947 1.52s-3.04 0-4.947-1.52c-1.4-1.08-2.453-.44-2.826.32-.667 1.334.08 1.987 1.773 3.067 1.453.933 3.44 1.28 4.72 1.413l-1.067 1.067c-1.52 1.507-2.986 2.96-3.986 3.973-.6.614-.6 1.587 0 2.16l.186.214c.6.6 1.587.6 2.187 0L16 24.907c1.533 1.506 2.987 2.96 4 3.973.6.6 1.573.6 2.187 0l.173-.213c.613-.574.613-1.547 0-2.16l-3.973-3.974-1.054-1.08c1.267-.12 3.227-.48 4.667-1.4 1.693-1.08 2.44-1.733 1.773-3.067ZM16 6.093a3.332 3.332 0 0 1 3.333 3.32c0 1.84-1.493 3.32-3.333 3.32a3.323 3.323 0 0 1-3.333-3.32A3.332 3.332 0 0 1 16 6.093Zm0 10.067a6.737 6.737 0 0 0 6.747-6.747 6.747 6.747 0 1 0-13.494 0A6.737 6.737 0 0 0 16 16.16Z" fill="currentColor"/></symbol><symbol fill="none" viewBox="0 0 64 64" id="pauseS" xmlns="http://www.w3.org/2000/svg"><path d="M2.667 32C2.667 15.8 15.8 2.667 32 2.667S61.333 15.8 61.333 32 48.2 61.334 32 61.334 2.667 48.2 2.667 32ZM32 6.667a25.333 25.333 0 1 0 0 50.666 25.333 25.333 0 0 0 0-50.666Z" fill="#fff"/><rect x="24" y="20" width="5.333" height="22.667" rx="1" fill="#fff"/><rect x="34.667" y="20" width="5.333" height="22.667" rx="1" fill="#fff"/></symbol><symbol fill="none" viewBox="0 0 21 20" id="platform" xmlns="http://www.w3.org/2000/svg"><path d="M19.25 0H0v18.26L19.25 0ZM1.75 20H21V1.74L1.75 20Z" fill="currentColor"/></symbol><symbol fill="none" viewBox="0 0 14 16" id="play" xmlns="http://www.w3.org/2000/svg"><path d="M13 7.134a1 1 0 0 1 0 1.732L1.75 15.361a1 1 0 0 1-1.5-.866V1.505a1 1 0 0 1 1.5-.866L13 7.134Z" fill="#fff"/></symbol><symbol fill="none" viewBox="0 0 64 64" id="playS" xmlns="http://www.w3.org/2000/svg"><path d="M25.333 41.557V22.442a1.334 1.334 0 0 1 2.054-1.12l14.869 9.555a1.333 1.333 0 0 1 0 2.245l-14.87 9.558a1.334 1.334 0 0 1-2.053-1.12v-.003Z" fill="#fff"/><path d="M2.667 32C2.667 15.8 15.8 2.667 32 2.667S61.333 15.8 61.333 32 48.2 61.334 32 61.334 2.667 48.2 2.667 32ZM32 6.667a25.333 25.333 0 1 0 0 50.666 25.333 25.333 0 0 0 0-50.666Z" fill="#fff"/></symbol><symbol fill="none" viewBox="0 0 155 11" id="post" xmlns="http://www.w3.org/2000/svg"><path d="M5.115 1.33H1.814v7.08H.875V.492h4.24v.837Zm2.553 2.216h-1.64c-.022.317-.045.66-.067 1.03-.023.361-.057.727-.102 1.096-.045.362-.105.713-.18 1.052a4.322 4.322 0 0 1-.295.882 1.825 1.825 0 0 1-.43.622.86.86 0 0 1-.598.227c-.144 0-.268-.008-.374-.023a1.033 1.033 0 0 1-.282-.08l.135-.757c.09.03.189.045.294.045a.547.547 0 0 0 .407-.192c.121-.128.226-.37.317-.724.09-.362.166-.86.226-1.493.06-.633.102-1.459.124-2.476h3.37v5.654h-.905V3.546Zm2.554-.373a3.26 3.26 0 0 1 .995-.384 5.667 5.667 0 0 1 1.198-.125c.392 0 .705.053.939.158.24.106.422.246.542.419.128.166.211.35.25.554.044.204.067.407.067.61 0 .453-.011.894-.034 1.324-.023.43-.034.837-.034 1.221 0 .28.011.543.034.792.023.249.064.479.124.69h-.667L13.4 7.64h-.057a1.922 1.922 0 0 1-.26.317 1.744 1.744 0 0 1-.361.271 2.393 2.393 0 0 1-1.142.271 2 2 0 0 1-.679-.112 1.632 1.632 0 0 1-.53-.317 1.646 1.646 0 0 1-.363-.509 1.7 1.7 0 0 1-.124-.667c0-.332.068-.607.204-.826.135-.226.324-.403.565-.531.248-.136.542-.23.882-.283.346-.06.727-.09 1.141-.09h.306c.105 0 .21.007.316.022a6.2 6.2 0 0 0 .034-.61c0-.415-.083-.706-.249-.871-.165-.166-.467-.25-.904-.25a2.78 2.78 0 0 0-.418.035 3.572 3.572 0 0 0-.453.079c-.15.03-.297.072-.44.124a2.01 2.01 0 0 0-.362.159l-.283-.679Zm1.606 4.535c.21 0 .399-.026.565-.079.166-.06.309-.132.43-.215.12-.09.218-.188.293-.294a1.2 1.2 0 0 0 .181-.305v-.939a4.602 4.602 0 0 0-.328-.011 5.21 5.21 0 0 0-1.006.034 1.977 1.977 0 0 0-.588.147 1.013 1.013 0 0 0-.407.294.712.712 0 0 0-.147.463c0 .264.095.483.283.656.188.166.43.25.724.25Zm4.093-4.942c.264-.015.539-.034.825-.057.294-.022.656-.034 1.086-.034.746 0 1.28.117 1.605.351.324.226.486.573.486 1.04 0 .264-.079.525-.237.78-.151.25-.404.434-.758.555v.045c.445.083.758.238.939.464.18.226.27.528.27.905 0 .588-.21 1.014-.632 1.278-.422.264-1.055.396-1.9.396-.316 0-.61-.012-.881-.034a26.788 26.788 0 0 1-.803-.057V2.766Zm.905 4.886a8.497 8.497 0 0 0 .915.045c.505 0 .878-.072 1.12-.215.248-.143.372-.388.372-.735a.794.794 0 0 0-.316-.656c-.204-.173-.57-.26-1.097-.26h-.994v1.82Zm1.107-2.511a1.213 1.213 0 0 0 .735-.249.974.974 0 0 0 .249-.283.617.617 0 0 0 .102-.339c0-.301-.09-.509-.272-.622-.18-.12-.497-.18-.95-.18a11.53 11.53 0 0 0-.971.033v1.64h1.107Zm3.539-1.968a3.25 3.25 0 0 1 .995-.384 5.667 5.667 0 0 1 1.198-.125c.392 0 .705.053.939.158.241.106.422.246.542.419.128.166.212.35.25.554.044.204.067.407.067.61 0 .453-.011.894-.034 1.324-.023.43-.034.837-.034 1.221 0 .28.011.543.034.792.023.249.064.479.124.69h-.667l-.237-.792h-.056a1.923 1.923 0 0 1-.26.317 1.74 1.74 0 0 1-.362.271 2.393 2.393 0 0 1-1.142.271 2.01 2.01 0 0 1-.678-.112 1.632 1.632 0 0 1-.532-.317 1.645 1.645 0 0 1-.362-.509 1.699 1.699 0 0 1-.124-.667c0-.332.068-.607.204-.826.135-.226.324-.403.565-.531a2.69 2.69 0 0 1 .882-.283c.346-.06.727-.09 1.142-.09h.305c.105 0 .21.007.316.022.023-.226.034-.43.034-.61 0-.415-.083-.706-.249-.871-.165-.166-.467-.25-.904-.25a2.78 2.78 0 0 0-.418.035 3.57 3.57 0 0 0-.453.079c-.15.03-.297.072-.44.124a2.01 2.01 0 0 0-.362.159l-.283-.679Zm1.606 4.535c.21 0 .399-.026.565-.079.166-.06.309-.132.43-.215.12-.09.218-.188.293-.294.083-.105.144-.207.181-.305v-.939a4.601 4.601 0 0 0-.328-.011 5.21 5.21 0 0 0-1.006.034 1.979 1.979 0 0 0-.588.147 1.013 1.013 0 0 0-.407.294.712.712 0 0 0-.147.463c0 .264.095.483.283.656.188.166.43.25.724.25ZM30.276.572c.286-.068.595-.113.927-.136.331-.022.66-.034.983-.034.347 0 .697.034 1.052.102.361.068.69.192.983.373.294.181.532.43.712.747.189.316.283.72.283 1.21 0 .482-.087.89-.26 1.221a2.342 2.342 0 0 1-.69.814 2.849 2.849 0 0 1-.983.442c-.37.09-.75.135-1.142.135h-.464l-.27-.022a1.945 1.945 0 0 1-.193-.023v3.008h-.938V.572Zm1.933.645c-.196 0-.385.003-.566.01-.18.008-.324.027-.43.057v3.28a.699.699 0 0 0 .182.034c.083 0 .17.004.26.011h.44c.257 0 .51-.022.758-.067a2.08 2.08 0 0 0 .69-.272c.203-.128.365-.309.486-.543.128-.233.192-.531.192-.893 0-.31-.06-.566-.18-.77a1.282 1.282 0 0 0-.464-.497 1.827 1.827 0 0 0-.645-.271 3.375 3.375 0 0 0-.723-.08Zm8.009 6.74a2.549 2.549 0 0 1-.86.43c-.338.105-.7.158-1.084.158-.43 0-.803-.068-1.12-.203a2.063 2.063 0 0 1-.78-.6 2.654 2.654 0 0 1-.452-.939 4.676 4.676 0 0 1-.147-1.221c0-.965.215-1.7.645-2.205.43-.506 1.043-.758 1.842-.758.257 0 .513.03.77.09.255.053.485.159.689.317.203.158.369.385.497.679.128.286.192.667.192 1.142 0 .249-.022.524-.067.825h-3.63c0 .332.034.626.102.883.068.256.174.475.317.656.143.173.328.309.554.407.233.09.516.135.848.135.256 0 .512-.045.768-.135.257-.09.449-.196.577-.317l.34.656Zm-1.944-4.546c-.445 0-.803.116-1.074.35-.264.234-.422.633-.475 1.199h2.803c0-.573-.109-.973-.327-1.199-.219-.234-.528-.35-.927-.35Zm7.292 4.625a2.39 2.39 0 0 1-.802.373c-.31.09-.634.136-.973.136-.437 0-.806-.068-1.107-.203a2.009 2.009 0 0 1-.747-.6 2.743 2.743 0 0 1-.418-.939 5.584 5.584 0 0 1-.124-1.221c0-.958.21-1.689.633-2.194.422-.513 1.029-.77 1.82-.77.362 0 .667.031.916.091.256.053.486.132.69.238l-.26.78a2.297 2.297 0 0 0-.577-.226 2.459 2.459 0 0 0-.679-.09c-1.07 0-1.605.723-1.605 2.171 0 .287.026.562.08.826.06.256.154.486.282.69.135.196.309.354.52.474.218.121.486.181.802.181.272 0 .513-.041.724-.124.219-.083.396-.177.531-.283l.294.69Zm4.649-4.49h-2.499V8.41h-.904V2.755h4.307v5.654h-.904V3.546Zm4.309 2.873.316 1.086h.057l.249-1.097 1.096-3.653h.916l-1.673 5.078c-.128.369-.257.727-.385 1.074-.12.347-.256.656-.407.927a2.25 2.25 0 0 1-.508.645.962.962 0 0 1-.656.249c-.271 0-.494-.038-.667-.113l.158-.78a.786.786 0 0 0 .283.056c.21 0 .414-.113.61-.34.196-.218.358-.599.486-1.142l-2.272-5.654h1.04l1.357 3.664Zm4.124-2.658c.249-.362.524-.614.825-.758.302-.15.679-.226 1.131-.226.693 0 1.225.226 1.594.679.377.452.565 1.12.565 2.002 0 1.017-.218 1.787-.655 2.307-.43.52-1.033.78-1.81.78-.828 0-1.45-.286-1.865-.86-.414-.572-.621-1.473-.621-2.702 0-.649.03-1.203.09-1.663a5.6 5.6 0 0 1 .283-1.165 2.51 2.51 0 0 1 .452-.758c.18-.188.38-.335.6-.44a2.57 2.57 0 0 1 .734-.238c.264-.045.546-.083.848-.113a9.15 9.15 0 0 0 .915-.125c.227-.052.407-.143.543-.271l.102.814a1.116 1.116 0 0 1-.249.17c-.09.045-.2.083-.328.113s-.282.057-.463.08a9.536 9.536 0 0 1-.61.056 5.184 5.184 0 0 0-.86.124 1.346 1.346 0 0 0-.633.328c-.173.158-.313.388-.418.69-.098.294-.166.686-.204 1.176h.034Zm.102 1.832c0 .287.03.562.09.826a2.4 2.4 0 0 0 .272.701c.128.196.29.35.486.464.196.113.426.17.69.17.52 0 .904-.185 1.153-.555.256-.377.384-.93.384-1.662 0-.287-.026-.55-.08-.792a1.852 1.852 0 0 0-.248-.622 1.109 1.109 0 0 0-.43-.407 1.244 1.244 0 0 0-.621-.147c-.588-.008-1.018.166-1.29.52-.27.347-.406.848-.406 1.504Zm8.414-2.047h-1.64c-.022.317-.044.66-.067 1.03-.023.361-.056.727-.102 1.096-.045.362-.105.713-.18 1.052a4.317 4.317 0 0 1-.294.882 1.826 1.826 0 0 1-.43.622.86.86 0 0 1-.6.227c-.142 0-.267-.008-.372-.023a1.033 1.033 0 0 1-.283-.08l.136-.757c.09.03.188.045.294.045a.55.55 0 0 0 .407-.192c.12-.128.226-.37.316-.724.09-.362.166-.86.226-1.493.06-.633.102-1.459.125-2.476h3.369v5.654h-.905V3.546Zm6.172 1.516.034-.701h-.034l-.463.723-2.544 3.325h-.52V2.755h.904v3.449l-.034.667h.046l.44-.7 2.544-3.416h.531v5.654h-.904V5.062Zm4.069.803h-.52v2.544h-.905V2.755h.905V5.31l.486-.159 1.809-2.397h.983l-1.752 2.273-.475.373.588.452 1.888 2.556h-1.12l-1.887-2.544Zm7.501-.803.034-.701h-.034l-.463.723-2.544 3.325h-.52V2.755h.904v3.449l-.034.667h.046l.44-.7 2.544-3.416h.532v5.654h-.905V5.062ZM95.72 8.081a2.031 2.031 0 0 1-.86.362 5.764 5.764 0 0 1-1.107.102c-.475 0-.92-.08-1.334-.237a2.98 2.98 0 0 1-1.086-.747c-.309-.332-.554-.754-.734-1.266-.181-.52-.272-1.135-.272-1.844 0-.739.098-1.365.294-1.877.204-.52.467-.943.791-1.267A3.068 3.068 0 0 1 92.52.583c.407-.15.822-.226 1.244-.226.452 0 .822.026 1.108.08.286.044.531.108.735.191l-.226.826c-.362-.173-.878-.26-1.55-.26a2.59 2.59 0 0 0-.915.17 2.15 2.15 0 0 0-.814.554c-.234.256-.422.592-.565 1.006-.143.415-.215.924-.215 1.527 0 .543.068 1.018.203 1.425.136.407.32.746.554 1.018.242.271.52.475.837.61a2.69 2.69 0 0 0 1.051.204c.34 0 .633-.034.882-.102a2.4 2.4 0 0 0 .645-.26l.226.735Zm1.213-4.908c.286-.173.618-.302.994-.384a5.668 5.668 0 0 1 1.199-.125c.392 0 .705.053.938.158.241.106.422.246.543.419.128.166.211.35.249.554.045.204.067.407.067.61 0 .453-.011.894-.033 1.324-.023.43-.034.837-.034 1.221 0 .28.011.543.034.792.022.249.064.479.124.69h-.667l-.238-.792h-.056a1.928 1.928 0 0 1-.26.317 1.744 1.744 0 0 1-.362.271 2.393 2.393 0 0 1-1.142.271 2 2 0 0 1-.678-.112 1.632 1.632 0 0 1-.531-.317 1.643 1.643 0 0 1-.362-.509 1.699 1.699 0 0 1-.124-.667c0-.332.067-.607.203-.826.136-.226.324-.403.565-.531.249-.136.543-.23.882-.283.347-.06.727-.09 1.142-.09h.305c.106 0 .211.007.317.022.022-.226.034-.43.034-.61 0-.415-.083-.706-.25-.871-.165-.166-.466-.25-.904-.25-.128 0-.267.012-.418.035a3.57 3.57 0 0 0-.452.079c-.15.03-.298.072-.44.124a2.008 2.008 0 0 0-.363.159l-.282-.679Zm1.605 4.535c.211 0 .4-.026.565-.079.166-.06.31-.132.43-.215.12-.09.218-.188.294-.294a1.21 1.21 0 0 0 .181-.305v-.939a4.616 4.616 0 0 0-.328-.011 5.21 5.21 0 0 0-1.006.034 1.978 1.978 0 0 0-.588.147 1.014 1.014 0 0 0-.407.294.712.712 0 0 0-.147.463c0 .264.094.483.282.656.189.166.43.25.724.25Zm5.575-2.194-1.9-2.76h1.108l1.074 1.561.317.645.328-.645 1.096-1.56h1.018l-1.911 2.714 2.024 2.94h-1.074l-1.199-1.719-.339-.678-.35.678-1.221 1.72h-1.006l2.035-2.896Zm4.246-2.341a3.25 3.25 0 0 1 .995-.384 5.674 5.674 0 0 1 1.199-.125c.392 0 .704.053.938.158.241.106.422.246.543.419.128.166.211.35.248.554.046.204.068.407.068.61 0 .453-.011.894-.034 1.324-.022.43-.034.837-.034 1.221 0 .28.012.543.034.792.023.249.064.479.125.69h-.667l-.238-.792h-.056a1.959 1.959 0 0 1-.26.317 1.751 1.751 0 0 1-.362.271 2.389 2.389 0 0 1-1.142.271 2 2 0 0 1-.678-.112 1.633 1.633 0 0 1-.532-.317 1.648 1.648 0 0 1-.361-.509 1.697 1.697 0 0 1-.125-.667c0-.332.068-.607.204-.826a1.42 1.42 0 0 1 .565-.531 2.7 2.7 0 0 1 .882-.283 6.68 6.68 0 0 1 1.142-.09h.305c.105 0 .211.007.316.022.023-.226.034-.43.034-.61 0-.415-.083-.706-.248-.871-.166-.166-.468-.25-.905-.25-.128 0-.267.012-.418.035a3.565 3.565 0 0 0-.452.079 3 3 0 0 0-.441.124 2.016 2.016 0 0 0-.362.159l-.283-.679Zm1.606 4.535c.211 0 .399-.026.565-.079.166-.06.309-.132.43-.215.12-.09.218-.188.294-.294a1.2 1.2 0 0 0 .18-.305v-.939a4.568 4.568 0 0 0-.327-.011 5.222 5.222 0 0 0-1.007.034 1.973 1.973 0 0 0-.587.147 1.009 1.009 0 0 0-.407.294.712.712 0 0 0-.147.463c0 .264.094.483.282.656.189.166.43.25.724.25Zm8.803 3.19a5.7 5.7 0 0 1-.882-1.2 7.66 7.66 0 0 1-.588-1.323 9.148 9.148 0 0 1-.418-2.714c0-.415.034-.852.102-1.312.068-.46.177-.92.328-1.38a7.93 7.93 0 0 1 .588-1.368c.248-.445.55-.86.904-1.244l.543.396a6.794 6.794 0 0 0-.758 1.199 7.848 7.848 0 0 0-.475 1.244c-.12.422-.207.844-.26 1.266a9.748 9.748 0 0 0 .012 2.386c.06.423.15.849.271 1.279.128.422.29.837.486 1.244.204.407.445.776.724 1.108l-.577.419Zm6.074-2.488h-.938V4.96l-1.165.249-1.967 3.2h-1.108l1.764-2.816.69-.486a3.117 3.117 0 0 1-.758-.271 2.444 2.444 0 0 1-.599-.475 2.324 2.324 0 0 1-.396-.679 2.657 2.657 0 0 1-.135-.882c0-.46.075-.84.226-1.142a1.94 1.94 0 0 1 .633-.736c.271-.188.584-.32.938-.395a5.103 5.103 0 0 1 1.142-.125c.256 0 .528.012.814.034.294.023.58.068.859.136v7.837Zm-1.718-7.193a3.12 3.12 0 0 0-.712.079 1.68 1.68 0 0 0-.611.248 1.319 1.319 0 0 0-.418.487c-.106.203-.159.46-.159.769 0 .286.049.531.147.735.106.204.245.373.419.509.173.128.373.222.599.283.234.06.482.09.746.09h.769V1.284a2.302 2.302 0 0 0-.328-.045 3.578 3.578 0 0 0-.452-.022Zm4.978 4.648h-.52v2.544h-.905V2.755h.905V5.31l.486-.159 1.809-2.397h.983l-1.752 2.273-.475.373.588.452 1.888 2.556h-1.119l-1.888-2.544Zm5.636.554.317 1.086h.056l.249-1.097 1.096-3.653h.916l-1.673 5.078c-.128.369-.256.727-.384 1.074a6.013 6.013 0 0 1-.407.927 2.279 2.279 0 0 1-.509.645.963.963 0 0 1-.656.249c-.271 0-.494-.038-.667-.113l.158-.78a.79.79 0 0 0 .283.056c.211 0 .415-.113.61-.34.196-.218.358-.599.487-1.142l-2.273-5.654h1.04l1.357 3.664Zm7.211-2.873h-1.775V8.41h-.905V3.546h-1.775v-.791h4.455v.791Zm4.425 1.516.034-.701h-.034l-.464.723-2.543 3.325h-.52V2.755h.904v3.449l-.034.667h.045l.441-.7 2.544-3.416h.531v5.654h-.904V5.062Zm5.459 1.006-.87.136-1.492 2.205h-1.097l1.357-1.934.452-.418a1.868 1.868 0 0 1-1.006-.475c-.272-.256-.407-.603-.407-1.04 0-.34.056-.63.169-.871a1.63 1.63 0 0 1 .509-.6 2.09 2.09 0 0 1 .78-.339 4.2 4.2 0 0 1 1.017-.113c.279 0 .539.019.78.056.242.038.479.08.713.125v5.61h-.905V6.067Zm0-2.544a1.389 1.389 0 0 0-.328-.08 1.74 1.74 0 0 0-.316-.033c-.482 0-.852.086-1.108.26-.249.173-.373.448-.373.825 0 .34.132.603.396.792.271.18.625.271 1.062.271h.317c.083-.007.2-.015.35-.022V3.524Zm2.28-3.167c.346.362.64.761.881 1.199.242.43.434.874.577 1.334a8 8 0 0 1 .328 1.38c.068.46.102.901.102 1.323a8.982 8.982 0 0 1-.43 2.703 7.72 7.72 0 0 1-.599 1.357c-.241.445-.539.86-.893 1.245l-.543-.396a6.856 6.856 0 0 0 1.232-2.454 7.5 7.5 0 0 0 .249-1.256c.053-.415.079-.814.079-1.199 0-.362-.03-.754-.09-1.176a8.964 8.964 0 0 0-.283-1.278 7.699 7.699 0 0 0-.475-1.255 5.251 5.251 0 0 0-.712-1.109l.577-.418Z" fill="currentColor"/></symbol><symbol fill="none" viewBox="0 0 32 32" id="rutube" xmlns="http://www.w3.org/2000/svg"><path d="M11.278 20.764v.52c0 1.9-.006 3.801.006 5.702 0 .307-.075.416-.392.413-1.605-.016-3.211-.007-4.817-.007-.11 0-.22-.011-.36-.017V4.604c.082-.008.154-.02.224-.02 3.436 0 6.872-.04 10.307.021 2.062.037 4.017.586 5.696 1.883 2.209 1.704 3.069 4.042 2.86 6.806-.201 2.695-1.5 4.723-3.781 6.155l5.265 7.939c-.15.014-.251.033-.352.033-1.918 0-3.835 0-5.752.007-.245 0-.378-.085-.508-.288-1.286-2.015-2.587-4.021-3.87-6.038-.163-.254-.335-.354-.634-.346-1.157.018-2.315.008-3.473.008h-.42Zm.075-5.137c1.586 0 3.143.047 4.69-.025.584-.027 1.202-.243 1.727-.524 1.957-1.042 2.026-3.696.156-4.89a3.68 3.68 0 0 0-1.9-.608c-1.492-.035-2.985-.028-4.477-.035a1.414 1.414 0 0 0-.196.03v6.052Z" fill="currentColor"/></symbol><symbol fill="none" viewBox="0 0 28 28" id="search" xmlns="http://www.w3.org/2000/svg"><path d="m25.34 23.7-4.326-4.294A10.507 10.507 0 0 0 19.83 5.014a10.489 10.489 0 0 0-14.424.395 10.506 10.506 0 0 0 6.56 17.893c2.675.22 5.332-.594 7.426-2.274l4.29 4.294a1.165 1.165 0 0 0 1.657 0 1.167 1.167 0 0 0 0-1.622Zm-12.488-2.672a8.157 8.157 0 0 1-7.54-5.043A8.174 8.174 0 0 1 7.08 7.084a8.16 8.16 0 0 1 13.933 5.776 8.17 8.17 0 0 1-2.39 5.775 8.158 8.158 0 0 1-5.772 2.393Z" fill="currentColor"/></symbol><symbol fill="none" viewBox="0 0 24 24" id="share" xmlns="http://www.w3.org/2000/svg"><path d="m21 12-7-7v4C7 10 4 15 3 20c2.5-3.5 6-5.1 11-5.1V19l7-7Z" fill="currentColor"/></symbol><symbol fill="none" viewBox="0 0 15 21" id="skrep" xmlns="http://www.w3.org/2000/svg"><path fill-rule="evenodd" clip-rule="evenodd" d="M8.239 2.088a3.566 3.566 0 0 1 6.176 3.566L8.58 15.76a2.593 2.593 0 0 1-4.492-2.593l4.62-8.001a.648.648 0 1 1 1.122.648l-4.619 8.001a1.297 1.297 0 0 0 2.246 1.297l5.835-10.107a2.27 2.27 0 0 0-3.93-2.269l-6.97 12.072a3.242 3.242 0 0 0 5.615 3.241l5.754-9.966a.648.648 0 1 1 1.122.649L9.13 18.698a4.538 4.538 0 0 1-7.86-4.539L8.238 2.088Z" fill="#000"/></symbol><symbol fill="none" viewBox="0 0 32 32" id="telegram" xmlns="http://www.w3.org/2000/svg"><path d="m27.553 4.956-23.64 9.116c-1.614.648-1.604 1.548-.296 1.95l6.07 1.892 14.042-8.86c.664-.404 1.27-.186.772.256L13.123 19.578h-.002l.002.002-.418 6.256c.613 0 .884-.282 1.228-.614l2.948-2.866 6.132 4.53c1.13.622 1.942.302 2.224-1.048l4.025-18.97c.412-1.652-.63-2.4-1.71-1.912Z" fill="currentColor"/></symbol><symbol fill="none" viewBox="0 0 32 32" id="vk" xmlns="http://www.w3.org/2000/svg"><path fill-rule="evenodd" clip-rule="evenodd" d="M30.294 8.25c.222-.705 0-1.218-.985-1.218h-3.273c-.825 0-1.207.45-1.43.93 0 0-1.683 4.1-4.034 6.757-.763.77-1.112 1.025-1.525 1.025-.223 0-.509-.256-.509-.96V8.217c0-.833-.254-1.217-.953-1.217h-5.148c-.508 0-.826.384-.826.769 0 .8 1.176.993 1.303 3.235v4.871c0 1.057-.188 1.25-.604 1.25-1.112 0-3.813-4.132-5.433-8.84C6.564 7.352 6.243 7 5.418 7H2.111C1.159 7 1 7.448 1 7.929c0 .865 1.112 5.22 5.179 10.985 2.7 3.938 6.545 6.054 10.008 6.054 2.097 0 2.351-.48 2.351-1.281v-2.979c0-.96.19-1.12.858-1.12.476 0 1.335.255 3.273 2.145C24.892 23.975 25.274 25 26.513 25h3.273c.953 0 1.398-.48 1.143-1.41-.285-.928-1.366-2.273-2.764-3.874-.762-.897-1.906-1.89-2.256-2.37-.476-.641-.349-.897 0-1.473-.031 0 3.972-5.702 4.385-7.625" fill="currentColor"/></symbol></svg>