<svg width="155" height="15" viewBox="0 0 155 15" fill="none" xmlns="http://www.w3.org/2000/svg">
<path d="M5.38652 14.5957H0.875244V14.0123C1.36295 13.7978 1.85065 13.6368 2.33836 13.5295L7.47958 0.272461H8.06889L13.2101 13.5295C13.4811 13.5832 13.7452 13.6435 14.0026 13.7106C14.2736 13.7776 14.5242 13.8782 14.7545 14.0123V14.5957H9.55233V14.0123C9.82328 13.905 10.101 13.8112 10.3855 13.7307C10.67 13.6502 10.9477 13.5832 11.2187 13.5295L9.83683 9.84813H4.9801L3.63891 13.5295C4.2079 13.61 4.79043 13.7709 5.38652 14.0123V14.5957ZM5.38652 8.80205H9.49137L7.88601 4.53726L7.49991 2.8072H7.45926L6.95124 4.57749L5.38652 8.80205Z" fill="currentColor"/>
<path d="M15.5393 4.53726H19.8473V5.0603C19.6983 5.14076 19.5222 5.22123 19.319 5.3017C19.1293 5.38217 18.899 5.46263 18.6281 5.5431V11.0551L18.4045 12.926H18.5061L19.2987 11.4173L23.6474 4.53726H26.3907V5.0603C25.9572 5.3017 25.5101 5.46263 25.0495 5.5431V13.61C25.3069 13.6771 25.5508 13.7508 25.7811 13.8313C26.0114 13.8983 26.2146 13.9855 26.3907 14.0928V14.5957H22.0826V14.0928C22.462 13.8782 22.8684 13.7173 23.3019 13.61V7.85655L23.5051 6.26731H23.4035L22.6313 7.77608L18.3232 14.5957H15.5393V14.0928C15.7696 13.9855 15.9931 13.8983 16.2099 13.8313C16.4266 13.7508 16.6501 13.6771 16.8804 13.61V5.5431C16.3521 5.46263 15.905 5.3017 15.5393 5.0603V4.53726ZM21.1682 3.33024C20.4908 3.33024 19.9354 3.26318 19.5019 3.12907C19.0683 2.98154 18.7229 2.79378 18.4655 2.56579C18.2081 2.3378 18.0252 2.07628 17.9168 1.78123C17.822 1.47277 17.7746 1.16431 17.7746 0.855852C17.9913 0.681505 18.2284 0.554098 18.4858 0.47363C18.7432 0.393162 19.0142 0.339517 19.2987 0.312694L19.8067 0.574215V2.36462C19.9963 2.44509 20.2199 2.50544 20.4773 2.54568C20.7347 2.5725 20.9718 2.58591 21.1885 2.58591C21.324 2.58591 21.5407 2.5725 21.8388 2.54568C22.1368 2.51885 22.3807 2.47862 22.5703 2.42497V0.574215L23.0784 0.312694C23.3629 0.339517 23.627 0.399868 23.8709 0.493747C24.1283 0.587626 24.3383 0.708328 24.5008 0.855852C24.5008 1.16431 24.4467 1.47277 24.3383 1.78123C24.2299 2.07628 24.047 2.3378 23.7896 2.56579C23.5458 2.79378 23.2071 2.98154 22.7736 3.12907C22.3536 3.26318 21.8185 3.33024 21.1682 3.33024Z" fill="currentColor"/>
<path d="M35.8665 13.1875C35.6226 13.6569 35.223 14.0526 34.6676 14.3744C34.1257 14.6829 33.4889 14.8371 32.7574 14.8371C31.9581 14.8371 31.2604 14.7164 30.6643 14.475C30.0818 14.2202 29.5941 13.8648 29.2012 13.4088C28.8083 12.9394 28.5103 12.3829 28.3071 11.7391C28.1174 11.082 28.0226 10.3578 28.0226 9.56649C28.0226 7.86326 28.4425 6.56236 29.2825 5.6638C30.1224 4.75184 31.2672 4.29585 32.7167 4.29585C33.3806 4.29585 33.9699 4.3562 34.4847 4.4769C35.013 4.58419 35.4601 4.73172 35.8259 4.91948C35.7852 5.36205 35.7107 5.85827 35.6023 6.40813C35.4939 6.95799 35.3585 7.41398 35.1959 7.77608H34.6472L33.7938 5.38217C33.6989 5.31511 33.5905 5.26817 33.4686 5.24135C33.3467 5.20111 33.1435 5.181 32.859 5.181C31.9378 5.181 31.2265 5.51628 30.7253 6.18685C30.224 6.844 29.9734 7.96384 29.9734 9.54638C29.9734 10.056 30.0411 10.5522 30.1766 11.035C30.3256 11.5178 30.5424 11.9537 30.8269 12.3426C31.1249 12.7182 31.4907 13.0199 31.9242 13.2479C32.3713 13.4759 32.8861 13.5899 33.4686 13.5899C33.9428 13.5899 34.356 13.5228 34.7082 13.3887C35.0604 13.2546 35.3585 13.0937 35.6023 12.9059L35.8665 13.1875Z" fill="currentColor"/>
<path d="M45.7185 13.1875C45.6102 13.4155 45.4408 13.6301 45.2105 13.8313C44.9802 14.0325 44.716 14.2068 44.418 14.3543C44.12 14.5019 43.7948 14.6158 43.4426 14.6963C43.0904 14.7902 42.7314 14.8371 42.3656 14.8371C41.5663 14.8371 40.8618 14.7164 40.2522 14.475C39.6426 14.2202 39.1345 13.8648 38.7281 13.4088C38.3217 12.9394 38.0101 12.3829 37.7933 11.7391C37.5901 11.0954 37.4885 10.3712 37.4885 9.56649C37.4885 7.84985 37.8882 6.54224 38.6875 5.64369C39.4868 4.74513 40.618 4.29585 42.0811 4.29585C42.5552 4.29585 43.0226 4.36291 43.4832 4.49702C43.9438 4.61772 44.3503 4.8256 44.7025 5.12065C45.0683 5.41569 45.3595 5.81133 45.5763 6.30755C45.8066 6.79035 45.9218 7.39386 45.9218 8.11807C45.9218 8.34607 45.9082 8.58076 45.8811 8.82217C45.8676 9.05016 45.8337 9.29827 45.7795 9.56649H39.4393C39.4393 10.1298 39.5071 10.6595 39.6426 11.1557C39.7916 11.6385 40.0083 12.061 40.2928 12.4231C40.5773 12.7852 40.9363 13.0736 41.3698 13.2881C41.8034 13.4893 42.3114 13.5899 42.8939 13.5899C43.3681 13.5899 43.849 13.5228 44.3367 13.3887C44.8244 13.2546 45.1902 13.0803 45.4341 12.8657L45.7185 13.1875ZM41.9998 5.181C41.2276 5.181 40.6383 5.44252 40.2319 5.96556C39.8254 6.47519 39.5816 7.38045 39.5003 8.68135H43.9709C43.9845 8.56065 43.9913 8.44665 43.9913 8.33936C44.0048 8.21866 44.0116 8.10466 44.0116 7.99737C44.0116 7.13905 43.849 6.45507 43.5239 5.94544C43.1987 5.43581 42.6907 5.181 41.9998 5.181Z" fill="currentColor"/>
<path d="M52.037 14.5957H47.6679V14.0928C47.8576 13.9855 48.0676 13.8983 48.2979 13.8313C48.5282 13.7508 48.7653 13.6771 49.0091 13.61V5.5431C48.7653 5.47605 48.5282 5.40899 48.2979 5.34193C48.0676 5.26147 47.8576 5.16759 47.6679 5.0603V4.53726H52.037V5.0603C51.7254 5.24805 51.3257 5.40899 50.838 5.5431V9.06357H55.3493V5.5431C54.8751 5.46263 54.4687 5.3017 54.13 5.0603V4.53726H58.5194V5.0603C58.1536 5.28829 57.7065 5.44922 57.1782 5.5431V13.61C57.422 13.6636 57.6591 13.724 57.8894 13.7911C58.1197 13.8581 58.3297 13.9587 58.5194 14.0928V14.5957H54.13V14.0928C54.4687 13.8514 54.8751 13.6905 55.3493 13.61V9.94872H50.838V13.61C51.109 13.6636 51.3393 13.7307 51.5289 13.8112C51.7186 13.8916 51.8879 13.9855 52.037 14.0928V14.5957Z" fill="currentColor"/>
<path d="M69.99 14.5957H64.8487V14.0123C65.3906 13.7978 65.9461 13.6368 66.5151 13.5295V1.60018C65.8783 1.5063 65.3229 1.33866 64.8487 1.09726V0.513864H69.99V1.09726C69.7597 1.21796 69.5158 1.31854 69.2584 1.39901C69.001 1.47948 68.7368 1.54653 68.4659 1.60018V6.8507H74.8467V1.60018C74.5622 1.53312 74.2913 1.45936 74.0339 1.37889C73.79 1.29843 73.5529 1.20455 73.3226 1.09726V0.513864H78.4639V1.09726C78.22 1.23137 77.9491 1.33866 77.651 1.41913C77.3665 1.48618 77.082 1.54653 76.7975 1.60018V13.5295C77.1091 13.5832 77.4072 13.6502 77.6917 13.7307C77.9761 13.8112 78.2335 13.905 78.4639 14.0123V14.5957H73.3226V14.0123C73.8103 13.7978 74.3184 13.6368 74.8467 13.5295V7.89679H68.4659V13.5295C68.7368 13.5832 69.001 13.6502 69.2584 13.7307C69.5158 13.8112 69.7597 13.905 69.99 14.0123V14.5957Z" fill="currentColor"/>
<path d="M79.8363 4.53726H84.1444V5.0603C83.9954 5.14076 83.8192 5.22123 83.616 5.3017C83.4264 5.38217 83.1961 5.46263 82.9251 5.5431V11.0551L82.7016 12.926H82.8032L83.5957 11.4173L87.9444 4.53726H90.6877V5.0603C90.2542 5.3017 89.8072 5.46263 89.3466 5.5431V13.61C89.604 13.6771 89.8478 13.7508 90.0781 13.8313C90.3084 13.8983 90.5116 13.9855 90.6877 14.0928V14.5957H86.3797V14.0928C86.759 13.8782 87.1654 13.7173 87.599 13.61V7.85655L87.8022 6.26731H87.7006L86.9284 7.77608L82.6203 14.5957H79.8363V14.0928C80.0666 13.9855 80.2901 13.8983 80.5069 13.8313C80.7237 13.7508 80.9472 13.6771 81.1775 13.61V5.5431C80.6492 5.46263 80.2021 5.3017 79.8363 5.0603V4.53726Z" fill="currentColor"/>
<path d="M98.0908 4.53726H102.013V5.0603C101.877 5.16759 101.694 5.26147 101.464 5.34193C101.247 5.4224 100.976 5.51628 100.651 5.62357C100.191 6.17343 99.7029 6.73 99.1881 7.29328C98.6733 7.85655 98.1314 8.41983 97.5625 8.9831C97.8605 9.30497 98.1721 9.66037 98.4972 10.0493C98.8359 10.4382 99.1746 10.8406 99.5133 11.2563C99.852 11.6721 100.191 12.0811 100.529 12.4835C100.868 12.8858 101.2 13.2613 101.525 13.61L102.48 14.0928V14.5957H100.103L99.4523 14.133C98.8427 13.4088 98.2872 12.6846 97.786 11.9604C97.2847 11.2362 96.7767 10.5254 96.2619 9.82801H95.4491V13.61C95.72 13.6771 95.9639 13.7508 96.1806 13.8313C96.4109 13.8983 96.6074 13.9855 96.7699 14.0928V14.5957H92.279V14.0928C92.6448 13.8782 93.0918 13.7173 93.6202 13.61V5.5431C93.146 5.44922 92.6989 5.28829 92.279 5.0603V4.53726H96.4448V5.0603C96.3093 5.15417 96.1603 5.24135 95.9977 5.32182C95.8487 5.40228 95.6658 5.47605 95.4491 5.5431V9.30497L96.3838 9.1038C96.9257 8.48688 97.4405 7.9102 97.9282 7.37375C98.4159 6.83729 98.8698 6.2539 99.2897 5.62357C99.0594 5.52969 98.8427 5.44252 98.6395 5.36205C98.4498 5.26817 98.2669 5.16759 98.0908 5.0603V4.53726Z" fill="currentColor"/>
<path d="M103.314 9.56649C103.314 8.72158 103.422 7.97725 103.639 7.33351C103.869 6.67636 104.194 6.12649 104.614 5.68392C105.034 5.22794 105.535 4.88595 106.118 4.65796C106.714 4.41655 107.371 4.29585 108.089 4.29585C108.929 4.29585 109.654 4.42326 110.263 4.67807C110.873 4.93289 111.368 5.29499 111.747 5.76439C112.14 6.22037 112.424 6.77024 112.6 7.41398C112.79 8.05772 112.885 8.77523 112.885 9.56649C112.885 11.2563 112.451 12.5572 111.584 13.4692C110.717 14.3812 109.552 14.8371 108.089 14.8371C107.276 14.8371 106.572 14.7164 105.976 14.475C105.38 14.2202 104.885 13.8648 104.492 13.4088C104.099 12.9394 103.801 12.3829 103.598 11.7391C103.408 11.082 103.314 10.3578 103.314 9.56649ZM105.264 9.56649C105.264 10.17 105.319 10.74 105.427 11.2764C105.549 11.8129 105.732 12.2823 105.976 12.6846C106.233 13.0736 106.565 13.382 106.971 13.61C107.378 13.838 107.866 13.952 108.435 13.952C109.166 13.952 109.762 13.5966 110.223 12.8858C110.697 12.175 110.934 11.0686 110.934 9.56649C110.934 8.94957 110.873 8.37959 110.751 7.85655C110.643 7.3201 110.467 6.85741 110.223 6.46848C109.979 6.06614 109.667 5.75098 109.288 5.52299C108.909 5.29499 108.455 5.181 107.927 5.181C107.127 5.181 106.484 5.5364 105.996 6.2472C105.508 6.95799 105.264 8.06443 105.264 9.56649Z" fill="currentColor"/>
<path d="M115.806 12.8657C115.995 12.5438 116.165 12.1146 116.314 11.5782C116.463 11.0417 116.585 10.4516 116.679 9.8079C116.788 9.16416 116.869 8.49359 116.923 7.7962C116.978 7.0854 117.005 6.40143 117.005 5.74427C116.734 5.6638 116.483 5.56322 116.253 5.44252C116.036 5.32182 115.833 5.19441 115.643 5.0603V4.53726H123.954V5.0603C123.521 5.3017 123.074 5.46263 122.613 5.5431V13.61C122.898 13.6771 123.148 13.7508 123.365 13.8313C123.582 13.9118 123.778 13.9989 123.954 14.0928V14.5957H119.585V14.0928C119.911 13.8648 120.31 13.7039 120.784 13.61V5.4224H118.102C118.088 6.1332 118.048 6.89094 117.98 7.69562C117.912 8.48688 117.811 9.27145 117.675 10.0493C117.54 10.8137 117.364 11.538 117.147 12.2219C116.93 12.8925 116.666 13.4558 116.354 13.9118C116.097 14.3007 115.819 14.5689 115.521 14.7164C115.223 14.8774 114.945 14.931 114.688 14.8774C114.485 14.6494 114.288 14.3543 114.099 13.9922C113.923 13.6167 113.821 13.2747 113.794 12.9663L114.078 12.4633L115.806 12.8657Z" fill="currentColor"/>
<path d="M133.078 11.9604C133.078 12.2555 133.085 12.5103 133.098 12.7249C133.112 12.9394 133.125 13.1674 133.139 13.4088L134.541 13.61V14.0325C134.202 14.2068 133.823 14.361 133.403 14.4951C132.997 14.6293 132.604 14.7298 132.224 14.7969H131.716C131.581 14.4884 131.5 14.1532 131.473 13.7911C131.445 13.4155 131.425 13.0065 131.412 12.5639H131.31C131.256 12.8321 131.147 13.1071 130.985 13.3887C130.836 13.6569 130.633 13.8983 130.375 14.1129C130.131 14.3275 129.84 14.5019 129.501 14.636C129.163 14.7701 128.777 14.8371 128.343 14.8371C127.517 14.8371 126.839 14.589 126.311 14.0928C125.796 13.5966 125.539 12.9461 125.539 12.1415C125.539 11.5245 125.661 11.0216 125.905 10.6327C126.162 10.2304 126.535 9.91519 127.022 9.68719C127.51 9.4592 128.113 9.29827 128.831 9.20439C129.549 9.0971 130.382 9.01663 131.33 8.96299C131.385 8.3863 131.398 7.86996 131.371 7.41398C131.357 6.94458 131.283 6.54895 131.147 6.22708C131.025 5.8918 130.836 5.63698 130.578 5.46263C130.335 5.27488 130.009 5.181 129.603 5.181C129.413 5.181 129.197 5.19441 128.953 5.22123C128.722 5.23464 128.492 5.28829 128.262 5.38217L127.307 7.7962H126.778C126.643 7.39386 126.521 6.97811 126.413 6.54895C126.318 6.11979 126.257 5.69733 126.23 5.28158C126.745 4.97312 127.314 4.73172 127.937 4.55737C128.573 4.38302 129.278 4.29585 130.05 4.29585C130.741 4.29585 131.29 4.39644 131.696 4.59761C132.116 4.78536 132.434 5.03347 132.651 5.34193C132.868 5.65039 133.01 5.99238 133.078 6.3679C133.146 6.74341 133.18 7.11893 133.18 7.49445C133.18 8.29913 133.159 9.07698 133.119 9.82801C133.091 10.5656 133.078 11.2764 133.078 11.9604ZM129.156 13.5899C129.495 13.5899 129.793 13.5228 130.05 13.3887C130.307 13.2546 130.524 13.0937 130.7 12.9059C130.876 12.7182 131.019 12.5304 131.127 12.3426C131.235 12.1415 131.31 11.9738 131.351 11.8397V9.72743C130.565 9.72743 129.921 9.76766 129.42 9.84813C128.919 9.9286 128.526 10.056 128.242 10.2304C127.957 10.4047 127.761 10.626 127.652 10.8942C127.544 11.149 127.49 11.4441 127.49 11.7794C127.49 12.356 127.639 12.8053 127.937 13.1272C128.235 13.4357 128.641 13.5899 129.156 13.5899Z" fill="currentColor"/>
<path d="M144.069 13.1875C143.961 13.4155 143.792 13.6301 143.561 13.8313C143.331 14.0325 143.067 14.2068 142.769 14.3543C142.471 14.5019 142.145 14.6158 141.793 14.6963C141.441 14.7902 141.082 14.8371 140.716 14.8371C139.917 14.8371 139.212 14.7164 138.603 14.475C137.993 14.2202 137.485 13.8648 137.079 13.4088C136.672 12.9394 136.361 12.3829 136.144 11.7391C135.941 11.0954 135.839 10.3712 135.839 9.56649C135.839 7.84985 136.239 6.54224 137.038 5.64369C137.837 4.74513 138.969 4.29585 140.432 4.29585C140.906 4.29585 141.373 4.36291 141.834 4.49702C142.295 4.61772 142.701 4.8256 143.053 5.12065C143.419 5.41569 143.71 5.81133 143.927 6.30755C144.157 6.79035 144.272 7.39386 144.272 8.11807C144.272 8.34607 144.259 8.58076 144.232 8.82217C144.218 9.05016 144.184 9.29827 144.13 9.56649H137.79C137.79 10.1298 137.858 10.6595 137.993 11.1557C138.142 11.6385 138.359 12.061 138.644 12.4231C138.928 12.7852 139.287 13.0736 139.721 13.2881C140.154 13.4893 140.662 13.5899 141.245 13.5899C141.719 13.5899 142.2 13.5228 142.687 13.3887C143.175 13.2546 143.541 13.0803 143.785 12.8657L144.069 13.1875ZM140.35 5.181C139.578 5.181 138.989 5.44252 138.583 5.96556C138.176 6.47519 137.932 7.38045 137.851 8.68135H142.322C142.335 8.56065 142.342 8.44665 142.342 8.33936C142.355 8.21866 142.362 8.10466 142.362 7.99737C142.362 7.13905 142.2 6.45507 141.875 5.94544C141.549 5.43581 141.041 5.181 140.35 5.181Z" fill="currentColor"/>
<path d="M155.001 11.6587C155.001 12.1951 154.879 12.6578 154.635 13.0467C154.391 13.4222 154.059 13.7307 153.639 13.9721C153.233 14.2135 152.758 14.3946 152.217 14.5153C151.675 14.6226 151.106 14.6762 150.51 14.6762C150.076 14.6762 149.731 14.6695 149.473 14.6561C149.216 14.6561 148.999 14.6494 148.823 14.636C148.647 14.6226 148.498 14.6091 148.376 14.5957C148.254 14.5957 148.118 14.5957 147.969 14.5957H146.019V14.0928C146.439 13.8782 146.886 13.7173 147.36 13.61V5.5431C146.845 5.44922 146.398 5.28829 146.019 5.0603V4.53726H147.848C148.173 4.53726 148.45 4.53726 148.681 4.53726C148.911 4.52384 149.128 4.51043 149.331 4.49702C149.534 4.48361 149.737 4.4769 149.941 4.4769C150.144 4.46349 150.367 4.45679 150.611 4.45679C151.803 4.45679 152.731 4.63784 153.395 4.99994C154.059 5.34864 154.391 5.96556 154.391 6.8507C154.391 7.17258 154.323 7.46092 154.188 7.71573C154.052 7.97055 153.876 8.19183 153.659 8.37959C153.443 8.56735 153.199 8.72829 152.928 8.8624C152.657 8.9831 152.393 9.07028 152.135 9.12392C152.515 9.15074 152.874 9.2245 153.212 9.34521C153.564 9.46591 153.869 9.63355 154.127 9.84813C154.398 10.0493 154.608 10.3041 154.757 10.6126C154.919 10.9076 155.001 11.2563 155.001 11.6587ZM149.189 13.7307C149.378 13.7709 149.615 13.7911 149.9 13.7911C150.198 13.7911 150.442 13.7911 150.632 13.7911C151.431 13.7911 152.027 13.6234 152.42 13.2881C152.813 12.9394 153.009 12.4499 153.009 11.8196C153.009 11.1624 152.772 10.6729 152.298 10.3511C151.824 10.0158 151.214 9.84813 150.469 9.84813H149.189V13.7307ZM149.189 9.24462L151.444 9.04345C151.688 8.92275 151.932 8.70146 152.176 8.37959C152.433 8.04431 152.562 7.60844 152.562 7.07199C152.562 6.41484 152.359 5.96556 151.952 5.72415C151.559 5.46934 150.977 5.34193 150.205 5.34193C150.056 5.34193 149.886 5.34864 149.697 5.36205C149.507 5.36205 149.338 5.38217 149.189 5.4224V9.24462Z" fill="currentColor"/>
</svg>
