<svg width="179" height="18" viewBox="0 0 179 18" fill="none" xmlns="http://www.w3.org/2000/svg">
<path d="M10.4554 13.8597H4.75583L3.5895 16.9999H0.376587L6.09821 1.62839H9.39915L15.1208 16.9999H11.6438L10.4554 13.8597ZM5.76812 11.1368H9.46517L7.61664 5.80065L5.76812 11.1368Z" fill="currentColor"/>
<path d="M16.6707 5.36147H19.5755V12.8276L24.769 5.36147H27.4537V16.9999H24.5489V9.53373L19.3554 16.9999H16.6707V5.36147ZM22.0622 4.15371C20.7565 4.15371 19.8029 3.87556 19.2014 3.31926C18.6145 2.76295 18.3211 1.94314 18.3211 0.859818H20.8959C20.8959 1.43076 20.9912 1.83334 21.1819 2.06758C21.3873 2.28717 21.6807 2.39697 22.0622 2.39697C22.473 2.39697 22.7737 2.28717 22.9644 2.06758C23.1698 1.83334 23.2725 1.43076 23.2725 0.859818H25.8033C25.8033 1.94314 25.5025 2.76295 24.901 3.31926C24.3142 3.87556 23.3679 4.15371 22.0622 4.15371Z" fill="currentColor"/>
<path d="M35.2737 17.2634C34.4668 17.2634 33.7112 17.139 33.007 16.8901C32.3175 16.6412 31.716 16.2679 31.2025 15.7702C30.689 15.2724 30.2856 14.6502 29.9922 13.9036C29.6988 13.157 29.5521 12.286 29.5521 11.2905V10.8513C29.5521 9.91436 29.7061 9.08722 30.0142 8.36989C30.3223 7.65255 30.7331 7.05233 31.2465 6.56923C31.7747 6.08612 32.3835 5.72014 33.073 5.47126C33.7626 5.22239 34.4961 5.09796 35.2737 5.09796C36.0952 5.09796 36.8214 5.20775 37.4523 5.42735C38.0978 5.64694 38.6406 5.94705 39.0808 6.32768C39.5209 6.7083 39.8656 7.15481 40.115 7.66719C40.3645 8.17957 40.5112 8.72856 40.5552 9.31414H37.6063C37.489 8.77247 37.2469 8.34793 36.8801 8.0405C36.528 7.71843 35.9925 7.55739 35.2737 7.55739C34.8922 7.55739 34.5328 7.62327 34.1954 7.75503C33.8726 7.88678 33.5792 8.09174 33.3151 8.36989C33.0657 8.6334 32.8677 8.97011 32.7209 9.38001C32.5742 9.78992 32.5009 10.2803 32.5009 10.8513V11.2905C32.5009 11.9053 32.5669 12.4397 32.6989 12.8935C32.8456 13.3327 33.0437 13.6987 33.2931 13.9915C33.5425 14.2696 33.8359 14.4746 34.1734 14.6063C34.5108 14.7381 34.8776 14.804 35.2737 14.804C35.8458 14.804 36.3373 14.6576 36.7481 14.3648C37.1735 14.0573 37.4596 13.6182 37.6063 13.0472H40.5552C40.4818 13.6913 40.2984 14.2769 40.005 14.804C39.7263 15.3163 39.3522 15.7555 38.8827 16.1215C38.4279 16.4875 37.8924 16.773 37.2762 16.9779C36.6601 17.1682 35.9925 17.2634 35.2737 17.2634Z" fill="currentColor"/>
<path d="M47.8267 17.2634C47.0345 17.2634 46.2789 17.1463 45.56 16.912C44.8558 16.6632 44.2397 16.2972 43.7115 15.8141C43.1834 15.3163 42.7653 14.6942 42.4572 13.9475C42.1491 13.1863 41.995 12.3006 41.995 11.2905V10.8513C41.995 9.88508 42.1417 9.04331 42.4352 8.32597C42.7286 7.60863 43.132 7.01573 43.6455 6.54727C44.159 6.06417 44.7531 5.7055 45.428 5.47126C46.1029 5.22239 46.8291 5.09796 47.6066 5.09796C49.4405 5.09796 50.8342 5.58106 51.7878 6.54727C52.7414 7.51348 53.2182 8.91155 53.2182 10.7415V11.9712H44.9659C44.9805 12.4836 45.0686 12.9301 45.2299 13.3107C45.3913 13.6767 45.6041 13.9768 45.8681 14.2111C46.1322 14.4453 46.433 14.621 46.7704 14.7381C47.1225 14.8406 47.4746 14.8918 47.8267 14.8918C48.5749 14.8918 49.1397 14.782 49.5212 14.5624C49.9026 14.3428 50.174 14.0207 50.3354 13.5962H52.9981C52.7634 14.8113 52.1839 15.7262 51.2597 16.3411C50.3354 16.956 49.1911 17.2634 47.8267 17.2634ZM47.7167 7.46956C47.3792 7.46956 47.0418 7.51348 46.7044 7.60131C46.3816 7.68915 46.0955 7.82823 45.8461 8.01854C45.5967 8.20885 45.3913 8.46504 45.2299 8.78711C45.0686 9.10918 44.9805 9.49713 44.9659 9.95096H50.4014C50.3867 9.46785 50.3061 9.06526 50.1593 8.7432C50.0273 8.42113 49.8366 8.16493 49.5872 7.97462C49.3525 7.78431 49.0737 7.65255 48.7509 7.57935C48.4282 7.50616 48.0834 7.46956 47.7167 7.46956Z" fill="currentColor"/>
<path d="M55.3105 5.36147H58.2154V9.86312H63.1888V5.36147H66.0936V16.9999H63.1888V12.2786H58.2154V16.9999H55.3105V5.36147Z" fill="currentColor"/>
<path d="M74.6838 1.62839H77.9847V7.73307H84.5866V1.62839H87.8875V16.9999H84.5866V10.456H77.9847V16.9999H74.6838V1.62839Z" fill="currentColor"/>
<path d="M90.9632 5.36147H93.868V12.8276L99.0615 5.36147H101.746V16.9999H98.8415V9.53373L93.648 16.9999H90.9632V5.36147Z" fill="currentColor"/>
<path d="M104.395 5.36147H107.3V9.929H108.4L111.965 5.36147H115.178L110.777 10.8732L115.398 16.9999H111.921L108.4 12.2128H107.3V16.9999H104.395V5.36147Z" fill="currentColor"/>
<path d="M121.904 17.2634C121.112 17.2634 120.357 17.1463 119.638 16.912C118.934 16.6632 118.317 16.2899 117.789 15.7921C117.261 15.2944 116.843 14.6722 116.535 13.9256C116.227 13.179 116.073 12.3006 116.073 11.2905V10.8513C116.073 9.89972 116.227 9.06526 116.535 8.34793C116.843 7.63059 117.261 7.03037 117.789 6.54727C118.317 6.06417 118.934 5.7055 119.638 5.47126C120.357 5.22239 121.112 5.09796 121.904 5.09796C122.697 5.09796 123.445 5.22239 124.149 5.47126C124.853 5.7055 125.469 6.06417 125.998 6.54727C126.54 7.03037 126.966 7.63059 127.274 8.34793C127.582 9.06526 127.736 9.89972 127.736 10.8513V11.2905C127.736 12.286 127.582 13.157 127.274 13.9036C126.966 14.6502 126.54 15.2724 125.998 15.7702C125.469 16.2679 124.853 16.6412 124.149 16.8901C123.445 17.139 122.697 17.2634 121.904 17.2634ZM121.904 14.804C122.726 14.804 123.408 14.5112 123.951 13.9256C124.508 13.34 124.787 12.4616 124.787 11.2905V10.8513C124.787 9.7826 124.508 8.97011 123.951 8.41381C123.408 7.84287 122.726 7.55739 121.904 7.55739C121.068 7.55739 120.379 7.84287 119.836 8.41381C119.293 8.97011 119.022 9.7826 119.022 10.8513V11.2905C119.022 12.4763 119.293 13.362 119.836 13.9475C120.379 14.5185 121.068 14.804 121.904 14.804Z" fill="currentColor"/>
<path d="M129.713 17.2634C129.596 17.2634 129.449 17.2561 129.273 17.2414C129.097 17.2414 128.95 17.2268 128.833 17.1975V14.5844C128.906 14.599 129.016 14.6063 129.163 14.6063C129.442 14.6063 129.684 14.5258 129.889 14.3648C130.095 14.1891 130.263 13.8963 130.395 13.4864C130.542 13.0765 130.645 12.5348 130.703 11.8614C130.777 11.1734 130.813 10.3243 130.813 9.31414V5.36147H140.056V16.9999H137.151V7.77699H133.498V9.75332C133.498 11.2612 133.418 12.5056 133.256 13.4864C133.109 14.4526 132.875 15.2139 132.552 15.7702C132.244 16.3265 131.848 16.7144 131.364 16.934C130.894 17.1536 130.344 17.2634 129.713 17.2634Z" fill="currentColor"/>
<path d="M146.19 17.2634C145.559 17.2634 145.001 17.1756 144.517 16.9999C144.033 16.8096 143.622 16.5534 143.285 16.2313C142.948 15.8946 142.691 15.5067 142.515 15.0675C142.339 14.6136 142.251 14.1232 142.251 13.5962C142.251 11.2539 143.644 10.0827 146.432 10.0827H149.909V9.53373C149.909 8.77247 149.733 8.23813 149.381 7.9307C149.043 7.62327 148.5 7.46956 147.752 7.46956C147.092 7.46956 146.615 7.58667 146.322 7.82091C146.028 8.0405 145.86 8.31865 145.816 8.65536H142.911C142.94 8.15762 143.065 7.68915 143.285 7.24996C143.52 6.81078 143.842 6.43747 144.253 6.13004C144.679 5.80797 145.192 5.5591 145.794 5.38343C146.395 5.19311 147.085 5.09796 147.862 5.09796C148.61 5.09796 149.285 5.17847 149.887 5.33951C150.503 5.50054 151.024 5.76405 151.449 6.13004C151.889 6.48139 152.227 6.94254 152.462 7.51348C152.696 8.08442 152.814 8.77247 152.814 9.57765V14.0354C152.814 14.6502 152.821 15.1919 152.836 15.6604C152.865 16.1142 152.909 16.5607 152.968 16.9999H150.261C150.202 16.6778 150.166 16.4363 150.151 16.2752C150.151 16.0996 150.151 15.8434 150.151 15.5067C149.828 15.9751 149.337 16.385 148.676 16.7364C148.031 17.0877 147.202 17.2634 146.19 17.2634ZM147.092 15.0235C147.444 15.0235 147.789 14.9796 148.126 14.8918C148.464 14.7893 148.765 14.6429 149.029 14.4526C149.293 14.2477 149.505 13.9915 149.667 13.684C149.828 13.3766 149.909 13.0179 149.909 12.608V12.059H146.982C146.425 12.059 145.984 12.1908 145.662 12.4543C145.354 12.7032 145.199 13.0472 145.199 13.4864C145.199 13.9549 145.361 14.3282 145.684 14.6063C146.006 14.8845 146.476 15.0235 147.092 15.0235Z" fill="currentColor"/>
<path d="M160.63 17.2634C159.838 17.2634 159.082 17.1463 158.364 16.912C157.659 16.6632 157.043 16.2972 156.515 15.8141C155.987 15.3163 155.569 14.6942 155.261 13.9475C154.953 13.1863 154.799 12.3006 154.799 11.2905V10.8513C154.799 9.88508 154.945 9.04331 155.239 8.32597C155.532 7.60863 155.936 7.01573 156.449 6.54727C156.962 6.06417 157.557 5.7055 158.231 5.47126C158.906 5.22239 159.633 5.09796 160.41 5.09796C162.244 5.09796 163.638 5.58106 164.591 6.54727C165.545 7.51348 166.022 8.91155 166.022 10.7415V11.9712H157.769C157.784 12.4836 157.872 12.9301 158.033 13.3107C158.195 13.6767 158.408 13.9768 158.672 14.2111C158.936 14.4453 159.236 14.621 159.574 14.7381C159.926 14.8406 160.278 14.8918 160.63 14.8918C161.378 14.8918 161.943 14.782 162.325 14.5624C162.706 14.3428 162.978 14.0207 163.139 13.5962H165.802C165.567 14.8113 164.987 15.7262 164.063 16.3411C163.139 16.956 161.995 17.2634 160.63 17.2634ZM160.52 7.46956C160.183 7.46956 159.845 7.51348 159.508 7.60131C159.185 7.68915 158.899 7.82823 158.65 8.01854C158.4 8.20885 158.195 8.46504 158.033 8.78711C157.872 9.10918 157.784 9.49713 157.769 9.95096H163.205C163.19 9.46785 163.11 9.06526 162.963 8.7432C162.831 8.42113 162.64 8.16493 162.391 7.97462C162.156 7.78431 161.877 7.65255 161.554 7.57935C161.232 7.50616 160.887 7.46956 160.52 7.46956Z" fill="currentColor"/>
<path d="M168.114 5.36147H173.968C174.716 5.36147 175.354 5.44198 175.882 5.60302C176.425 5.74941 176.872 5.96169 177.225 6.23984C177.577 6.51799 177.833 6.84738 177.995 7.22801C178.156 7.60863 178.237 8.02586 178.237 8.47968C178.237 9.02135 178.068 9.53373 177.731 10.0168C177.408 10.4853 176.961 10.8 176.388 10.9611C177.107 11.1368 177.665 11.4735 178.061 11.9712C178.472 12.4543 178.677 13.0253 178.677 13.684C178.677 14.6942 178.325 15.4993 177.621 16.0996C176.917 16.6998 175.846 16.9999 174.408 16.9999H168.114V5.36147ZM173.836 14.6722C174.496 14.6722 174.98 14.577 175.288 14.3867C175.611 14.1818 175.772 13.8597 175.772 13.4205C175.772 12.9813 175.618 12.6666 175.31 12.4763C175.017 12.2713 174.525 12.1688 173.836 12.1688H171.019V14.6722H173.836ZM173.55 10.0168C174.224 10.0168 174.687 9.92168 174.936 9.73136C175.2 9.54105 175.332 9.24826 175.332 8.85299C175.332 8.47236 175.2 8.18689 174.936 7.99658C174.672 7.79163 174.21 7.68915 173.55 7.68915H171.019V10.0168H173.55Z" fill="currentColor"/>
</svg>
