<svg width="155" height="11" viewBox="0 0 155 11" fill="none" xmlns="http://www.w3.org/2000/svg">
<path d="M5.11472 1.32961H1.81358V8.40938H0.875244V0.492699H5.11472V1.32961Z" fill="currentColor"/>
<path d="M7.66795 3.54628H6.02868C6.00607 3.86294 5.98346 4.206 5.96085 4.57544C5.93824 4.93735 5.90432 5.30303 5.8591 5.67247C5.81388 6.03438 5.75359 6.38497 5.67822 6.72426C5.60285 7.056 5.50487 7.35005 5.38428 7.6064C5.27123 7.86275 5.12803 8.07009 4.95468 8.22843C4.78887 8.37922 4.58914 8.45462 4.3555 8.45462C4.2123 8.45462 4.08794 8.44708 3.98243 8.432C3.87691 8.41692 3.7827 8.39053 3.6998 8.35283L3.83546 7.59509C3.9259 7.62525 4.02388 7.64033 4.1294 7.64033C4.28013 7.64033 4.4158 7.57624 4.53639 7.44807C4.65698 7.31989 4.76249 7.07862 4.85293 6.72426C4.94338 6.36235 5.01874 5.86473 5.07904 5.2314C5.13933 4.59806 5.18079 3.77247 5.2034 2.75461H8.57237V8.40938H7.66795V3.54628Z" fill="currentColor"/>
<path d="M10.2221 3.17306C10.5085 2.99965 10.8402 2.87147 11.217 2.78854C11.6014 2.7056 12.0008 2.66413 12.4154 2.66413C12.8073 2.66413 13.1201 2.71691 13.3537 2.82247C13.5949 2.92802 13.7758 3.06751 13.8964 3.24092C14.0245 3.40679 14.1074 3.59151 14.1451 3.79509C14.1903 3.99866 14.2129 4.20223 14.2129 4.4058C14.2129 4.85818 14.2016 5.29926 14.179 5.72902C14.1564 6.15878 14.1451 6.56592 14.1451 6.95045C14.1451 7.22942 14.1564 7.49331 14.179 7.74212C14.2016 7.99093 14.2431 8.22089 14.3033 8.432H13.6363L13.3989 7.64033H13.3424C13.2746 7.74589 13.1879 7.85144 13.0824 7.957C12.9844 8.05501 12.8638 8.14549 12.7206 8.22843C12.5774 8.30382 12.4116 8.36791 12.2232 8.42069C12.0348 8.47347 11.82 8.49986 11.5788 8.49986C11.3376 8.49986 11.1115 8.46216 10.9005 8.38676C10.697 8.31136 10.5198 8.20581 10.3691 8.07009C10.2184 7.92684 10.0978 7.7572 10.0073 7.56116C9.92444 7.36513 9.88298 7.14271 9.88298 6.8939C9.88298 6.56215 9.95082 6.28696 10.0865 6.0683C10.2221 5.84211 10.4106 5.66493 10.6517 5.53676C10.9005 5.40104 11.1944 5.3068 11.5336 5.25402C11.8802 5.1937 12.2609 5.16354 12.6754 5.16354C12.7809 5.16354 12.8826 5.16354 12.9806 5.16354C13.0861 5.16354 13.1917 5.17108 13.2972 5.18616C13.3198 4.95997 13.3311 4.7564 13.3311 4.57544C13.3311 4.16076 13.2482 3.87048 13.0824 3.70461C12.9166 3.53874 12.6151 3.4558 12.178 3.4558C12.0498 3.4558 11.9104 3.46711 11.7597 3.48973C11.6165 3.50481 11.4657 3.5312 11.3074 3.5689C11.1567 3.59905 11.0097 3.64052 10.8665 3.6933C10.7309 3.73854 10.6103 3.79132 10.5048 3.85163L10.2221 3.17306ZM11.8275 7.70819C12.0385 7.70819 12.2269 7.6818 12.3928 7.62902C12.5586 7.5687 12.7018 7.49708 12.8224 7.41414C12.9429 7.32366 13.0409 7.22565 13.1163 7.12009C13.1992 7.01454 13.2595 6.91275 13.2972 6.81473V5.87604C13.1917 5.8685 13.0824 5.86473 12.9693 5.86473C12.8638 5.85719 12.7583 5.85342 12.6528 5.85342C12.4191 5.85342 12.1893 5.8685 11.9632 5.89866C11.7446 5.92128 11.5486 5.97029 11.3753 6.04569C11.2095 6.11354 11.0738 6.21156 10.9683 6.33973C10.8703 6.46037 10.8213 6.61493 10.8213 6.80342C10.8213 7.06731 10.9155 7.28596 11.104 7.45938C11.2924 7.62525 11.5336 7.70819 11.8275 7.70819Z" fill="currentColor"/>
<path d="M15.9211 2.76592C16.1848 2.75084 16.4599 2.73199 16.7463 2.70937C17.0403 2.68675 17.402 2.67544 17.8316 2.67544C18.5778 2.67544 19.1129 2.79231 19.437 3.02604C19.7611 3.25223 19.9231 3.59905 19.9231 4.06652C19.9231 4.3304 19.844 4.59052 19.6857 4.84687C19.535 5.09568 19.2825 5.28041 18.9283 5.40104V5.44628C19.3729 5.52922 19.6857 5.68378 19.8666 5.90997C20.0475 6.13616 20.1379 6.43775 20.1379 6.81473C20.1379 7.40283 19.9269 7.82882 19.5048 8.09271C19.0828 8.3566 18.4497 8.48855 17.6055 8.48855C17.289 8.48855 16.9951 8.47724 16.7237 8.45462C16.4524 8.43954 16.1848 8.42069 15.9211 8.39807V2.76592ZM16.8255 7.65164C16.9687 7.66672 17.1081 7.67803 17.2438 7.68557C17.387 7.69311 17.5528 7.69688 17.7412 7.69688C18.2462 7.69688 18.6193 7.62525 18.8604 7.482C19.1091 7.33874 19.2335 7.0937 19.2335 6.74688C19.2335 6.47545 19.128 6.2568 18.917 6.09092C18.7135 5.91751 18.3479 5.8308 17.8203 5.8308H16.8255V7.65164ZM17.9334 5.14092C18.0691 5.14092 18.201 5.1183 18.3291 5.07306C18.4572 5.02783 18.5703 4.96751 18.6682 4.89211C18.7738 4.80918 18.8567 4.71493 18.917 4.60937C18.9848 4.50382 19.0187 4.39072 19.0187 4.27009C19.0187 3.9685 18.9283 3.76116 18.7474 3.64806C18.5665 3.52743 18.2499 3.46711 17.7977 3.46711C17.5566 3.46711 17.3644 3.47088 17.2212 3.47842C17.0855 3.48596 16.9536 3.4935 16.8255 3.50104V5.14092H17.9334Z" fill="currentColor"/>
<path d="M21.4722 3.17306C21.7586 2.99965 22.0902 2.87147 22.4671 2.78854C22.8515 2.7056 23.2509 2.66413 23.6654 2.66413C24.0574 2.66413 24.3701 2.71691 24.6038 2.82247C24.845 2.92802 25.0258 3.06751 25.1464 3.24092C25.2745 3.40679 25.3575 3.59151 25.3951 3.79509C25.4404 3.99866 25.463 4.20223 25.463 4.4058C25.463 4.85818 25.4517 5.29926 25.4291 5.72902C25.4064 6.15878 25.3951 6.56592 25.3951 6.95045C25.3951 7.22942 25.4064 7.49331 25.4291 7.74212C25.4517 7.99093 25.4931 8.22089 25.5534 8.432H24.8864L24.649 7.64033H24.5925C24.5246 7.74589 24.438 7.85144 24.3324 7.957C24.2345 8.05501 24.1139 8.14549 23.9707 8.22843C23.8275 8.30382 23.6617 8.36791 23.4732 8.42069C23.2848 8.47347 23.07 8.49986 22.8288 8.49986C22.5877 8.49986 22.3616 8.46216 22.1505 8.38676C21.947 8.31136 21.7699 8.20581 21.6192 8.07009C21.4684 7.92684 21.3479 7.7572 21.2574 7.56116C21.1745 7.36513 21.1331 7.14271 21.1331 6.8939C21.1331 6.56215 21.2009 6.28696 21.3365 6.0683C21.4722 5.84211 21.6606 5.66493 21.9018 5.53676C22.1505 5.40104 22.4445 5.3068 22.7836 5.25402C23.1303 5.1937 23.5109 5.16354 23.9255 5.16354C24.031 5.16354 24.1327 5.16354 24.2307 5.16354C24.3362 5.16354 24.4417 5.17108 24.5472 5.18616C24.5699 4.95997 24.5812 4.7564 24.5812 4.57544C24.5812 4.16076 24.4983 3.87048 24.3324 3.70461C24.1666 3.53874 23.8652 3.4558 23.428 3.4558C23.2999 3.4558 23.1605 3.46711 23.0097 3.48973C22.8665 3.50481 22.7158 3.5312 22.5575 3.5689C22.4068 3.59905 22.2598 3.64052 22.1166 3.6933C21.9809 3.73854 21.8604 3.79132 21.7548 3.85163L21.4722 3.17306ZM23.0776 7.70819C23.2886 7.70819 23.477 7.6818 23.6428 7.62902C23.8086 7.5687 23.9518 7.49708 24.0724 7.41414C24.193 7.32366 24.291 7.22565 24.3664 7.12009C24.4493 7.01454 24.5096 6.91275 24.5472 6.81473V5.87604C24.4417 5.8685 24.3324 5.86473 24.2194 5.86473C24.1139 5.85719 24.0084 5.85342 23.9028 5.85342C23.6692 5.85342 23.4393 5.8685 23.2132 5.89866C22.9947 5.92128 22.7987 5.97029 22.6253 6.04569C22.4595 6.11354 22.3239 6.21156 22.2184 6.33973C22.1204 6.46037 22.0714 6.61493 22.0714 6.80342C22.0714 7.06731 22.1656 7.28596 22.354 7.45938C22.5424 7.62525 22.7836 7.70819 23.0776 7.70819Z" fill="currentColor"/>
<path d="M30.2756 0.571866C30.562 0.504009 30.871 0.458771 31.2026 0.436152C31.5342 0.413533 31.8621 0.402223 32.1862 0.402223C32.5329 0.402223 32.8833 0.436152 33.2376 0.504009C33.5993 0.571866 33.9272 0.696271 34.2211 0.877224C34.5151 1.05818 34.7525 1.30699 34.9333 1.62365C35.1218 1.94032 35.216 2.34369 35.216 2.83377C35.216 3.31632 35.1293 3.72346 34.956 4.05521C34.7826 4.38695 34.5527 4.65838 34.2663 4.86949C33.9799 5.07306 33.6521 5.22009 33.2828 5.31056C32.9135 5.40104 32.5329 5.44628 32.1409 5.44628C32.1033 5.44628 32.0392 5.44628 31.9488 5.44628C31.8659 5.44628 31.7754 5.44628 31.6774 5.44628C31.587 5.43874 31.4965 5.4312 31.4061 5.42366C31.3157 5.41612 31.2516 5.40858 31.2139 5.40104V8.40938H30.2756V0.571866ZM32.2088 1.21651C32.0128 1.21651 31.8244 1.22028 31.6435 1.22782C31.4626 1.23536 31.3194 1.25421 31.2139 1.28437V4.56414C31.2516 4.57921 31.3119 4.59052 31.3948 4.59806C31.4777 4.59806 31.5644 4.60183 31.6548 4.60937C31.7453 4.60937 31.8319 4.60937 31.9148 4.60937C31.9977 4.60937 32.058 4.60937 32.0957 4.60937C32.352 4.60937 32.6045 4.58675 32.8532 4.54152C33.1094 4.48874 33.3393 4.39826 33.5428 4.27009C33.7463 4.14191 33.9083 3.96096 34.0289 3.72723C34.1571 3.4935 34.2211 3.19568 34.2211 2.83377C34.2211 2.52465 34.1608 2.2683 34.0402 2.06473C33.9272 1.85361 33.7727 1.68774 33.5767 1.56711C33.3883 1.43893 33.1735 1.34845 32.9323 1.29568C32.6911 1.2429 32.45 1.21651 32.2088 1.21651Z" fill="currentColor"/>
<path d="M40.2181 7.957C39.992 8.13795 39.7056 8.28121 39.3589 8.38676C39.0198 8.49232 38.658 8.54509 38.2736 8.54509C37.844 8.54509 37.4709 8.47724 37.1544 8.34152C36.8378 8.19827 36.5778 7.99847 36.3743 7.74212C36.1708 7.47823 36.0201 7.16533 35.9221 6.80342C35.8241 6.44152 35.7752 6.03438 35.7752 5.58199C35.7752 4.61691 35.9899 3.88179 36.4195 3.37663C36.8491 2.87147 37.4634 2.61889 38.2623 2.61889C38.5186 2.61889 38.7748 2.64905 39.0311 2.70937C39.2873 2.76215 39.5172 2.8677 39.7207 3.02604C39.9242 3.18437 40.09 3.41056 40.2181 3.70461C40.3462 3.99112 40.4103 4.37187 40.4103 4.84687C40.4103 5.09568 40.3877 5.37088 40.3425 5.67247H36.7135C36.7135 6.00422 36.7474 6.29826 36.8152 6.55461C36.8831 6.81096 36.9886 7.02962 37.1318 7.21057C37.275 7.38398 37.4596 7.5197 37.6857 7.61771C37.9194 7.70819 38.202 7.75343 38.5336 7.75343C38.7899 7.75343 39.0461 7.70819 39.3024 7.61771C39.5586 7.52724 39.7508 7.42168 39.879 7.30104L40.2181 7.957ZM38.2736 3.41056C37.8289 3.41056 37.4709 3.52743 37.1996 3.76116C36.9358 3.99489 36.7775 4.39449 36.7248 4.95997H39.5285C39.5285 4.38695 39.4192 3.98735 39.2006 3.76116C38.9821 3.52743 38.6731 3.41056 38.2736 3.41056Z" fill="currentColor"/>
<path d="M45.5663 8.03617C45.3402 8.20204 45.0726 8.32644 44.7636 8.40938C44.4546 8.49986 44.1305 8.54509 43.7914 8.54509C43.3542 8.54509 42.9849 8.47724 42.6835 8.34152C42.382 8.19827 42.1333 7.99847 41.9373 7.74212C41.7489 7.47823 41.6095 7.16533 41.519 6.80342C41.4361 6.43398 41.3947 6.02684 41.3947 5.58199C41.3947 4.62445 41.6057 3.8931 42.0278 3.38794C42.4498 2.87524 43.0565 2.61889 43.8479 2.61889C44.2097 2.61889 44.5149 2.64905 44.7636 2.70937C45.0199 2.76215 45.2498 2.84131 45.4533 2.94687L45.1932 3.72723C45.0199 3.62921 44.8277 3.55382 44.6167 3.50104C44.4056 3.44072 44.1795 3.41056 43.9383 3.41056C42.8681 3.41056 42.333 4.13437 42.333 5.58199C42.333 5.8685 42.3594 6.1437 42.4121 6.40759C42.4724 6.66394 42.5666 6.8939 42.6948 7.09747C42.8304 7.2935 43.0038 7.45184 43.2148 7.57247C43.4334 7.69311 43.7009 7.75343 44.0175 7.75343C44.2888 7.75343 44.53 7.71196 44.741 7.62902C44.9596 7.54608 45.1367 7.45184 45.2724 7.34628L45.5663 8.03617Z" fill="currentColor"/>
<path d="M50.2147 3.54628H47.7163V8.40938H46.8118V2.75461H51.1191V8.40938H50.2147V3.54628Z" fill="currentColor"/>
<path d="M54.5238 6.4189L54.8403 7.50462H54.8969L55.1456 6.40759L56.2422 2.75461H57.1579L55.4847 7.83259C55.3566 8.20204 55.2285 8.56017 55.1004 8.907C54.9798 9.25383 54.8441 9.56295 54.6934 9.83438C54.5426 10.1058 54.3731 10.3207 54.1846 10.479C53.9962 10.6449 53.7776 10.7278 53.5289 10.7278C53.2576 10.7278 53.0353 10.6901 52.8619 10.6147L53.0202 9.83438C53.1182 9.87208 53.2124 9.89093 53.3028 9.89093C53.5139 9.89093 53.7174 9.77783 53.9133 9.55164C54.1093 9.33299 54.2713 8.95224 54.3994 8.40938L52.1271 2.75461H53.1672L54.5238 6.4189Z" fill="currentColor"/>
<path d="M58.6482 3.76116C58.8969 3.39925 59.172 3.14667 59.4735 3.00342C59.7749 2.85262 60.1518 2.77723 60.604 2.77723C61.2974 2.77723 61.8287 3.00342 62.198 3.4558C62.5749 3.90818 62.7633 4.57544 62.7633 5.45759C62.7633 6.47545 62.5447 7.2445 62.1076 7.76474C61.678 8.28498 61.0751 8.54509 60.2988 8.54509C59.4697 8.54509 58.8479 8.25859 58.4334 7.68557C58.0189 7.11255 57.8116 6.21156 57.8116 4.98259C57.8116 4.33417 57.8417 3.78001 57.902 3.32009C57.9699 2.86016 58.0641 2.47187 58.1847 2.1552C58.3128 1.83854 58.4635 1.58596 58.6369 1.39746C58.8178 1.20897 59.0175 1.06195 59.2361 0.956391C59.4622 0.843295 59.7071 0.764129 59.9709 0.718891C60.2347 0.673652 60.5173 0.635953 60.8188 0.605795C61.2107 0.568096 61.516 0.526628 61.7345 0.48139C61.9606 0.428612 62.1415 0.338136 62.2772 0.209961L62.3789 1.02425C62.3036 1.09211 62.2206 1.14865 62.1302 1.19389C62.0398 1.23913 61.9305 1.27683 61.8024 1.30699C61.6742 1.33715 61.5197 1.36353 61.3388 1.38615C61.1655 1.40877 60.962 1.42762 60.7284 1.4427C60.4043 1.46532 60.1179 1.50679 59.8692 1.56711C59.628 1.61988 59.4169 1.72921 59.2361 1.89508C59.0627 2.05342 58.9233 2.28338 58.8178 2.58496C58.7198 2.87901 58.652 3.27108 58.6143 3.76116H58.6482ZM58.7499 5.5933C58.7499 5.87981 58.7801 6.15501 58.8404 6.4189C58.9007 6.68279 58.9911 6.91652 59.1117 7.12009C59.2398 7.31612 59.4019 7.47069 59.5978 7.58378C59.7938 7.69688 60.0237 7.75343 60.2875 7.75343C60.8075 7.75343 61.1919 7.5687 61.4406 7.19926C61.6968 6.82227 61.825 6.26811 61.825 5.53676C61.825 5.25025 61.7986 4.98636 61.7458 4.74509C61.6931 4.50382 61.6102 4.29648 61.4971 4.12306C61.3841 3.94211 61.2409 3.8064 61.0675 3.71592C60.8942 3.6179 60.6869 3.5689 60.4457 3.5689C59.8578 3.56136 59.4282 3.73477 59.1569 4.08913C58.8856 4.43596 58.7499 4.93735 58.7499 5.5933Z" fill="currentColor"/>
<path d="M67.1641 3.54628H65.5249C65.5023 3.86294 65.4797 4.206 65.457 4.57544C65.4344 4.93735 65.4005 5.30303 65.3553 5.67247C65.3101 6.03438 65.2498 6.38497 65.1744 6.72426C65.0991 7.056 65.0011 7.35005 64.8805 7.6064C64.7674 7.86275 64.6242 8.07009 64.4509 8.22843C64.2851 8.37922 64.0853 8.45462 63.8517 8.45462C63.7085 8.45462 63.5841 8.44708 63.4786 8.432C63.3731 8.41692 63.2789 8.39053 63.196 8.35283L63.3317 7.59509C63.4221 7.62525 63.5201 7.64033 63.6256 7.64033C63.7763 7.64033 63.912 7.57624 64.0326 7.44807C64.1532 7.31989 64.2587 7.07862 64.3491 6.72426C64.4396 6.36235 64.5149 5.86473 64.5752 5.2314C64.6355 4.59806 64.677 3.77247 64.6996 2.75461H68.0686V8.40938H67.1641V3.54628Z" fill="currentColor"/>
<path d="M73.336 5.06176L73.3699 4.36056H73.336L72.8725 5.08437L70.3288 8.40938H69.8088V2.75461H70.7132V6.20402L70.6793 6.87128H70.7245L71.1654 6.17009L73.7091 2.75461H74.2404V8.40938H73.336V5.06176Z" fill="currentColor"/>
<path d="M77.4048 5.86473H76.8847V8.40938H75.9803V2.75461H76.8847V5.31056L77.3709 5.15223L79.1797 2.75461H80.1633L78.4109 5.02783L77.9361 5.40104L78.524 5.85342L80.412 8.40938H79.2928L77.4048 5.86473Z" fill="currentColor"/>
<path d="M84.9063 5.06176L84.9402 4.36056H84.9063L84.4427 5.08437L81.8991 8.40938H81.379V2.75461H82.2834V6.20402L82.2495 6.87128H82.2947L82.7356 6.17009L85.2793 2.75461H85.8107V8.40938H84.9063V5.06176Z" fill="currentColor"/>
<path d="M95.7198 8.0814C95.4937 8.25482 95.2073 8.37545 94.8606 8.44331C94.5139 8.51117 94.1446 8.54509 93.7526 8.54509C93.2778 8.54509 92.8331 8.46593 92.4186 8.30759C92.0041 8.14172 91.6423 7.89291 91.3333 7.56116C91.0243 7.22942 90.7794 6.80719 90.5985 6.2945C90.4176 5.77426 90.3271 5.15977 90.3271 4.45104C90.3271 3.71215 90.4251 3.08635 90.6211 2.57366C90.8246 2.05342 91.0884 1.63119 91.4125 1.30699C91.7441 0.97524 92.1134 0.733969 92.5204 0.583176C92.9274 0.432382 93.3419 0.356985 93.7639 0.356985C94.2162 0.356985 94.5855 0.383374 94.8719 0.436152C95.1583 0.48139 95.4032 0.545477 95.6067 0.628414L95.3806 1.45401C95.0188 1.2806 94.5026 1.19389 93.8318 1.19389C93.5228 1.19389 93.2175 1.25044 92.916 1.36353C92.6146 1.47663 92.3433 1.66135 92.1021 1.9177C91.8684 2.17405 91.68 2.50957 91.5368 2.92425C91.3936 3.33893 91.322 3.84786 91.322 4.45104C91.322 4.9939 91.3898 5.4689 91.5255 5.87604C91.6612 6.28319 91.8458 6.62247 92.0795 6.8939C92.3206 7.16533 92.5995 7.3689 92.916 7.50462C93.2401 7.64033 93.5906 7.70819 93.9674 7.70819C94.3066 7.70819 94.6005 7.67426 94.8493 7.6064C95.1055 7.53855 95.3203 7.45184 95.4937 7.34628L95.7198 8.0814Z" fill="currentColor"/>
<path d="M96.9327 3.17306C97.2191 2.99965 97.5507 2.87147 97.9275 2.78854C98.3119 2.7056 98.7114 2.66413 99.1259 2.66413C99.5178 2.66413 99.8306 2.71691 100.064 2.82247C100.305 2.92802 100.486 3.06751 100.607 3.24092C100.735 3.40679 100.818 3.59151 100.856 3.79509C100.901 3.99866 100.923 4.20223 100.923 4.4058C100.923 4.85818 100.912 5.29926 100.89 5.72902C100.867 6.15878 100.856 6.56592 100.856 6.95045C100.856 7.22942 100.867 7.49331 100.89 7.74212C100.912 7.99093 100.954 8.22089 101.014 8.432H100.347L100.109 7.64033H100.053C99.9851 7.74589 99.8984 7.85144 99.7929 7.957C99.6949 8.05501 99.5744 8.14549 99.4312 8.22843C99.288 8.30382 99.1221 8.36791 98.9337 8.42069C98.7453 8.47347 98.5305 8.49986 98.2893 8.49986C98.0481 8.49986 97.822 8.46216 97.611 8.38676C97.4075 8.31136 97.2304 8.20581 97.0797 8.07009C96.9289 7.92684 96.8083 7.7572 96.7179 7.56116C96.635 7.36513 96.5935 7.14271 96.5935 6.8939C96.5935 6.56215 96.6614 6.28696 96.797 6.0683C96.9327 5.84211 97.1211 5.66493 97.3623 5.53676C97.611 5.40104 97.9049 5.3068 98.2441 5.25402C98.5908 5.1937 98.9714 5.16354 99.3859 5.16354C99.4915 5.16354 99.5932 5.16354 99.6912 5.16354C99.7967 5.16354 99.9022 5.17108 100.008 5.18616C100.03 4.95997 100.042 4.7564 100.042 4.57544C100.042 4.16076 99.9587 3.87048 99.7929 3.70461C99.6271 3.53874 99.3256 3.4558 98.8885 3.4558C98.7604 3.4558 98.6209 3.46711 98.4702 3.48973C98.327 3.50481 98.1763 3.5312 98.018 3.5689C97.8672 3.59905 97.7203 3.64052 97.5771 3.6933C97.4414 3.73854 97.3208 3.79132 97.2153 3.85163L96.9327 3.17306ZM98.538 7.70819C98.7491 7.70819 98.9375 7.6818 99.1033 7.62902C99.2691 7.5687 99.4123 7.49708 99.5329 7.41414C99.6535 7.32366 99.7515 7.22565 99.8268 7.12009C99.9097 7.01454 99.97 6.91275 100.008 6.81473V5.87604C99.9022 5.8685 99.7929 5.86473 99.6799 5.86473C99.5743 5.85719 99.4688 5.85342 99.3633 5.85342C99.1297 5.85342 98.8998 5.8685 98.6737 5.89866C98.4551 5.92128 98.2592 5.97029 98.0858 6.04569C97.92 6.11354 97.7844 6.21156 97.6788 6.33973C97.5809 6.46037 97.5319 6.61493 97.5319 6.80342C97.5319 7.06731 97.6261 7.28596 97.8145 7.45938C98.0029 7.62525 98.2441 7.70819 98.538 7.70819Z" fill="currentColor"/>
<path d="M104.113 5.51414L102.213 2.75461H103.321L104.395 4.31533L104.712 4.95997L105.04 4.31533L106.136 2.75461H107.154L105.243 5.4689L107.267 8.40938H106.193L104.994 6.69033L104.655 6.01176L104.305 6.69033L103.084 8.40938H102.078L104.113 5.51414Z" fill="currentColor"/>
<path d="M108.359 3.17306C108.646 2.99965 108.977 2.87147 109.354 2.78854C109.739 2.7056 110.138 2.66413 110.553 2.66413C110.945 2.66413 111.257 2.71691 111.491 2.82247C111.732 2.92802 111.913 3.06751 112.034 3.24092C112.162 3.40679 112.245 3.59151 112.282 3.79509C112.328 3.99866 112.35 4.20223 112.35 4.4058C112.35 4.85818 112.339 5.29926 112.316 5.72902C112.294 6.15878 112.282 6.56592 112.282 6.95045C112.282 7.22942 112.294 7.49331 112.316 7.74212C112.339 7.99093 112.38 8.22089 112.441 8.432H111.774L111.536 7.64033H111.48C111.412 7.74589 111.325 7.85144 111.22 7.957C111.122 8.05501 111.001 8.14549 110.858 8.22843C110.715 8.30382 110.549 8.36791 110.36 8.42069C110.172 8.47347 109.957 8.49986 109.716 8.49986C109.475 8.49986 109.249 8.46216 109.038 8.38676C108.834 8.31136 108.657 8.20581 108.506 8.07009C108.356 7.92684 108.235 7.7572 108.145 7.56116C108.062 7.36513 108.02 7.14271 108.02 6.8939C108.02 6.56215 108.088 6.28696 108.224 6.0683C108.359 5.84211 108.548 5.66493 108.789 5.53676C109.038 5.40104 109.332 5.3068 109.671 5.25402C110.018 5.1937 110.398 5.16354 110.813 5.16354C110.918 5.16354 111.02 5.16354 111.118 5.16354C111.223 5.16354 111.329 5.17108 111.434 5.18616C111.457 4.95997 111.468 4.7564 111.468 4.57544C111.468 4.16076 111.385 3.87048 111.22 3.70461C111.054 3.53874 110.752 3.4558 110.315 3.4558C110.187 3.4558 110.048 3.46711 109.897 3.48973C109.754 3.50481 109.603 3.5312 109.445 3.5689C109.294 3.59905 109.147 3.64052 109.004 3.6933C108.868 3.73854 108.748 3.79132 108.642 3.85163L108.359 3.17306ZM109.965 7.70819C110.176 7.70819 110.364 7.6818 110.53 7.62902C110.696 7.5687 110.839 7.49708 110.96 7.41414C111.08 7.32366 111.178 7.22565 111.254 7.12009C111.336 7.01454 111.397 6.91275 111.434 6.81473V5.87604C111.329 5.8685 111.22 5.86473 111.107 5.86473C111.001 5.85719 110.896 5.85342 110.79 5.85342C110.556 5.85342 110.327 5.8685 110.1 5.89866C109.882 5.92128 109.686 5.97029 109.513 6.04569C109.347 6.11354 109.211 6.21156 109.106 6.33973C109.008 6.46037 108.959 6.61493 108.959 6.80342C108.959 7.06731 109.053 7.28596 109.241 7.45938C109.43 7.62525 109.671 7.70819 109.965 7.70819Z" fill="currentColor"/>
<path d="M118.768 10.8975C118.421 10.5356 118.127 10.136 117.886 9.69867C117.645 9.26891 117.449 8.82783 117.298 8.37545C117.155 7.91553 117.05 7.45561 116.982 6.99569C116.914 6.52823 116.88 6.08338 116.88 5.66116C116.88 5.24648 116.914 4.80918 116.982 4.34925C117.05 3.88933 117.159 3.42941 117.31 2.96949C117.46 2.50203 117.656 2.04588 117.898 1.60103C118.146 1.15619 118.448 0.74151 118.802 0.356985L119.345 0.752819C119.043 1.13734 118.791 1.53695 118.587 1.95163C118.391 2.35877 118.233 2.77346 118.112 3.19568C117.992 3.6179 117.905 4.04013 117.852 4.46235C117.807 4.87703 117.785 5.27664 117.785 5.66116C117.785 6.02307 117.811 6.4189 117.864 6.84866C117.924 7.27089 118.014 7.69688 118.135 8.12664C118.263 8.54886 118.425 8.96355 118.621 9.37069C118.825 9.77783 119.066 10.1473 119.345 10.479L118.768 10.8975Z" fill="currentColor"/>
<path d="M124.842 8.40938H123.904V4.95997L122.739 5.20878L120.772 8.40938H119.664L121.428 5.5933L122.118 5.10699C121.846 5.04668 121.594 4.9562 121.36 4.83556C121.134 4.70739 120.934 4.54906 120.761 4.36056C120.595 4.16453 120.463 3.93834 120.365 3.68199C120.275 3.42564 120.23 3.13159 120.23 2.79985C120.23 2.33992 120.305 1.95917 120.456 1.65758C120.614 1.34846 120.825 1.10341 121.089 0.922462C121.36 0.73397 121.673 0.602025 122.027 0.526628C122.389 0.443692 122.77 0.402223 123.169 0.402223C123.425 0.402223 123.697 0.413533 123.983 0.436152C124.277 0.458771 124.563 0.504009 124.842 0.571866V8.40938ZM123.124 1.21651C122.875 1.21651 122.638 1.2429 122.412 1.29568C122.185 1.34092 121.982 1.42385 121.801 1.54449C121.628 1.66512 121.488 1.82723 121.383 2.0308C121.277 2.23437 121.224 2.49072 121.224 2.79985C121.224 3.08635 121.273 3.33139 121.371 3.53497C121.477 3.73854 121.616 3.90818 121.79 4.0439C121.963 4.17207 122.163 4.26632 122.389 4.32663C122.623 4.38695 122.871 4.41711 123.135 4.41711H123.904V1.28437C123.798 1.26175 123.689 1.24667 123.576 1.23913C123.463 1.22405 123.312 1.21651 123.124 1.21651Z" fill="currentColor"/>
<path d="M128.102 5.86473H127.582V8.40938H126.677V2.75461H127.582V5.31056L128.068 5.15223L129.877 2.75461H130.86L129.108 5.02783L128.633 5.40104L129.221 5.85342L131.109 8.40938H129.99L128.102 5.86473Z" fill="currentColor"/>
<path d="M133.738 6.4189L134.055 7.50462H134.111L134.36 6.40759L135.456 2.75461H136.372L134.699 7.83259C134.571 8.20204 134.443 8.56017 134.315 8.907C134.194 9.25383 134.058 9.56295 133.908 9.83438C133.757 10.1058 133.587 10.3207 133.399 10.479C133.21 10.6449 132.992 10.7278 132.743 10.7278C132.472 10.7278 132.249 10.6901 132.076 10.6147L132.234 9.83438C132.332 9.87208 132.427 9.89093 132.517 9.89093C132.728 9.89093 132.932 9.77783 133.127 9.55164C133.323 9.33299 133.485 8.95224 133.614 8.40938L131.341 2.75461H132.381L133.738 6.4189Z" fill="currentColor"/>
<path d="M140.949 3.54628H139.174V8.40938H138.269V3.54628H136.494V2.75461H140.949V3.54628Z" fill="currentColor"/>
<path d="M145.374 5.06176L145.408 4.36056H145.374L144.91 5.08437L142.367 8.40938H141.847V2.75461H142.751V6.20402L142.717 6.87128H142.762L143.203 6.17009L145.747 2.75461H146.278V8.40938H145.374V5.06176Z" fill="currentColor"/>
<path d="M150.833 6.0683L149.963 6.20402L148.471 8.40938H147.374L148.731 6.47545L149.183 6.057C148.791 5.99668 148.455 5.83834 148.177 5.58199C147.905 5.32564 147.77 4.97882 147.77 4.54152C147.77 4.20223 147.826 3.91195 147.939 3.67068C148.06 3.42941 148.229 3.22961 148.448 3.07128C148.666 2.91294 148.926 2.79985 149.228 2.73199C149.529 2.65659 149.869 2.61889 150.245 2.61889C150.524 2.61889 150.784 2.63774 151.025 2.67544C151.267 2.71314 151.504 2.75461 151.738 2.79985V8.40938H150.833V6.0683ZM150.833 3.52366C150.735 3.48596 150.626 3.45957 150.505 3.44449C150.385 3.42187 150.279 3.41056 150.189 3.41056C149.707 3.41056 149.337 3.49727 149.081 3.67068C148.832 3.84409 148.708 4.11929 148.708 4.49628C148.708 4.83556 148.84 5.09945 149.104 5.28795C149.375 5.4689 149.729 5.55938 150.166 5.55938C150.174 5.55938 150.185 5.55938 150.2 5.55938C150.215 5.55938 150.245 5.55938 150.291 5.55938C150.336 5.55938 150.4 5.55938 150.483 5.55938C150.566 5.55184 150.683 5.5443 150.833 5.53676V3.52366Z" fill="currentColor"/>
<path d="M153.113 0.356985C153.459 0.71889 153.753 1.11849 153.994 1.5558C154.236 1.98556 154.428 2.4304 154.571 2.89032C154.722 3.3427 154.831 3.80263 154.899 4.27009C154.967 4.73001 155.001 5.17108 155.001 5.5933C155.001 6.00799 154.967 6.44529 154.899 6.90521C154.831 7.36513 154.722 7.82882 154.571 8.29628C154.42 8.75621 154.22 9.20859 153.972 9.65343C153.731 10.0983 153.433 10.513 153.079 10.8975L152.536 10.5016C152.837 10.1171 153.09 9.71752 153.293 9.30283C153.497 8.88815 153.655 8.4697 153.768 8.04747C153.889 7.62525 153.972 7.2068 154.017 6.79212C154.07 6.37743 154.096 5.97783 154.096 5.5933C154.096 5.2314 154.066 4.83933 154.006 4.41711C153.945 3.99489 153.851 3.5689 153.723 3.13913C153.602 2.70937 153.444 2.29092 153.248 1.88377C153.052 1.47663 152.815 1.10718 152.536 0.775438L153.113 0.356985Z" fill="currentColor"/>
</svg>
