<svg width="180" height="12" viewBox="0 0 180 12" fill="none" xmlns="http://www.w3.org/2000/svg">
<path d="M0.349243 0.862159H5.32933V1.78829H1.41317V8.76812H0.349243V0.862159Z" fill="currentColor"/>
<path d="M4.92435 8.88106C4.81116 8.88106 4.69798 8.86977 4.58479 8.84718V7.85328C4.62252 7.86081 4.67911 7.86458 4.75457 7.86458C4.92057 7.86458 5.06394 7.81187 5.18467 7.70646C5.31294 7.60105 5.41481 7.41658 5.49027 7.15304C5.56572 6.88951 5.62231 6.53186 5.66004 6.08009C5.69777 5.62832 5.71663 5.05608 5.71663 4.36337V2.78218H10.0176V8.76812H9.0216V3.66313H6.71265V4.58925C6.71265 5.42503 6.67492 6.11774 6.59947 6.66739C6.52401 7.21704 6.41083 7.65752 6.25992 7.98882C6.11655 8.31258 5.93168 8.54223 5.70531 8.67776C5.47895 8.81329 5.21863 8.88106 4.92435 8.88106Z" fill="currentColor"/>
<path d="M13.5372 8.88106C13.2052 8.88106 12.9109 8.83588 12.6544 8.74553C12.4054 8.64765 12.1941 8.51588 12.0205 8.35023C11.847 8.18458 11.7149 7.98882 11.6244 7.76293C11.5338 7.53705 11.4886 7.28857 11.4886 7.01751C11.4886 6.42268 11.6621 5.9935 12.0092 5.72997C12.3639 5.46644 12.8694 5.33467 13.5259 5.33467H15.4726V4.92808C15.4726 4.41608 15.3557 4.06219 15.1218 3.86642C14.8954 3.67066 14.5521 3.57277 14.0918 3.57277C13.6617 3.57277 13.3486 3.6556 13.1524 3.82125C12.9562 3.97937 12.8468 4.16007 12.8241 4.36337H11.8281C11.8432 4.12243 11.9073 3.90031 12.0205 3.69701C12.1413 3.48618 12.2997 3.30548 12.4959 3.15489C12.6996 3.0043 12.9411 2.88759 13.2203 2.80477C13.4995 2.71441 13.8088 2.66924 14.1484 2.66924C14.8577 2.66924 15.4198 2.83865 15.8348 3.17748C16.2574 3.50877 16.4687 4.05466 16.4687 4.81514V7.2434C16.4687 7.55964 16.4687 7.83823 16.4687 8.07917C16.4762 8.31258 16.4951 8.54223 16.5252 8.76812H15.6537C15.6311 8.59494 15.616 8.43306 15.6085 8.28247C15.6009 8.12435 15.5971 7.9474 15.5971 7.75164C15.4387 8.06788 15.1821 8.33517 14.8275 8.55353C14.4728 8.77188 14.0427 8.88106 13.5372 8.88106ZM13.7522 7.97752C13.9862 7.97752 14.205 7.9474 14.4087 7.88717C14.62 7.8194 14.8049 7.72528 14.9633 7.60481C15.1218 7.47681 15.2463 7.32246 15.3368 7.14175C15.4274 6.96104 15.4726 6.75022 15.4726 6.50927V6.10268H13.6957C13.3259 6.10268 13.0354 6.17797 12.8241 6.32856C12.6129 6.47162 12.5072 6.70127 12.5072 7.01751C12.5072 7.2961 12.6053 7.52575 12.8015 7.70646C13.0052 7.88717 13.3221 7.97752 13.7522 7.97752Z" fill="currentColor"/>
<path d="M18.2279 2.78218H20.8311C21.5706 2.78218 22.1138 2.93653 22.4609 3.24524C22.808 3.54642 22.9816 3.93795 22.9816 4.41984C22.9816 4.54784 22.959 4.67961 22.9137 4.81514C22.8684 4.94314 22.8043 5.06361 22.7213 5.17655C22.6458 5.2895 22.5515 5.38738 22.4383 5.4702C22.3327 5.55303 22.2119 5.61703 22.0761 5.66221C22.4459 5.75256 22.725 5.92574 22.9137 6.18174C23.1099 6.43021 23.208 6.72386 23.208 7.06269C23.208 7.58222 23.0344 7.99635 22.6873 8.30505C22.3402 8.61376 21.7969 8.76812 21.0575 8.76812H18.2279V2.78218ZM21.0575 7.88717C21.48 7.88717 21.7781 7.81187 21.9516 7.66128C22.1252 7.51069 22.2119 7.2961 22.2119 7.01751C22.2119 6.73139 22.1252 6.51304 21.9516 6.36245C21.7781 6.20433 21.48 6.12527 21.0575 6.12527H19.2239V7.88717H21.0575ZM20.8311 5.31208C21.2612 5.31208 21.5592 5.23679 21.7253 5.0862C21.8988 4.93561 21.9856 4.72855 21.9856 4.46502C21.9856 4.21654 21.8988 4.02078 21.7253 3.87772C21.5592 3.73466 21.2612 3.66313 20.8311 3.66313H19.2239V5.31208H20.8311Z" fill="currentColor"/>
<path d="M26.3367 8.88106C26.0047 8.88106 25.7104 8.83588 25.4539 8.74553C25.2049 8.64765 24.9936 8.51588 24.82 8.35023C24.6465 8.18458 24.5144 7.98882 24.4239 7.76293C24.3333 7.53705 24.2881 7.28857 24.2881 7.01751C24.2881 6.42268 24.4616 5.9935 24.8087 5.72997C25.1634 5.46644 25.6689 5.33467 26.3254 5.33467H28.2721V4.92808C28.2721 4.41608 28.1552 4.06219 27.9213 3.86642C27.6949 3.67066 27.3516 3.57277 26.8913 3.57277C26.4612 3.57277 26.1481 3.6556 25.9519 3.82125C25.7557 3.97937 25.6463 4.16007 25.6236 4.36337H24.6276C24.6427 4.12243 24.7069 3.90031 24.82 3.69701C24.9408 3.48618 25.0992 3.30548 25.2954 3.15489C25.4991 3.0043 25.7406 2.88759 26.0198 2.80477C26.299 2.71441 26.6083 2.66924 26.9479 2.66924C27.6572 2.66924 28.2193 2.83865 28.6343 3.17748C29.0569 3.50877 29.2682 4.05466 29.2682 4.81514V7.2434C29.2682 7.55964 29.2682 7.83823 29.2682 8.07917C29.2757 8.31258 29.2946 8.54223 29.3248 8.76812H28.4532C28.4306 8.59494 28.4155 8.43306 28.408 8.28247C28.4004 8.12435 28.3966 7.9474 28.3966 7.75164C28.2382 8.06788 27.9816 8.33517 27.627 8.55353C27.2724 8.77188 26.8423 8.88106 26.3367 8.88106ZM26.5517 7.97752C26.7857 7.97752 27.0045 7.9474 27.2082 7.88717C27.4195 7.8194 27.6044 7.72528 27.7628 7.60481C27.9213 7.47681 28.0458 7.32246 28.1363 7.14175C28.2269 6.96104 28.2721 6.75022 28.2721 6.50927V6.10268H26.4952C26.1254 6.10268 25.8349 6.17797 25.6236 6.32856C25.4124 6.47162 25.3067 6.70127 25.3067 7.01751C25.3067 7.2961 25.4048 7.52575 25.601 7.70646C25.8047 7.88717 26.1216 7.97752 26.5517 7.97752Z" fill="currentColor"/>
<path d="M34.0833 0.862159H36.7997C37.3204 0.862159 37.7731 0.922395 38.158 1.04287C38.5428 1.16334 38.8597 1.33275 39.1087 1.55111C39.3652 1.76193 39.5539 2.01793 39.6746 2.31911C39.7953 2.61276 39.8557 2.93653 39.8557 3.29042C39.8557 3.6443 39.7953 3.97184 39.6746 4.27302C39.5539 4.56666 39.3652 4.82267 39.1087 5.04102C38.8597 5.25185 38.5428 5.4175 38.158 5.53797C37.7731 5.65844 37.3204 5.71868 36.7997 5.71868H35.1473V8.76812H34.0833V0.862159ZM36.7432 4.79255C37.1204 4.79255 37.4374 4.75867 37.6939 4.6909C37.958 4.61561 38.1693 4.51396 38.3277 4.38596C38.4937 4.25796 38.6107 4.09984 38.6786 3.9116C38.7541 3.72336 38.7918 3.5163 38.7918 3.29042C38.7918 3.06453 38.7541 2.85747 38.6786 2.66924C38.6107 2.481 38.4937 2.32288 38.3277 2.19488C38.1693 2.06688 37.958 1.96899 37.6939 1.90123C37.4374 1.82593 37.1204 1.78829 36.7432 1.78829H35.1473V4.79255H36.7432Z" fill="currentColor"/>
<path d="M43.6531 8.88106C43.2683 8.88106 42.9023 8.82082 42.5552 8.70035C42.2081 8.57988 41.9025 8.39541 41.6384 8.14693C41.3744 7.89093 41.1631 7.57093 41.0046 7.18693C40.8462 6.80292 40.7669 6.35115 40.7669 5.83162V5.60573C40.7669 5.10879 40.8424 4.67961 40.9933 4.31819C41.1442 3.94925 41.3442 3.6443 41.5932 3.40336C41.8497 3.15489 42.144 2.97041 42.476 2.84994C42.8156 2.72947 43.1702 2.66924 43.5399 2.66924C44.4228 2.66924 45.1056 2.91018 45.5886 3.39207C46.0715 3.87395 46.3129 4.55537 46.3129 5.43632V6.0688H41.763C41.763 6.42268 41.8195 6.7201 41.9327 6.96104C42.0459 7.20199 42.1931 7.39775 42.3741 7.54834C42.5552 7.69893 42.7552 7.80811 42.974 7.87587C43.2004 7.94364 43.4268 7.97752 43.6531 7.97752C44.1059 7.97752 44.453 7.90223 44.6944 7.75164C44.9434 7.60105 45.1207 7.39399 45.2264 7.13045H46.1998C46.1394 7.41657 46.03 7.66881 45.8715 7.88717C45.7206 8.10552 45.532 8.29 45.3056 8.44059C45.0868 8.58364 44.834 8.69282 44.5473 8.76812C44.2681 8.84341 43.97 8.88106 43.6531 8.88106ZM43.5965 3.57277C43.3626 3.57277 43.1362 3.60666 42.9174 3.67442C42.6986 3.73466 42.5024 3.83631 42.3289 3.97937C42.1629 4.1149 42.027 4.28807 41.9214 4.4989C41.8158 4.70973 41.763 4.96196 41.763 5.25561H45.3735C45.366 4.9469 45.3131 4.68714 45.2151 4.47631C45.1245 4.25796 45 4.08478 44.8415 3.95678C44.6831 3.82125 44.4945 3.72336 44.2756 3.66313C44.0644 3.60289 43.838 3.57277 43.5965 3.57277Z" fill="currentColor"/>
<path d="M50.0489 8.88106C49.6641 8.88106 49.3056 8.82082 48.9736 8.70035C48.6416 8.57235 48.3549 8.38411 48.1134 8.13564C47.872 7.87964 47.6796 7.55964 47.5362 7.17563C47.4004 6.79163 47.3325 6.34362 47.3325 5.83162V5.60573C47.3325 5.12385 47.4079 4.69843 47.5588 4.32949C47.7098 3.96054 47.9097 3.6556 48.1587 3.41465C48.4077 3.16618 48.6945 2.98171 49.0189 2.86124C49.3509 2.73324 49.6942 2.66924 50.0489 2.66924C50.4035 2.66924 50.7204 2.71818 50.9996 2.81606C51.2864 2.91394 51.5316 3.04947 51.7353 3.22265C51.9466 3.39583 52.1164 3.59913 52.2447 3.83254C52.3805 4.06595 52.4786 4.31819 52.5389 4.58925H51.5203C51.4599 4.44619 51.3882 4.31443 51.3052 4.19396C51.2298 4.06595 51.1317 3.95678 51.0109 3.86642C50.8978 3.77607 50.7619 3.70454 50.6035 3.65183C50.445 3.59913 50.2602 3.57277 50.0489 3.57277C49.8301 3.57277 49.6188 3.61419 49.4151 3.69701C49.2113 3.7723 49.0302 3.89278 48.8718 4.05842C48.7133 4.21654 48.585 4.4236 48.4869 4.67961C48.3964 4.93561 48.3511 5.24432 48.3511 5.60573V5.83162C48.3511 6.21562 48.3964 6.54692 48.4869 6.82551C48.585 7.09657 48.7133 7.31869 48.8718 7.49187C49.0302 7.65752 49.2113 7.78176 49.4151 7.86458C49.6188 7.93987 49.8301 7.97752 50.0489 7.97752C50.4186 7.97752 50.728 7.88717 50.977 7.70646C51.2335 7.52575 51.4146 7.27728 51.5203 6.96104H52.5389C52.3956 7.55587 52.1013 8.02646 51.6561 8.37282C51.2109 8.71165 50.6752 8.88106 50.0489 8.88106Z" fill="currentColor"/>
<path d="M53.8963 2.78218H58.8763V8.76812H57.8803V3.66313H54.8923V8.76812H53.8963V2.78218Z" fill="currentColor"/>
<path d="M61.4752 11.1399C61.362 11.1399 61.2488 11.1286 61.1356 11.106V10.2025C61.2488 10.2251 61.362 10.2364 61.4752 10.2364C61.5883 10.2364 61.6864 10.2175 61.7694 10.1799C61.8524 10.1422 61.9317 10.0707 62.0071 9.96531C62.0826 9.85989 62.1618 9.7093 62.2448 9.51354C62.3353 9.3253 62.4372 9.07683 62.5504 8.76812L60.0038 2.78218H61.113L63.0597 7.63869L64.8254 2.78218H65.8893L63.6256 8.76812C63.4672 9.18977 63.3163 9.55118 63.1729 9.85236C63.0295 10.1535 62.8749 10.3983 62.7089 10.5865C62.5504 10.7823 62.3731 10.9215 62.1769 11.0044C61.9807 11.0947 61.7468 11.1399 61.4752 11.1399Z" fill="currentColor"/>
<path d="M69.5063 8.88106C69.1064 8.88106 68.7329 8.80577 68.3858 8.65518C68.0463 8.50459 67.7482 8.28623 67.4917 8.00011C67.2427 7.70646 67.0427 7.34881 66.8918 6.92716C66.7484 6.50551 66.6767 6.02739 66.6767 5.49279V5.26691C66.6767 4.58925 66.7258 3.9869 66.8239 3.45983C66.922 2.92524 67.088 2.47347 67.3219 2.10452C67.5634 1.72805 67.8765 1.4344 68.2613 1.22357C68.6537 1.01275 69.1441 0.892277 69.7327 0.862159C70.2081 0.839571 70.6231 0.820747 70.9777 0.805688C71.3324 0.7831 71.6342 0.707805 71.8832 0.579803V1.53981C71.7625 1.60758 71.5399 1.66028 71.2154 1.69793C70.8985 1.73558 70.4609 1.76193 69.9025 1.77699C69.5403 1.78452 69.2196 1.8297 68.9404 1.91252C68.6688 1.99535 68.4349 2.12711 68.2387 2.30782C68.05 2.48853 67.8991 2.72571 67.7859 3.01936C67.6803 3.30548 67.6124 3.65936 67.5822 4.08101C67.7633 3.68195 68.0425 3.36571 68.4198 3.1323C68.7971 2.89888 69.2347 2.78218 69.7327 2.78218C70.1175 2.78218 70.4684 2.84994 70.7853 2.98547C71.1022 3.11347 71.3739 3.29795 71.6002 3.53889C71.8342 3.77983 72.0153 4.07725 72.1435 4.43113C72.2718 4.77749 72.3359 5.16902 72.3359 5.60573V5.83162C72.3359 6.29845 72.2643 6.7201 72.1209 7.09657C71.9775 7.46552 71.7813 7.78552 71.5323 8.05658C71.2833 8.32011 70.9853 8.52341 70.6382 8.66647C70.2911 8.80953 69.9138 8.88106 69.5063 8.88106ZM69.5063 7.97752C70.0345 7.97752 70.4684 7.79681 70.808 7.4354C71.1475 7.06645 71.3173 6.53186 71.3173 5.83162V5.60573C71.3173 5.31208 71.272 5.04855 71.1815 4.81514C71.0909 4.58172 70.9664 4.38219 70.808 4.21654C70.6495 4.04337 70.4571 3.9116 70.2307 3.82125C70.0119 3.73089 69.7704 3.68572 69.5063 3.68572C69.2422 3.68572 68.997 3.73089 68.7706 3.82125C68.5518 3.9116 68.3632 4.04337 68.2047 4.21654C68.0463 4.38219 67.9218 4.58172 67.8312 4.81514C67.7407 5.04855 67.6954 5.31208 67.6954 5.60573V5.83162C67.6954 6.16292 67.7407 6.4641 67.8312 6.73516C67.9293 6.99869 68.0614 7.22457 68.2274 7.41281C68.3934 7.59352 68.5858 7.73281 68.8046 7.8307C69.0234 7.92858 69.2573 7.97752 69.5063 7.97752Z" fill="currentColor"/>
<path d="M73.3541 8.88106C73.241 8.88106 73.1278 8.86977 73.0146 8.84718V7.85328C73.0523 7.86081 73.1089 7.86458 73.1844 7.86458C73.3504 7.86458 73.4937 7.81187 73.6145 7.70646C73.7427 7.60105 73.8446 7.41658 73.9201 7.15304C73.9955 6.88951 74.0521 6.53186 74.0898 6.08009C74.1276 5.62832 74.1464 5.05608 74.1464 4.36337V2.78218H78.4474V8.76812H77.4514V3.66313H75.1425V4.58925C75.1425 5.42503 75.1047 6.11774 75.0293 6.66739C74.9538 7.21704 74.8406 7.65752 74.6897 7.98882C74.5463 8.31258 74.3615 8.54223 74.1351 8.67776C73.9088 8.81329 73.6484 8.88106 73.3541 8.88106Z" fill="currentColor"/>
<path d="M80.2579 2.78218H81.2539V7.29987L84.3552 2.78218H85.3512V8.76812H84.3552V4.25043L81.2539 8.76812H80.2579V2.78218Z" fill="currentColor"/>
<path d="M87.1661 2.78218H88.1621V5.2895H88.9544L91.1955 2.78218H92.3726L89.7693 5.65091L92.4858 8.76812H91.2181L88.9544 6.14786H88.1621V8.76812H87.1661V2.78218Z" fill="currentColor"/>
<path d="M93.6764 2.78218H94.6724V7.29987L97.7737 2.78218H98.7697V8.76812H97.7737V4.25043L94.6724 8.76812H93.6764V2.78218Z" fill="currentColor"/>
<path d="M106.527 8.88106C106.082 8.88106 105.659 8.80577 105.259 8.65518C104.859 8.49706 104.505 8.25611 104.195 7.93234C103.886 7.60105 103.641 7.18316 103.459 6.67869C103.278 6.17421 103.188 5.57185 103.188 4.87161V4.64572C103.188 3.96807 103.278 3.38454 103.459 2.89512C103.641 2.4057 103.886 2.00288 104.195 1.68664C104.505 1.3704 104.859 1.13699 105.259 0.986396C105.659 0.828276 106.082 0.749217 106.527 0.749217C106.957 0.749217 107.349 0.805688 107.704 0.91863C108.066 1.03157 108.383 1.19346 108.655 1.40428C108.926 1.61511 109.145 1.87487 109.311 2.18358C109.485 2.49229 109.594 2.84241 109.639 3.23395H108.507C108.402 2.72194 108.179 2.33794 107.84 2.08194C107.5 1.82593 107.062 1.69793 106.527 1.69793C106.248 1.69793 105.976 1.75064 105.712 1.85605C105.448 1.96146 105.21 2.13088 104.999 2.36429C104.795 2.59018 104.629 2.89136 104.501 3.26783C104.38 3.6443 104.32 4.1036 104.32 4.64572V4.87161C104.32 5.44385 104.388 5.92574 104.523 6.31727C104.659 6.70127 104.833 7.01375 105.044 7.25469C105.255 7.49563 105.493 7.66881 105.757 7.77423C106.021 7.87964 106.278 7.93234 106.527 7.93234C107.115 7.93234 107.576 7.78928 107.908 7.50316C108.24 7.21704 108.44 6.8481 108.507 6.39633H109.639C109.579 6.83304 109.458 7.20951 109.277 7.52575C109.096 7.83446 108.866 8.09046 108.587 8.29376C108.315 8.49706 108.002 8.64765 107.647 8.74553C107.3 8.83588 106.927 8.88106 106.527 8.88106Z" fill="currentColor"/>
<path d="M112.816 8.88106C112.484 8.88106 112.19 8.83588 111.933 8.74553C111.684 8.64765 111.473 8.51588 111.3 8.35023C111.126 8.18458 110.994 7.98882 110.903 7.76293C110.813 7.53705 110.768 7.28857 110.768 7.01751C110.768 6.42268 110.941 5.9935 111.288 5.72997C111.643 5.46644 112.148 5.33467 112.805 5.33467H114.752V4.92808C114.752 4.41608 114.635 4.06219 114.401 3.86642C114.174 3.67066 113.831 3.57277 113.371 3.57277C112.941 3.57277 112.628 3.6556 112.431 3.82125C112.235 3.97937 112.126 4.16007 112.103 4.36337H111.107C111.122 4.12243 111.186 3.90031 111.3 3.69701C111.42 3.48618 111.579 3.30548 111.775 3.15489C111.979 3.0043 112.22 2.88759 112.499 2.80477C112.779 2.71441 113.088 2.66924 113.427 2.66924C114.137 2.66924 114.699 2.83865 115.114 3.17748C115.536 3.50877 115.748 4.05466 115.748 4.81514V7.2434C115.748 7.55964 115.748 7.83823 115.748 8.07917C115.755 8.31258 115.774 8.54223 115.804 8.76812H114.933C114.91 8.59494 114.895 8.43306 114.887 8.28247C114.88 8.12435 114.876 7.9474 114.876 7.75164C114.718 8.06788 114.461 8.33517 114.107 8.55353C113.752 8.77188 113.322 8.88106 112.816 8.88106ZM113.031 7.97752C113.265 7.97752 113.484 7.9474 113.688 7.88717C113.899 7.8194 114.084 7.72528 114.242 7.60481C114.401 7.47681 114.525 7.32246 114.616 7.14175C114.706 6.96104 114.752 6.75022 114.752 6.50927V6.10268H112.975C112.605 6.10268 112.314 6.17797 112.103 6.32856C111.892 6.47162 111.786 6.70127 111.786 7.01751C111.786 7.2961 111.884 7.52575 112.081 7.70646C112.284 7.88717 112.601 7.97752 113.031 7.97752Z" fill="currentColor"/>
<path d="M119.137 5.72997L116.998 2.78218H118.152L119.737 4.96196L121.321 2.78218H122.43L120.291 5.6735L122.544 8.76812H121.366L119.691 6.43021L118.016 8.76812H116.884L119.137 5.72997Z" fill="currentColor"/>
<path d="M125.328 8.88106C124.996 8.88106 124.702 8.83588 124.446 8.74553C124.197 8.64765 123.985 8.51588 123.812 8.35023C123.638 8.18458 123.506 7.98882 123.416 7.76293C123.325 7.53705 123.28 7.28857 123.28 7.01751C123.28 6.42268 123.453 5.9935 123.8 5.72997C124.155 5.46644 124.661 5.33467 125.317 5.33467H127.264V4.92808C127.264 4.41608 127.147 4.06219 126.913 3.86642C126.687 3.67066 126.343 3.57277 125.883 3.57277C125.453 3.57277 125.14 3.6556 124.944 3.82125C124.747 3.97937 124.638 4.16007 124.615 4.36337H123.619C123.634 4.12243 123.699 3.90031 123.812 3.69701C123.932 3.48618 124.091 3.30548 124.287 3.15489C124.491 3.0043 124.732 2.88759 125.011 2.80477C125.291 2.71441 125.6 2.66924 125.94 2.66924C126.649 2.66924 127.211 2.83865 127.626 3.17748C128.049 3.50877 128.26 4.05466 128.26 4.81514V7.2434C128.26 7.55964 128.26 7.83823 128.26 8.07917C128.267 8.31258 128.286 8.54223 128.316 8.76812H127.445C127.422 8.59494 127.407 8.43306 127.4 8.28247C127.392 8.12435 127.388 7.9474 127.388 7.75164C127.23 8.06788 126.973 8.33517 126.619 8.55353C126.264 8.77188 125.834 8.88106 125.328 8.88106ZM125.543 7.97752C125.777 7.97752 125.996 7.9474 126.2 7.88717C126.411 7.8194 126.596 7.72528 126.754 7.60481C126.913 7.47681 127.037 7.32246 127.128 7.14175C127.219 6.96104 127.264 6.75022 127.264 6.50927V6.10268H125.487C125.117 6.10268 124.827 6.17797 124.615 6.32856C124.404 6.47162 124.298 6.70127 124.298 7.01751C124.298 7.2961 124.396 7.52575 124.593 7.70646C124.796 7.88717 125.113 7.97752 125.543 7.97752Z" fill="currentColor"/>
<path d="M132.962 5.83162C132.962 5.09373 133.064 4.42361 133.267 3.82125C133.479 3.21889 133.713 2.69559 133.969 2.25135C134.263 1.73934 134.599 1.27628 134.976 0.862159H136.131C135.724 1.27628 135.365 1.73934 135.056 2.25135C134.92 2.4697 134.788 2.71065 134.66 2.97418C134.531 3.23771 134.414 3.52007 134.309 3.82125C134.211 4.12243 134.131 4.44243 134.071 4.78126C134.011 5.11255 133.98 5.46267 133.98 5.83162V6.0575C133.98 6.42645 134.011 6.78033 134.071 7.11916C134.131 7.45799 134.211 7.77799 134.309 8.07917C134.414 8.38035 134.531 8.6627 134.66 8.92624C134.788 9.18977 134.92 9.43071 135.056 9.64907C135.365 10.1686 135.724 10.6279 136.131 11.027H134.931C134.561 10.6279 134.233 10.1686 133.947 9.64907C133.698 9.21236 133.471 8.68906 133.267 8.07917C133.064 7.46928 132.962 6.79539 132.962 6.0575V5.83162Z" fill="currentColor"/>
<path d="M138.925 5.44762C138.314 5.28197 137.854 5.00338 137.544 4.61184C137.243 4.21278 137.092 3.75348 137.092 3.23395C137.092 2.89512 137.156 2.58265 137.284 2.29653C137.412 2.00288 137.601 1.75064 137.85 1.53981C138.099 1.32899 138.408 1.16334 138.778 1.04287C139.155 0.922395 139.593 0.862159 140.091 0.862159H142.864V8.76812H141.8V5.58315H139.967L137.952 8.76812H136.752L138.925 5.44762ZM138.156 3.23395C138.156 3.66313 138.314 4.01325 138.631 4.28431C138.948 4.54784 139.472 4.67961 140.204 4.67961H141.8V1.78829H140.204C139.472 1.78829 138.948 1.92382 138.631 2.19488C138.314 2.45841 138.156 2.80477 138.156 3.23395Z" fill="currentColor"/>
<path d="M144.897 2.78218H145.893V5.2895H146.685L148.926 2.78218H150.103L147.5 5.65091L150.216 8.76812H148.948L146.685 6.14786H145.893V8.76812H144.897V2.78218Z" fill="currentColor"/>
<path d="M152.31 11.1399C152.196 11.1399 152.083 11.1286 151.97 11.106V10.2025C152.083 10.2251 152.196 10.2364 152.31 10.2364C152.423 10.2364 152.521 10.2175 152.604 10.1799C152.687 10.1422 152.766 10.0707 152.842 9.96531C152.917 9.85989 152.996 9.7093 153.079 9.51354C153.17 9.3253 153.272 9.07683 153.385 8.76812L150.838 2.78218H151.947L153.894 7.63869L155.66 2.78218H156.724L154.46 8.76812C154.302 9.18977 154.151 9.55118 154.007 9.85236C153.864 10.1535 153.709 10.3983 153.543 10.5865C153.385 10.7823 153.208 10.9215 153.011 11.0044C152.815 11.0947 152.581 11.1399 152.31 11.1399Z" fill="currentColor"/>
<path d="M159.441 3.66313H157.393V2.78218H162.486V3.66313H160.437V8.76812H159.441V3.66313Z" fill="currentColor"/>
<path d="M163.62 2.78218H164.617V7.29987L167.718 2.78218H168.714V8.76812H167.718V4.25043L164.617 8.76812H163.62V2.78218Z" fill="currentColor"/>
<path d="M171.706 6.39633C171.208 6.28339 170.849 6.08009 170.631 5.78644C170.412 5.48526 170.302 5.10126 170.302 4.63443C170.302 4.04713 170.48 3.5916 170.834 3.26783C171.196 2.94406 171.774 2.78218 172.566 2.78218H175.169V8.76812H174.173V6.48668H172.645L171.185 8.76812H170.076L171.706 6.39633ZM171.298 4.63443C171.298 4.95067 171.389 5.19161 171.57 5.35726C171.759 5.52291 172.072 5.60573 172.509 5.60573H174.173V3.66313H172.509C172.072 3.66313 171.759 3.74595 171.57 3.9116C171.389 4.07725 171.298 4.31819 171.298 4.63443Z" fill="currentColor"/>
<path d="M179.349 6.0575C179.349 6.79539 179.244 7.46552 179.032 8.06788C178.829 8.67023 178.598 9.19353 178.342 9.63777C178.048 10.1498 177.712 10.6128 177.335 11.027H176.18C176.588 10.6128 176.946 10.1498 177.255 9.63777C177.391 9.41942 177.523 9.17847 177.651 8.91494C177.78 8.65141 177.893 8.36906 177.991 8.06788C178.097 7.7667 178.18 7.45046 178.24 7.11916C178.3 6.78033 178.331 6.42645 178.331 6.0575V5.83162C178.331 5.46267 178.3 5.10879 178.24 4.76996C178.18 4.43114 178.097 4.11113 177.991 3.80995C177.893 3.50877 177.78 3.22642 177.651 2.96289C177.523 2.69935 177.391 2.45841 177.255 2.24005C176.946 1.72052 176.588 1.26122 176.18 0.862159H177.38C177.75 1.26122 178.078 1.72052 178.365 2.24005C178.614 2.67676 178.84 3.20006 179.044 3.80995C179.247 4.41984 179.349 5.09373 179.349 5.83162V6.0575Z" fill="currentColor"/>
</svg>
